{
.appVersion = "912";
DisplayStrings = (
"/iu-cy.loclBGR"
);
classes = (
{
code = "a d j l q t w  y G W";
name = aalt1;
},
{
code = "a.alt d.alt j.alt l.alt q.alt t.alt w.alt y.alt G.alt W.alt";
name = aalt2;
},
{
code = "zero.lnum one.lnum two.lnum three.lnum four.lnum five.lnum six.lnum seven.lnum eight.lnum nine.lnum";
name = lnum1;
},
{
code = "zero one two three four five six seven eight nine";
name = onum1;
},
{
code = "a b c d e f g h i j k l m n o p q r s t u v w x y z";
name = smcp1;
},
{
code = "A.sc B.sc C.sc D.sc E.sc F.sc G.sc H.sc I.sc J.sc K.sc L.sc M.sc N.sc O.sc P.sc Q.sc R.sc S.sc T.sc U.sc V.sc W.sc X.sc Y.sc Z.sc";
name = smcp2;
},
{
automatic = 1;

glyphs = (
{
glyphname = A;
lastChange = "2016-08-17 14:38:19 +0000";
layers = (
{
anchors = (
{
name = bottom;
position = "{553, 8}";
},
{
name = top;
position = "{415, 707}";
}
);
background = {
paths = (
{
closed = 1;
nodes = (
"-39 0 LINE",
"-17 0 LINE",
"142 254 LINE",
"493 254 LINE",
"544 0 LINE",
"566 0 LINE",
"424 710 LINE",
"406 710 LINE"
);
},
{
closed = 1;
nodes = (
"154 274 LINE",
"409 681 LINE",
"489 274 LINE"
);
}
);
};
layerId = UUID0;
paths = (
{
closed = 1;
nodes = (
"-39 0 LINE",
"-17 0 LINE",
"142 254 LINE",
"493 254 LINE",
"544 0 LINE",
"566 0 LINE",
"424 710 LINE",
"406 710 LINE"
);
},
{
closed = 1;
nodes = (
"154 274 LINE",
"409 681 LINE",
"489 274 LINE"
);
}
);
width = 647;
},
{
anchors = (
{
name = bottom;
position = "{479, 5}";
},
{
name = top;
position = "{403, 708}";
}
);
layerId = "6CB1ED38-7E52-4100-AE28-A91D059C1838";
paths = (
{
closed = 1;
nodes = (
"-61 0 LINE",
"138 0 LINE",
"203 139 LINE",
"373 139 LINE",
"380 0 LINE",
"578 0 LINE",
"499 710 LINE",
"320 710 LINE"
);
},
{
closed = 1;
nodes = (
"259 269 LINE",
"362 489 LINE",
"370 269 LINE"
);
}
);
width = 636;
}
);
leftKerningGroup = A;
rightKerningGroup = A;
unicode = 0041;
},
{
glyphname = AE;
lastChange = "2016-08-17 14:38:19 +0000";
layers = (
{
anchors = (
{
name = top;
position = "{410, 707}";
}
);
background = {
paths = (
{
closed = 1;
nodes = (
"-84 0 LINE",
"-59 0 LINE",
"153 254 LINE",
"419 254 LINE",
"365 0 LINE",
"808 0 LINE",
"812 20 LINE",
"390 20 LINE",
"460 353 LINE",
"823 353 LINE",
"828 373 LINE",
"465 373 LINE",
"532 690 LINE",
"946 690 LINE",
"951 710 LINE",
"511 710 LINE"
);
},
{
closed = 1;
nodes = (
"169 274 LINE",
"509 678 LINE",
"424 274 LINE"
);
}
);
};
layerId = UUID0;
paths = (
{
closed = 1;
nodes = (
"-84 0 LINE",
"-59 0 LINE",
"153 254 LINE",
"419 254 LINE",
"365 0 LINE",
"808 0 LINE",
"812 20 LINE",
"390 20 LINE",
"460 353 LINE",
"823 353 LINE",
"828 373 LINE",
"465 373 LINE",
"532 690 LINE",
"946 690 LINE",
"951 710 LINE",
"511 710 LINE"
);
},
{
closed = 1;
nodes = (
"169 274 LINE",
"509 678 LINE",
"424 274 LINE"
);
}
);
width = 921;
},
{
anchors = (
{
name = top;
position = "{496, 708}";
}
);
layerId = "6CB1ED38-7E52-4100-AE28-A91D059C1838";
paths = (
{
closed = 1;
nodes = (
"-80 0 LINE",
"126 0 LINE",
"221 139 LINE",
"408 139 LINE",
"378 0 LINE",
"840 0 LINE",
"876 170 LINE",
"609 170 LINE",
"631 276 LINE",
"839 276 LINE",
"875 446 LINE",
"667 446 LINE",
"687 540 LINE",
"946 540 LINE",
"983 710 LINE",
"478 710 LINE"
);
},
{
closed = 1;
nodes = (
"339 309 LINE",
"468 495 LINE",
"429 309 LINE"
);
}
);
width = 935;
}
);
leftKerningGroup = AE;
rightKerningGroup = E;
unicode = 00C6;
},
{
glyphname = B;
lastChange = "2016-08-17 14:38:19 +0000";
layers = (
{
background = {
paths = (
{
closed = 1;
nodes = (
"33 0 LINE",
"346 0 LINE SMOOTH",
"450 0 OFFCURVE",
"558 104 OFFCURVE",
"558 218 CURVE SMOOTH",
"558 284 OFFCURVE",
"525 344 OFFCURVE",
"466 364 CURVE",
"544 398 OFFCURVE",
"603 478 OFFCURVE",
"603 565 CURVE SMOOTH",
"603 639 OFFCURVE",
"562 710 OFFCURVE",
"483 710 CURVE SMOOTH",
"184 710 LINE"
);
},
{
closed = 1;
nodes = (
"57 20 LINE",
"127 348 LINE",
"426 348 LINE SMOOTH",
"495 348 OFFCURVE",
"537 286 OFFCURVE",
"537 215 CURVE SMOOTH",
"537 119 OFFCURVE",
"444 20 OFFCURVE",
"350 20 CURVE SMOOTH"
);
},
{
closed = 1;
nodes = (
"131 368 LINE",
"200 690 LINE",
"478 690 LINE SMOOTH",
"545 690 OFFCURVE",
"583 631 OFFCURVE",
"583 562 CURVE SMOOTH",
"583 468 OFFCURVE",
"497 368 OFFCURVE",
"404 368 CURVE SMOOTH"
);
}
);
};
layerId = UUID0;
paths = (
{
closed = 1;
nodes = (
"33 0 LINE",
"346 0 LINE SMOOTH",
"450 0 OFFCURVE",
"558 104 OFFCURVE",
"558 218 CURVE SMOOTH",
"558 284 OFFCURVE",
"525 344 OFFCURVE",
"466 364 CURVE",
"544 398 OFFCURVE",
"603 478 OFFCURVE",
"603 565 CURVE SMOOTH",
"603 639 OFFCURVE",
"562 710 OFFCURVE",
"483 710 CURVE SMOOTH",
"184 710 LINE"
);
},
{
closed = 1;
nodes = (
"57 20 LINE",
"127 348 LINE",
"426 348 LINE SMOOTH",
"495 348 OFFCURVE",
"537 286 OFFCURVE",
"537 215 CURVE SMOOTH",
"537 119 OFFCURVE",
"444 20 OFFCURVE",
"350 20 CURVE SMOOTH"
);
},
{
closed = 1;
nodes = (
"131 368 LINE",
"200 690 LINE",
"478 690 LINE SMOOTH",
"545 690 OFFCURVE",
"583 631 OFFCURVE",
"583 562 CURVE SMOOTH",
"583 468 OFFCURVE",
"497 368 OFFCURVE",
"404 368 CURVE SMOOTH"
);
}
);
width = 628;
},
{
layerId = "6CB1ED38-7E52-4100-AE28-A91D059C1838";
paths = (
{
closed = 1;
nodes = (
"-3 0 LINE",
"330 0 LINE SMOOTH",
"483 0 OFFCURVE",
"621 66 OFFCURVE",
"621 225 CURVE SMOOTH",
"621 297 OFFCURVE",
"586 345 OFFCURVE",
"528 364 CURVE",
"615 400 OFFCURVE",
"665 485 OFFCURVE",
"665 564 CURVE SMOOTH",
"665 639 OFFCURVE",
"624 710 OFFCURVE",
"545 710 CURVE SMOOTH",
"148 710 LINE"
);
},
{
closed = 1;
nodes = (
"227 164 LINE",
"252 283 LINE",
"396 283 LINE SMOOTH",
"416 283 OFFCURVE",
"428 264 OFFCURVE",
"428 238 CURVE SMOOTH",
"428 192 OFFCURVE",
"397 164 OFFCURVE",
"365 164 CURVE SMOOTH"
);
},
{
closed = 1;
nodes = (
"284 435 LINE",
"308 544 LINE",
"431 544 LINE",
"448 544 OFFCURVE",
"461 533 OFFCURVE",
"461 506 CURVE SMOOTH",
"461 451 OFFCURVE",
"428 435 OFFCURVE",
"402 435 CURVE SMOOTH"
);
}
);
width = 667;
}
);
leftKerningGroup = I;
unicode = 0042;
},
{
glyphname = C;
lastChange = "2016-08-17 14:38:19 +0000";
layers = (
{
anchors = (
{
name = bottom;
position = "{319, 0}";
},
{
name = top;
position = "{453, 707}";
}
);
background = {
paths = (
{
closed = 1;
nodes = (
"399 -6 OFFCURVE",
"529 52 OFFCURVE",
"598 159 CURVE",
"580 164 LINE",
"506 60 OFFCURVE",
"393 14 OFFCURVE",
"304 14 CURVE SMOOTH",
"163 14 OFFCURVE",
"72 142 OFFCURVE",
"72 293 CURVE SMOOTH",
"72 478 OFFCURVE",
"230 694 OFFCURVE",
"446 694 CURVE SMOOTH",
"532 694 OFFCURVE",
"617 657 OFFCURVE",
"647 553 CURVE",
"667 559 LINE",
"646 649 OFFCURVE",
"574 714 OFFCURVE",
"454 714 CURVE SMOOTH",
"222 714 OFFCURVE",
"52 486 OFFCURVE",
"52 293 CURVE SMOOTH",
"52 140 OFFCURVE",
"141 -6 OFFCURVE",
"296 -6 CURVE SMOOTH"
);
}
);
};
layerId = UUID0;
paths = (
{
closed = 1;
nodes = (
"399 -6 OFFCURVE",
"529 52 OFFCURVE",
"598 159 CURVE",
"580 164 LINE",
"506 60 OFFCURVE",
"393 14 OFFCURVE",
"304 14 CURVE SMOOTH",
"163 14 OFFCURVE",
"72 142 OFFCURVE",
"72 293 CURVE SMOOTH",
"72 478 OFFCURVE",
"230 694 OFFCURVE",
"446 694 CURVE SMOOTH",
"532 694 OFFCURVE",
"617 657 OFFCURVE",
"647 553 CURVE",
"667 559 LINE",
"646 649 OFFCURVE",
"574 714 OFFCURVE",
"454 714 CURVE SMOOTH",
"222 714 OFFCURVE",
"52 486 OFFCURVE",
"52 293 CURVE SMOOTH",
"52 140 OFFCURVE",
"141 -6 OFFCURVE",
"296 -6 CURVE SMOOTH"
);
}
);
width = 663;
},
{
anchors = (
{
name = bottom;
position = "{303, 0}";
},
{
name = top;
position = "{454, 708}";
}
);
layerId = "6CB1ED38-7E52-4100-AE28-A91D059C1838";
paths = (
{
closed = 1;
nodes = (
"299 -6 CURVE SMOOTH",
"415 -6 OFFCURVE",
"563 54 OFFCURVE",
"625 159 CURVE",
"486 254 LINE",
"452 190 OFFCURVE",
"388 167 OFFCURVE",
"340 167 CURVE SMOOTH",
"264 167 OFFCURVE",
"227 233 OFFCURVE",
"227 311 CURVE SMOOTH",
"227 410 OFFCURVE",
"294 541 OFFCURVE",
"417 541 CURVE SMOOTH",
"466 541 OFFCURVE",
"523 522 OFFCURVE",
"533 453 CURVE",
"704 559 LINE",
"677 652 OFFCURVE",
"588 714 OFFCURVE",
"458 714 CURVE SMOOTH",
"211 714 OFFCURVE",
"28 495 OFFCURVE",
"28 298 CURVE SMOOTH",
"28 142 OFFCURVE",
"127 -6 OFFCURVE"
);
}
);
width = 664;
}
);
leftKerningGroup = O;
rightKerningGroup = C;
unicode = 0043;
},
{
glyphname = D;
lastChange = "2016-08-17 14:38:19 +0000";
layers = (
{
anchors = (
{
name = top;
position = "{427, 707}";
}
);
background = {
paths = (
{
closed = 1;
nodes = (
"33 0 LINE",
"250 0 LINE SMOOTH",
"483 0 OFFCURVE",
"653 188 OFFCURVE",
"653 440 CURVE SMOOTH",
"653 591 OFFCURVE",
"574 710 OFFCURVE",
"401 710 CURVE SMOOTH",
"184 710 LINE"
);
},
{
closed = 1;
nodes = (
"57 20 LINE",
"200 690 LINE",
"397 690 LINE SMOOTH",
"553 690 OFFCURVE",
"633 584 OFFCURVE",
"633 435 CURVE SMOOTH",
"633 217 OFFCURVE",
"491 20 OFFCURVE",
"254 20 CURVE SMOOTH"
);
}
);
};
layerId = UUID0;
paths = (
{
closed = 1;
nodes = (
"33 0 LINE",
"250 0 LINE SMOOTH",
"483 0 OFFCURVE",
"653 188 OFFCURVE",
"653 440 CURVE SMOOTH",
"653 591 OFFCURVE",
"574 710 OFFCURVE",
"401 710 CURVE SMOOTH",
"184 710 LINE"
);
},
{
closed = 1;
nodes = (
"57 20 LINE",
"200 690 LINE",
"397 690 LINE SMOOTH",
"553 690 OFFCURVE",
"633 584 OFFCURVE",
"633 435 CURVE SMOOTH",
"633 217 OFFCURVE",
"491 20 OFFCURVE",
"254 20 CURVE SMOOTH"
);
}
);
width = 684;
},
{
anchors = (
{
name = top;
position = "{420, 708}";
}
);
layerId = "6CB1ED38-7E52-4100-AE28-A91D059C1838";
paths = (
{
closed = 1;
nodes = (
"-3 0 LINE",
"259 0 LINE",
"502 0 OFFCURVE",
"686 183 OFFCURVE",
"686 433 CURVE SMOOTH",
"686 588 OFFCURVE",
"598 710 OFFCURVE",
"410 710 CURVE SMOOTH",
"148 710 LINE"
);
},
{
closed = 1;
nodes = (
"228 170 LINE",
"307 540 LINE",
"374 540 LINE SMOOTH",
"446 540 OFFCURVE",
"485 486 OFFCURVE",
"485 405 CURVE SMOOTH",
"485 280 OFFCURVE",
"407 170 OFFCURVE",
"295 170 CURVE SMOOTH"
);
}
);
width = 693;
}
);
leftKerningGroup = I;
rightKerningGroup = D;
unicode = 0044;
},
{
glyphname = Eth;
lastChange = "2016-08-17 14:38:19 +0000";
layers = (
{
background = {
paths = (
{
closed = 1;
nodes = (
"47 347 LINE",
"316 347 LINE",
"320 367 LINE",
"51 367 LINE"
);
},
{
closed = 1;
nodes = (
"40 0 LINE",
"257 0 LINE SMOOTH",
"490 0 OFFCURVE",
"660 188 OFFCURVE",
"660 440 CURVE SMOOTH",
"660 591 OFFCURVE",
"581 710 OFFCURVE",
"408 710 CURVE SMOOTH",
"191 710 LINE"
);
},
{
closed = 1;
nodes = (
"64 20 LINE",
"207 690 LINE",
"404 690 LINE SMOOTH",
"560 690 OFFCURVE",
"640 584 OFFCURVE",
"640 435 CURVE SMOOTH",
"640 217 OFFCURVE",
"498 20 OFFCURVE",
"261 20 CURVE SMOOTH"
);
}
);
};
layerId = UUID0;
paths = (
{
closed = 1;
nodes = (
"47 347 LINE",
"316 347 LINE",
"320 367 LINE",
"51 367 LINE"
);
},
{
closed = 1;
nodes = (
"40 0 LINE",
"257 0 LINE SMOOTH",
"490 0 OFFCURVE",
"660 188 OFFCURVE",
"660 440 CURVE SMOOTH",
"660 591 OFFCURVE",
"581 710 OFFCURVE",
"408 710 CURVE SMOOTH",
"191 710 LINE"
);
},
{
closed = 1;
nodes = (
"64 20 LINE",
"207 690 LINE",
"404 690 LINE SMOOTH",
"560 690 OFFCURVE",
"640 584 OFFCURVE",
"640 435 CURVE SMOOTH",
"640 217 OFFCURVE",
"498 20 OFFCURVE",
"261 20 CURVE SMOOTH"
);
}
);
width = 691;
},
{
layerId = "6CB1ED38-7E52-4100-AE28-A91D059C1838";
paths = (
{
closed = 1;
nodes = (
"28 287 LINE",
"360 287 LINE",
"390 427 LINE",
"57 427 LINE"
);
},
{
closed = 1;
nodes = (
"0 0 LINE",
"262 0 LINE",
"505 0 OFFCURVE",
"689 183 OFFCURVE",
"689 433 CURVE SMOOTH",
"689 588 OFFCURVE",
"601 710 OFFCURVE",
"413 710 CURVE SMOOTH",
"151 710 LINE"
);
},
{
closed = 1;
nodes = (
"231 170 LINE",
"310 540 LINE",
"377 540 LINE SMOOTH",
"449 540 OFFCURVE",
"488 486 OFFCURVE",
"488 405 CURVE SMOOTH",
"488 280 OFFCURVE",
"410 170 OFFCURVE",
"298 170 CURVE SMOOTH"
);
}
);
width = 696;
}
);
leftKerningGroup = I;
rightKerningGroup = D;
unicode = 00D0;
},
{
glyphname = Dcroat;
lastChange = "2016-08-17 14:38:19 +0000";
layers = (
{
background = {
paths = (
{
closed = 1;
nodes = (
"47 347 LINE",
"316 347 LINE",
"320 367 LINE",
"51 367 LINE"
);
},
{
closed = 1;
nodes = (
"40 0 LINE",
"257 0 LINE SMOOTH",
"490 0 OFFCURVE",
"660 188 OFFCURVE",
"660 440 CURVE SMOOTH",
"660 591 OFFCURVE",
"581 710 OFFCURVE",
"408 710 CURVE SMOOTH",
"191 710 LINE"
);
},
{
closed = 1;
nodes = (
"64 20 LINE",
"207 690 LINE",
"404 690 LINE SMOOTH",
"560 690 OFFCURVE",
"640 584 OFFCURVE",
"640 435 CURVE SMOOTH",
"640 217 OFFCURVE",
"498 20 OFFCURVE",
"261 20 CURVE SMOOTH"
);
}
);
};
layerId = UUID0;
paths = (
{
closed = 1;
nodes = (
"47 347 LINE",
"316 347 LINE",
"320 367 LINE",
"51 367 LINE"
);
},
{
closed = 1;
nodes = (
"40 0 LINE",
"257 0 LINE SMOOTH",
"490 0 OFFCURVE",
"660 188 OFFCURVE",
"660 440 CURVE SMOOTH",
"660 591 OFFCURVE",
"581 710 OFFCURVE",
"408 710 CURVE SMOOTH",
"191 710 LINE"
);
},
{
closed = 1;
nodes = (
"64 20 LINE",
"207 690 LINE",
"404 690 LINE SMOOTH",
"560 690 OFFCURVE",
"640 584 OFFCURVE",
"640 435 CURVE SMOOTH",
"640 217 OFFCURVE",
"498 20 OFFCURVE",
"261 20 CURVE SMOOTH"
);
}
);
width = 691;
},
{
layerId = "6CB1ED38-7E52-4100-AE28-A91D059C1838";
paths = (
{
closed = 1;
nodes = (
"28 287 LINE",
"360 287 LINE",
"390 427 LINE",
"57 427 LINE"
);
},
{
closed = 1;
nodes = (
"0 0 LINE",
"262 0 LINE",
"505 0 OFFCURVE",
"689 183 OFFCURVE",
"689 433 CURVE SMOOTH",
"689 588 OFFCURVE",
"601 710 OFFCURVE",
"413 710 CURVE SMOOTH",
"151 710 LINE"
);
},
{
closed = 1;
nodes = (
"231 170 LINE",
"310 540 LINE",
"377 540 LINE SMOOTH",
"449 540 OFFCURVE",
"488 486 OFFCURVE",
"488 405 CURVE SMOOTH",
"488 280 OFFCURVE",
"410 170 OFFCURVE",
"298 170 CURVE SMOOTH"
);
}
);
width = 696;
}
);
leftKerningGroup = I;
rightKerningGroup = D;
unicode = 0110;
},
{
glyphname = E;
lastChange = "2016-08-17 14:38:19 +0000";
layers = (
{
anchors = (
{
name = bottom;
position = "{253, 0}";
},
{
name = top;
position = "{404, 707}";
}
);
background = {
paths = (
{
closed = 1;
nodes = (
"33 0 LINE",
"476 0 LINE",
"480 20 LINE",
"57 20 LINE",
"128 353 LINE",
"491 353 LINE",
"495 373 LINE",
"132 373 LINE",
"200 690 LINE",
"614 690 LINE",
"618 710 LINE",
"184 710 LINE"
);
}
);
};
layerId = UUID0;
paths = (
{
closed = 1;
nodes = (
"33 0 LINE",
"476 0 LINE",
"480 20 LINE",
"57 20 LINE",
"128 353 LINE",
"491 353 LINE",
"495 373 LINE",
"132 373 LINE",
"200 690 LINE",
"614 690 LINE",
"618 710 LINE",
"184 710 LINE"
);
}
);
width = 588;
},
{
anchors = (
{
name = bottom;
position = "{235, 0}";
},
{
name = top;
position = "{379, 708}";
}
);
layerId = "6CB1ED38-7E52-4100-AE28-A91D059C1838";
paths = (
{
closed = 1;
nodes = (
"-3 0 LINE",
"480 0 LINE",
"516 170 LINE",
"228 170 LINE",
"252 282 LINE",
"490 282 LINE",
"524 440 LINE",
"286 440 LINE",
"307 540 LINE",
"586 540 LINE",
"622 710 LINE",
"148 710 LINE"
);
}
);
width = 575;
}
);
leftKerningGroup = I;
rightKerningGroup = E;
unicode = 0045;
},
{
glyphname = F;
lastChange = "2016-08-17 14:38:19 +0000";
layers = (
{
background = {
paths = (
{
closed = 1;
nodes = (
"33 0 LINE",
"53 0 LINE",
"128 354 LINE",
"482 354 LINE",
"486 374 LINE",
"133 374 LINE",
"200 690 LINE",
"614 690 LINE",
"618 710 LINE",
"184 710 LINE"
);
}
);
};
layerId = UUID0;
paths = (
{
closed = 1;
nodes = (
"33 0 LINE",
"53 0 LINE",
"128 354 LINE",
"482 354 LINE",
"486 374 LINE",
"133 374 LINE",
"200 690 LINE",
"614 690 LINE",
"618 710 LINE",
"184 710 LINE"
);
}
);
width = 588;
},
{
layerId = "6CB1ED38-7E52-4100-AE28-A91D059C1838";
paths = (
{
closed = 1;
nodes = (
"-3 0 LINE",
"192 0 LINE",
"248 264 LINE",
"467 264 LINE",
"500 422 LINE",
"282 422 LINE",
"307 540 LINE",
"576 540 LINE",
"612 710 LINE",
"148 710 LINE"
);
}
);
width = 546;
}
);
leftKerningGroup = I;
unicode = 0046;
},
{
glyphname = G;
lastChange = "2016-08-17 14:38:19 +0000";
layers = (
{
anchors = (
{
name = bottom;
position = "{301, 0}";
},
{
name = top;
position = "{441, 707}";
}
);
background = {
paths = (
{
closed = 1;
nodes = (
"398 -5 OFFCURVE",
"494 42 OFFCURVE",
"586 136 CURVE",
"592 164 LINE",
"491 60 OFFCURVE",
"399 15 OFFCURVE",
"306 15 CURVE SMOOTH",
"164 15 OFFCURVE",
"72 144 OFFCURVE",
"72 293 CURVE SMOOTH",
"72 479 OFFCURVE",
"236 695 OFFCURVE",
"439 695 CURVE SMOOTH",
"544 695 OFFCURVE",
"618 654 OFFCURVE",
"648 554 CURVE",
"668 560 LINE",
"645 650 OFFCURVE",
"583 715 OFFCURVE",
"444 715 CURVE SMOOTH",
"238 715 OFFCURVE",
"52 498 OFFCURVE",
"52 292 CURVE SMOOTH",
"52 142 OFFCURVE",
"142 -5 OFFCURVE",
"302 -5 CURVE SMOOTH"
);
},
{
closed = 1;
nodes = (
"545 0 LINE",
"565 0 LINE",
"637 338 LINE",
"459 338 LINE",
"455 318 LINE",
"613 318 LINE"
);
}
);
};
layerId = UUID0;
paths = (
{
closed = 1;
nodes = (
"398 -5 OFFCURVE",
"494 42 OFFCURVE",
"586 136 CURVE",
"592 164 LINE",
"491 60 OFFCURVE",
"399 15 OFFCURVE",
"306 15 CURVE SMOOTH",
"164 15 OFFCURVE",
"72 144 OFFCURVE",
"72 293 CURVE SMOOTH",
"72 479 OFFCURVE",
"236 695 OFFCURVE",
"439 695 CURVE SMOOTH",
"544 695 OFFCURVE",
"618 654 OFFCURVE",
"648 554 CURVE",
"668 560 LINE",
"645 650 OFFCURVE",
"583 715 OFFCURVE",
"444 715 CURVE SMOOTH",
"238 715 OFFCURVE",
"52 498 OFFCURVE",
"52 292 CURVE SMOOTH",
"52 142 OFFCURVE",
"142 -5 OFFCURVE",
"302 -5 CURVE SMOOTH"
);
},
{
closed = 1;
nodes = (
"545 0 LINE",
"565 0 LINE",
"637 338 LINE",
"459 338 LINE",
"455 318 LINE",
"613 318 LINE"
);
}
);
width = 688;
},
{
anchors = (
{
name = bottom;
position = "{295, 0}";
},
{
name = top;
position = "{459, 708}";
}
);
layerId = "6CB1ED38-7E52-4100-AE28-A91D059C1838";
paths = (
{
closed = 1;
nodes = (
"290 -5 CURVE SMOOTH",
"357 -5 OFFCURVE",
"415 18 OFFCURVE",
"477 68 CURVE",
"518 258 LINE",
"463 200 OFFCURVE",
"402 168 OFFCURVE",
"344 168 CURVE SMOOTH",
"271 168 OFFCURVE",
"229 224 OFFCURVE",
"229 307 CURVE SMOOTH",
"229 438 OFFCURVE",
"319 542 OFFCURVE",
"419 542 CURVE SMOOTH",
"476 542 OFFCURVE",
"525 505 OFFCURVE",
"539 449 CURVE",
"707 560 LINE",
"679 656 OFFCURVE",
"584 715 OFFCURVE",
"463 715 CURVE SMOOTH",
"240 715 OFFCURVE",
"28 525 OFFCURVE",
"28 282 CURVE SMOOTH",
"28 102 OFFCURVE",
"141 -5 OFFCURVE"
);
},
{
closed = 1;
nodes = (
"454 0 LINE",
"614 0 LINE",
"695 378 LINE",
"411 378 LINE",
"382 238 LINE",
"504 238 LINE"
);
}
);
width = 711;
}
);
leftKerningGroup = O;
rightKerningGroup = G;
unicode = 0047;
},
{
glyphname = H;
lastChange = "2016-08-17 14:38:19 +0000";
layers = (
{
anchors = (
{
name = top;
position = "{438, 707}";
}
);
background = {
paths = (
{
closed = 1;
nodes = (
"33 0 LINE",
"53 0 LINE",
"128 353 LINE",
"595 353 LINE",
"520 0 LINE",
"540 0 LINE",
"691 710 LINE",
"671 710 LINE",
"599 373 LINE",
"132 373 LINE",
"204 710 LINE",
"184 710 LINE"
);
}
);
};
layerId = UUID0;
paths = (
{
closed = 1;
nodes = (
"33 0 LINE",
"53 0 LINE",
"128 353 LINE",
"595 353 LINE",
"520 0 LINE",
"540 0 LINE",
"691 710 LINE",
"671 710 LINE",
"599 373 LINE",
"132 373 LINE",
"204 710 LINE",
"184 710 LINE"
);
}
);
width = 701;
},
{
anchors = (
{
name = top;
position = "{449, 708}";
}
);
layerId = "6CB1ED38-7E52-4100-AE28-A91D059C1838";
paths = (
{
closed = 1;
nodes = (
"-3 0 LINE",
"192 0 LINE",
"251 278 LINE",
"463 278 LINE",
"404 0 LINE",
"599 0 LINE",
"750 710 LINE",
"555 710 LINE",
"499 448 LINE",
"287 448 LINE",
"343 710 LINE",
"148 710 LINE"
);
}
);
width = 724;
}
);
leftKerningGroup = I;
rightKerningGroup = I;
unicode = 0048;
},
{
glyphname = Hbar;
lastChange = "2016-08-17 14:38:19 +0000";
layers = (
{
background = {
paths = (
{
closed = 1;
nodes = (
"107 554 LINE",
"709 554 LINE",
"713 574 LINE",
"112 574 LINE"
);
},
{
closed = 1;
nodes = (
"37 0 LINE",
"57 0 LINE",
"132 353 LINE",
"599 353 LINE",
"524 0 LINE",
"544 0 LINE",
"695 710 LINE",
"675 710 LINE",
"603 373 LINE",
"136 373 LINE",
"208 710 LINE",
"188 710 LINE"
);
}
);
};
layerId = UUID0;
paths = (
{
closed = 1;
nodes = (
"107 554 LINE",
"709 554 LINE",
"713 574 LINE",
"112 574 LINE"
);
},
{
closed = 1;
nodes = (
"37 0 LINE",
"57 0 LINE",
"132 353 LINE",
"599 353 LINE",
"524 0 LINE",
"544 0 LINE",
"695 710 LINE",
"675 710 LINE",
"603 373 LINE",
"136 373 LINE",
"208 710 LINE",
"188 710 LINE"
);
}
);
width = 709;
},
{
layerId = "6CB1ED38-7E52-4100-AE28-A91D059C1838";
paths = (
{
closed = 1;
nodes = (
"67 538 LINE",
"764 538 LINE",
"782 626 LINE",
"86 626 LINE"
);
},
{
closed = 1;
nodes = (
"0 0 LINE",
"195 0 LINE",
"254 278 LINE",
"466 278 LINE",
"407 0 LINE",
"602 0 LINE",
"753 710 LINE",
"558 710 LINE",
"502 448 LINE",
"290 448 LINE",
"346 710 LINE",
"151 710 LINE"
);
}
);
width = 729;
}
);
leftKerningGroup = I;
rightKerningGroup = I;
unicode = 0126;
},
{
glyphname = I;
lastChange = "2016-08-17 14:38:19 +0000";
layers = (
{
anchors = (
{
name = bottom;
position = "{43, 0}";
},
{
name = ogonek;
position = "{138, 10}";
},
{
name = top;
position = "{194, 707}";
},
{
name = topleft;
position = "{116, 710}";
}
);
background = {
paths = (
{
closed = 1;
nodes = (
"33 0 LINE",
"53 0 LINE",
"204 709 LINE",
"184 709 LINE"
);
}
);
};
layerId = UUID0;
paths = (
{
closed = 1;
nodes = (
"33 0 LINE",
"53 0 LINE",
"204 709 LINE",
"184 709 LINE"
);
}
);
width = 214;
},
{
anchors = (
{
name = bottom;
position = "{97, 0}";
},
{
name = top;
position = "{252, 708}";
}
);
layerId = "6CB1ED38-7E52-4100-AE28-A91D059C1838";
paths = (
{
closed = 1;
nodes = (
"-3 0 LINE",
"192 0 LINE",
"343 710 LINE",
"148 710 LINE"
);
}
);
width = 317;
}
);
leftKerningGroup = I;
rightKerningGroup = I;
unicode = 0049;
},
{
glyphname = J;
lastChange = "2016-08-17 14:38:19 +0000";
layers = (
{
anchors = (
{
name = top;
position = "{448, 707}";
}
);
background = {
paths = (
{
closed = 1;
nodes = (
"283 -11 OFFCURVE",
"335 133 OFFCURVE",
"381 349 CURVE SMOOTH",
"458 709 LINE",
"438 709 LINE",
"361 349 LINE SMOOTH",
"316 137 OFFCURVE",
"270 9 OFFCURVE",
"109 9 CURVE SMOOTH",
"55 9 OFFCURVE",
"12 23 OFFCURVE",
"-18 49 CURVE",
"-32 33 LINE",
"2 4 OFFCURVE",
"47 -11 OFFCURVE",
"105 -11 CURVE SMOOTH"
);
}
);
};
layerId = UUID0;
paths = (
{
closed = 1;
nodes = (
"283 -11 OFFCURVE",
"335 133 OFFCURVE",
"381 349 CURVE SMOOTH",
"458 709 LINE",
"438 709 LINE",
"361 349 LINE SMOOTH",
"316 137 OFFCURVE",
"270 9 OFFCURVE",
"109 9 CURVE SMOOTH",
"55 9 OFFCURVE",
"12 23 OFFCURVE",
"-18 49 CURVE",
"-32 33 LINE",
"2 4 OFFCURVE",
"47 -11 OFFCURVE",
"105 -11 CURVE SMOOTH"
);
}
);
width = 458;
},
{
anchors = (
{
name = top;
position = "{423, 708}";
}
);
layerId = "6CB1ED38-7E52-4100-AE28-A91D059C1838";
paths = (
{
closed = 1;
nodes = (
"89 -11 CURVE SMOOTH",
"338 -11 OFFCURVE",
"399 133 OFFCURVE",
"445 349 CURVE SMOOTH",
"522 710 LINE",
"327 710 LINE",
"250 349 LINE SMOOTH",
"221 214 OFFCURVE",
"200 162 OFFCURVE",
"126 162 CURVE SMOOTH",
"72 162 OFFCURVE",
"31 186 OFFCURVE",
"26 192 CURVE",
"-48 33 LINE",
"-14 4 OFFCURVE",
"31 -11 OFFCURVE"
);
}
);
width = 488;
}
);
leftKerningGroup = J;
rightKerningGroup = J;
unicode = 004A;
},
{
glyphname = K;
lastChange = "2016-08-17 14:38:19 +0000";
layers = (
{
anchors = (
{
name = bottom;
position = "{253, 0}";
}
);
background = {
paths = (
{
closed = 1;
nodes = (
"33 0 LINE",
"53 0 LINE",
"100 221 LINE",
"289 386 LINE",
"497 0 LINE",
"523 0 LINE",
"307 400 LINE",
"661 710 LINE",
"632 710 LINE",
"106 249 LINE",
"204 709 LINE",
"184 709 LINE"
);
}
);
};
layerId = UUID0;
paths = (
{
closed = 1;
nodes = (
"33 0 LINE",
"53 0 LINE",
"100 221 LINE",
"289 386 LINE",
"497 0 LINE",
"523 0 LINE",
"307 400 LINE",
"661 710 LINE",
"632 710 LINE",
"106 249 LINE",
"204 709 LINE",
"184 709 LINE"
);
}
);
width = 591;
},
{
anchors = (
{
name = bottom;
position = "{279, 0}";
}
);
layerId = "6CB1ED38-7E52-4100-AE28-A91D059C1838";
paths = (
{
closed = 1;
nodes = (
"-3 0 LINE",
"192 0 LINE",
"236 205 LINE",
"292 261 LINE",
"396 0 LINE",
"621 0 LINE",
"444 392 LINE",
"755 710 LINE",
"534 710 LINE",
"286 440 LINE",
"343 710 LINE",
"148 710 LINE"
);
}
);
width = 665;
}
);
leftKerningGroup = I;
rightKerningGroup = K;
unicode = 004B;
},
{
glyphname = L;
lastChange = "2016-08-17 14:38:19 +0000";
layers = (
{
anchors = (
{
name = bottom;
position = "{270, 0}";
},
{
name = top;
position = "{294, 707}";
}
);
background = {
paths = (
{
closed = 1;
nodes = (
"33 0 LINE",
"476 0 LINE",
"480 20 LINE",
"57 20 LINE",
"204 710 LINE",
"184 710 LINE"
);
}
);
};
layerId = UUID0;
paths = (
{
closed = 1;
nodes = (
"33 0 LINE",
"476 0 LINE",
"480 20 LINE",
"57 20 LINE",
"204 710 LINE",
"184 710 LINE"
);
}
);
width = 552;
},
{
anchors = (
{
name = bottom;
position = "{240, 0}";
},
{
name = top;
position = "{242, 708}";
}
);
layerId = "6CB1ED38-7E52-4100-AE28-A91D059C1838";
paths = (
{
closed = 1;
nodes = (
"-3 0 LINE",
"491 0 LINE",
"527 170 LINE",
"228 170 LINE",
"343 710 LINE",
"148 710 LINE"
);
}
);
width = 564;
}
);
leftKerningGroup = I;
rightKerningGroup = L;
unicode = 004C;
},
{
glyphname = Lslash;
lastChange = "2016-08-17 14:38:19 +0000";
layers = (
{
background = {
paths = (
{
closed = 1;
nodes = (
"28 221 LINE",
"360 506 LINE",
"350 521 LINE",
"18 236 LINE"
);
},
{
closed = 1;
nodes = (
"41 0 LINE",
"484 0 LINE",
"488 20 LINE",
"65 20 LINE",
"212 710 LINE",
"192 710 LINE"
);
}
);
};
layerId = UUID0;
paths = (
{
closed = 1;
nodes = (
"28 221 LINE",
"360 506 LINE",
"350 521 LINE",
"18 236 LINE"
);
},
{
closed = 1;
nodes = (
"41 0 LINE",
"484 0 LINE",
"488 20 LINE",
"65 20 LINE",
"212 710 LINE",
"192 710 LINE"
);
}
);
width = 560;
},
{
layerId = "6CB1ED38-7E52-4100-AE28-A91D059C1838";
paths = (
{
closed = 1;
nodes = (
"17 252 LINE",
"396 426 LINE",
"375 527 LINE",
"-4 353 LINE"
);
},
{
closed = 1;
nodes = (
"7 0 LINE",
"501 0 LINE",
"537 170 LINE",
"238 170 LINE",
"353 710 LINE",
"158 710 LINE"
);
}
);
width = 573;
}
);
leftKerningGroup = I;
rightKerningGroup = L;
unicode = 0141;
},
{
glyphname = M;
lastChange = "2016-08-17 14:38:19 +0000";
layers = (
{
background = {
paths = (
{
closed = 1;
nodes = (
"33 0 LINE",
"53 0 LINE",
"195 666 LINE",
"381 140 LINE",
"397 140 LINE",
"806 666 LINE",
"665 0 LINE",
"685 0 LINE",
"836 710 LINE",
"820 710 LINE",
"394 164 LINE",
"200 710 LINE",
"184 710 LINE"
);
}
);
};
layerId = UUID0;
paths = (
{
closed = 1;
nodes = (
"33 0 LINE",
"53 0 LINE",
"195 666 LINE",
"381 140 LINE",
"397 140 LINE",
"806 666 LINE",
"665 0 LINE",
"685 0 LINE",
"836 710 LINE",
"820 710 LINE",
"394 164 LINE",
"200 710 LINE",
"184 710 LINE"
);
}
);
width = 846;
},
{
layerId = "6CB1ED38-7E52-4100-AE28-A91D059C1838";
paths = (
{
closed = 1;
nodes = (
"-3 0 LINE",
"192 0 LINE",
"272 374 LINE",
"318 111 LINE",
"421 111 LINE",
"579 374 LINE",
"500 0 LINE",
"695 0 LINE",
"846 710 LINE",
"634 710 LINE",
"426 376 LINE",
"361 710 LINE",
"148 710 LINE"
);
}
);
width = 820;
}
);
leftKerningGroup = I;
rightKerningGroup = I;
unicode = 004D;
},
{
glyphname = N;
lastChange = "2016-08-17 14:38:19 +0000";
layers = (
{
anchors = (
{
name = bottom;
position = "{319, 0}";
},
{
name = top;
position = "{470, 707}";
}
);
background = {
paths = (
{
closed = 1;
nodes = (
"33 0 LINE",
"53 0 LINE",
"196 671 LINE",
"560 0 LINE",
"582 0 LINE",
"733 709 LINE",
"713 709 LINE",
"569 29 LINE",
"199 710 LINE",
"184 710 LINE"
);
}
);
};
layerId = UUID0;
paths = (
{
closed = 1;
nodes = (
"33 0 LINE",
"53 0 LINE",
"196 671 LINE",
"560 0 LINE",
"582 0 LINE",
"733 709 LINE",
"713 709 LINE",
"569 29 LINE",
"199 710 LINE",
"184 710 LINE"
);
}
);
width = 743;
},
{
anchors = (
{
name = bottom;
position = "{296, 0}";
},
{
name = top;
position = "{437, 708}";
}
);
layerId = "6CB1ED38-7E52-4100-AE28-A91D059C1838";
paths = (
{
closed = 1;
nodes = (
"-3 0 LINE",
"192 0 LINE",
"266 349 LINE",
"446 0 LINE",
"600 0 LINE",
"751 710 LINE",
"556 710 LINE",
"480 349 LINE",
"300 710 LINE",
"148 710 LINE"
);
}
);
width = 725;
}
);
leftKerningGroup = I;
rightKerningGroup = I;
unicode = 004E;
},
{
glyphname = Eng;
lastChange = "2016-08-17 14:38:19 +0000";
layers = (
{
background = {
paths = (
{
closed = 1;
nodes = (
"479 -170 OFFCURVE",
"558 -114 OFFCURVE",
"575 -36 CURVE SMOOTH",
"733 709 LINE",
"713 709 LINE",
"568 29 LINE",
"199 710 LINE",
"184 710 LINE",
"33 0 LINE",
"53 0 LINE",
"196 671 LINE",
"562 -4 LINE",
"555 -36 LINE SMOOTH",
"541 -100 OFFCURVE",
"475 -150 OFFCURVE",
"423 -150 CURVE SMOOTH",
"396 -150 OFFCURVE",
"368 -145 OFFCURVE",
"349 -124 CURVE",
"331 -136 LINE",
"351 -162 OFFCURVE",
"382 -170 OFFCURVE",
"419 -170 CURVE SMOOTH"
);
}
);
};
layerId = UUID0;
paths = (
{
closed = 1;
nodes = (
"479 -170 OFFCURVE",
"558 -114 OFFCURVE",
"575 -36 CURVE SMOOTH",
"733 709 LINE",
"713 709 LINE",
"568 29 LINE",
"199 710 LINE",
"184 710 LINE",
"33 0 LINE",
"53 0 LINE",
"196 671 LINE",
"562 -4 LINE",
"555 -36 LINE SMOOTH",
"541 -100 OFFCURVE",
"475 -150 OFFCURVE",
"423 -150 CURVE SMOOTH",
"396 -150 OFFCURVE",
"368 -145 OFFCURVE",
"349 -124 CURVE",
"331 -136 LINE",
"351 -162 OFFCURVE",
"382 -170 OFFCURVE",
"419 -170 CURVE SMOOTH"
);
}
);
width = 744;
},
{
layerId = "6CB1ED38-7E52-4100-AE28-A91D059C1838";
paths = (
{
closed = 1;
nodes = (
"336 -209 CURVE SMOOTH",
"450 -209 OFFCURVE",
"553 -125 OFFCURVE",
"581 5 CURVE SMOOTH",
"731 709 LINE",
"536 709 LINE",
"462 359 LINE",
"298 710 LINE",
"148 710 LINE",
"-3 0 LINE",
"192 0 LINE",
"265 343 LINE",
"400 44 LINE",
"390 -3 LINE SMOOTH",
"384 -30 OFFCURVE",
"369 -46 OFFCURVE",
"347 -46 CURVE SMOOTH",
"330 -46 OFFCURVE",
"315 -38 OFFCURVE",
"308 -26 CURVE",
"203 -155 LINE",
"236 -190 OFFCURVE",
"283 -209 OFFCURVE"
);
}
);
width = 705;
}
);
leftKerningGroup = I;
rightKerningGroup = I;
unicode = 014A;
},
{
glyphname = O;
lastChange = "2016-08-17 14:38:19 +0000";
layers = (
{
anchors = (
{
name = bottom;
position = "{300, 0}";
},
{
name = top;
position = "{450, 707}";
}
);
background = {
paths = (
{
closed = 1;
nodes = (
"500 -5 OFFCURVE",
"697 204 OFFCURVE",
"697 421 CURVE SMOOTH",
"697 571 OFFCURVE",
"609 715 OFFCURVE",
"451 715 CURVE SMOOTH",
"249 715 OFFCURVE",
"52 505 OFFCURVE",
"52 287 CURVE SMOOTH",
"52 135 OFFCURVE",
"140 -5 OFFCURVE",
"298 -5 CURVE SMOOTH"
);
},
{
closed = 1;
nodes = (
"158 15 OFFCURVE",
"72 143 OFFCURVE",
"72 290 CURVE SMOOTH",
"72 484 OFFCURVE",
"247 695 OFFCURVE",
"447 695 CURVE SMOOTH",
"589 695 OFFCURVE",
"677 566 OFFCURVE",
"677 419 CURVE SMOOTH",
"677 227 OFFCURVE",
"503 15 OFFCURVE",
"303 15 CURVE SMOOTH"
);
}
);
};
layerId = UUID0;
paths = (
{
closed = 1;
nodes = (
"500 -5 OFFCURVE",
"697 204 OFFCURVE",
"697 421 CURVE SMOOTH",
"697 571 OFFCURVE",
"609 715 OFFCURVE",
"451 715 CURVE SMOOTH",
"249 715 OFFCURVE",
"52 505 OFFCURVE",
"52 287 CURVE SMOOTH",
"52 135 OFFCURVE",
"140 -5 OFFCURVE",
"298 -5 CURVE SMOOTH"
);
},
{
closed = 1;
nodes = (
"158 15 OFFCURVE",
"72 143 OFFCURVE",
"72 290 CURVE SMOOTH",
"72 484 OFFCURVE",
"247 695 OFFCURVE",
"447 695 CURVE SMOOTH",
"589 695 OFFCURVE",
"677 566 OFFCURVE",
"677 419 CURVE SMOOTH",
"677 227 OFFCURVE",
"503 15 OFFCURVE",
"303 15 CURVE SMOOTH"
);
}
);
width = 726;
},
{
anchors = (
{
name = bottom;
position = "{315, 0}";
},
{
name = top;
position = "{458, 708}";
}
);
layerId = "6CB1ED38-7E52-4100-AE28-A91D059C1838";
paths = (
{
closed = 1;
nodes = (
"303 -6 CURVE SMOOTH",
"533 -6 OFFCURVE",
"733 203 OFFCURVE",
"733 416 CURVE SMOOTH",
"733 570 OFFCURVE",
"637 714 OFFCURVE",
"460 714 CURVE SMOOTH",
"230 714 OFFCURVE",
"28 507 OFFCURVE",
"28 292 CURVE SMOOTH",
"28 137 OFFCURVE",
"126 -6 OFFCURVE"
);
},
{
closed = 1;
nodes = (
"341 167 CURVE SMOOTH",
"260 167 OFFCURVE",
"228 233 OFFCURVE",
"228 307 CURVE SMOOTH",
"228 411 OFFCURVE",
"294 541 OFFCURVE",
"420 541 CURVE SMOOTH",
"501 541 OFFCURVE",
"534 477 OFFCURVE",
"534 403 CURVE SMOOTH",
"534 300 OFFCURVE",
"469 167 OFFCURVE"
);
}
);
width = 738;
}
);
leftKerningGroup = O;
rightKerningGroup = O;
unicode = 004F;
},
{
glyphname = OE;
lastChange = "2016-08-17 14:38:19 +0000";
layers = (
{
background = {
paths = (
{
closed = 1;
nodes = (
"437 -5 OFFCURVE",
"571 100 OFFCURVE",
"643 234 CURVE",
"593 0 LINE",
"1036 0 LINE",
"1040 20 LINE",
"618 20 LINE",
"688 353 LINE",
"1051 353 LINE",
"1056 373 LINE",
"693 373 LINE",
"760 690 LINE",
"1174 690 LINE",
"1179 710 LINE",
"744 710 LINE",
"694 475 LINE",
"680 606 OFFCURVE",
"595 715 OFFCURVE",
"452 715 CURVE SMOOTH",
"249 715 OFFCURVE",
"52 505 OFFCURVE",
"52 288 CURVE SMOOTH",
"52 135 OFFCURVE",
"142 -5 OFFCURVE",
"301 -5 CURVE SMOOTH"
);
},
{
closed = 1;
nodes = (
"158 15 OFFCURVE",
"72 143 OFFCURVE",
"72 290 CURVE SMOOTH",
"72 484 OFFCURVE",
"248 695 OFFCURVE",
"448 695 CURVE SMOOTH",
"589 695 OFFCURVE",
"677 566 OFFCURVE",
"677 419 CURVE SMOOTH",
"677 227 OFFCURVE",
"503 15 OFFCURVE",
"303 15 CURVE SMOOTH"
);
}
);
};
layerId = UUID0;
paths = (
{
closed = 1;
nodes = (
"437 -5 OFFCURVE",
"571 100 OFFCURVE",
"643 234 CURVE",
"593 0 LINE",
"1036 0 LINE",
"1040 20 LINE",
"618 20 LINE",
"688 353 LINE",
"1051 353 LINE",
"1056 373 LINE",
"693 373 LINE",
"760 690 LINE",
"1174 690 LINE",
"1179 710 LINE",
"744 710 LINE",
"694 475 LINE",
"680 606 OFFCURVE",
"595 715 OFFCURVE",
"452 715 CURVE SMOOTH",
"249 715 OFFCURVE",
"52 505 OFFCURVE",
"52 288 CURVE SMOOTH",
"52 135 OFFCURVE",
"142 -5 OFFCURVE",
"301 -5 CURVE SMOOTH"
);
},
{
closed = 1;
nodes = (
"158 15 OFFCURVE",
"72 143 OFFCURVE",
"72 290 CURVE SMOOTH",
"72 484 OFFCURVE",
"248 695 OFFCURVE",
"448 695 CURVE SMOOTH",
"589 695 OFFCURVE",
"677 566 OFFCURVE",
"677 419 CURVE SMOOTH",
"677 227 OFFCURVE",
"503 15 OFFCURVE",
"303 15 CURVE SMOOTH"
);
}
);
width = 1149;
},
{
layerId = "6CB1ED38-7E52-4100-AE28-A91D059C1838";
paths = (
{
closed = 1;
nodes = (
"282 -5 CURVE SMOOTH",
"331 -5 OFFCURVE",
"380 13 OFFCURVE",
"429 41 CURVE",
"420 0 LINE",
"883 0 LINE",
"919 170 LINE",
"651 170 LINE",
"674 276 LINE",
"882 276 LINE",
"918 446 LINE",
"710 446 LINE",
"730 540 LINE",
"989 540 LINE",
"1025 710 LINE",
"571 710 LINE",
"563 670 LINE",
"527 698 OFFCURVE",
"487 715 OFFCURVE",
"440 715 CURVE SMOOTH",
"223 715 OFFCURVE",
"28 505 OFFCURVE",
"28 288 CURVE SMOOTH",
"28 135 OFFCURVE",
"119 -5 OFFCURVE"
);
},
{
closed = 1;
nodes = (
"321 168 CURVE SMOOTH",
"254 168 OFFCURVE",
"227 230 OFFCURVE",
"227 301 CURVE SMOOTH",
"227 405 OFFCURVE",
"289 542 OFFCURVE",
"400 542 CURVE SMOOTH",
"466 542 OFFCURVE",
"494 480 OFFCURVE",
"494 409 CURVE SMOOTH",
"494 306 OFFCURVE",
"434 168 OFFCURVE"
);
}
);
width = 977;
}
);
leftKerningGroup = O;
rightKerningGroup = E;
unicode = 0152;
},
{
glyphname = P;
lastChange = "2016-08-17 14:38:19 +0000";
layers = (
{
background = {
paths = (
{
closed = 1;
nodes = (
"33 0 LINE",
"53 0 LINE",
"112 279 LINE",
"374 279 LINE SMOOTH",
"500 279 OFFCURVE",
"608 410 OFFCURVE",
"608 533 CURVE SMOOTH",
"608 623 OFFCURVE",
"553 710 OFFCURVE",
"459 710 CURVE SMOOTH",
"184 710 LINE"
);
},
{
closed = 1;
nodes = (
"117 299 LINE",
"200 690 LINE",
"454 690 LINE SMOOTH",
"535 690 OFFCURVE",
"588 615 OFFCURVE",
"588 530 CURVE SMOOTH",
"588 424 OFFCURVE",
"496 299 OFFCURVE",
"378 299 CURVE SMOOTH"
);
}
);
};
layerId = UUID0;
paths = (
{
closed = 1;
nodes = (
"33 0 LINE",
"53 0 LINE",
"112 279 LINE",
"374 279 LINE SMOOTH",
"500 279 OFFCURVE",
"608 410 OFFCURVE",
"608 533 CURVE SMOOTH",
"608 623 OFFCURVE",
"553 710 OFFCURVE",
"459 710 CURVE SMOOTH",
"184 710 LINE"
);
},
{
closed = 1;
nodes = (
"117 299 LINE",
"200 690 LINE",
"454 690 LINE SMOOTH",
"535 690 OFFCURVE",
"588 615 OFFCURVE",
"588 530 CURVE SMOOTH",
"588 424 OFFCURVE",
"496 299 OFFCURVE",
"378 299 CURVE SMOOTH"
);
}
);
width = 595;
},
{
layerId = "6CB1ED38-7E52-4100-AE28-A91D059C1838";
paths = (
{
closed = 1;
nodes = (
"-3 0 LINE",
"192 0 LINE",
"238 218 LINE",
"340 218 LINE SMOOTH",
"494 218 OFFCURVE",
"622 366 OFFCURVE",
"622 505 CURVE SMOOTH",
"622 609 OFFCURVE",
"554 710 OFFCURVE",
"440 710 CURVE SMOOTH",
"148 710 LINE"
);
},
{
closed = 1;
nodes = (
"275 388 LINE",
"307 540 LINE",
"390 540 LINE SMOOTH",
"405 540 OFFCURVE",
"422 528 OFFCURVE",
"422 489 CURVE SMOOTH",
"422 419 OFFCURVE",
"387 388 OFFCURVE",
"363 388 CURVE SMOOTH"
);
}
);
width = 602;
}
);
leftKerningGroup = I;
unicode = 0050;
},
{
glyphname = Thorn;
lastChange = "2016-08-17 14:38:19 +0000";
layers = (
{
background = {
paths = (
{
closed = 1;
nodes = (
"33 0 LINE",
"53 0 LINE",
"80 129 LINE",
"323 129 LINE SMOOTH",
"449 129 OFFCURVE",
"557 260 OFFCURVE",
"557 383 CURVE SMOOTH",
"557 473 OFFCURVE",
"502 560 OFFCURVE",
"408 560 CURVE",
"172 560 LINE",
"204 710 LINE",
"184 710 LINE"
);
},
{
closed = 1;
nodes = (
"85 149 LINE",
"168 540 LINE",
"403 540 LINE SMOOTH",
"484 540 OFFCURVE",
"537 465 OFFCURVE",
"537 380 CURVE SMOOTH",
"537 274 OFFCURVE",
"445 149 OFFCURVE",
"327 149 CURVE"
);
}
);
};
layerId = UUID0;
paths = (
{
closed = 1;
nodes = (
"33 0 LINE",
"53 0 LINE",
"80 129 LINE",
"323 129 LINE SMOOTH",
"449 129 OFFCURVE",
"557 260 OFFCURVE",
"557 383 CURVE SMOOTH",
"557 473 OFFCURVE",
"502 560 OFFCURVE",
"408 560 CURVE",
"172 560 LINE",
"204 710 LINE",
"184 710 LINE"
);
},
{
closed = 1;
nodes = (
"85 149 LINE",
"168 540 LINE",
"403 540 LINE SMOOTH",
"484 540 OFFCURVE",
"537 465 OFFCURVE",
"537 380 CURVE SMOOTH",
"537 274 OFFCURVE",
"445 149 OFFCURVE",
"327 149 CURVE"
);
}
);
width = 574;
},
{
layerId = "6CB1ED38-7E52-4100-AE28-A91D059C1838";
paths = (
{
closed = 1;
nodes = (
"-3 0 LINE",
"192 0 LINE",
"213 101 LINE",
"301 101 LINE SMOOTH",
"455 101 OFFCURVE",
"583 248 OFFCURVE",
"583 388 CURVE SMOOTH",
"583 492 OFFCURVE",
"515 592 OFFCURVE",
"400 592 CURVE",
"318 592 LINE",
"343 710 LINE",
"148 710 LINE"
);
},
{
closed = 1;
nodes = (
"250 271 LINE",
"282 422 LINE",
"354 422 LINE SMOOTH",
"370 422 OFFCURVE",
"386 403 OFFCURVE",
"386 368 CURVE SMOOTH",
"386 313 OFFCURVE",
"351 271 OFFCURVE",
"327 271 CURVE"
);
}
);
width = 585;
}
);
leftKerningGroup = I;
unicode = 00DE;
},
{
glyphname = Q;
lastChange = "2016-08-17 14:38:19 +0000";
layers = (
{
background = {
paths = (
{
closed = 1;
nodes = (
"501 -5 OFFCURVE",
"697 204 OFFCURVE",
"697 421 CURVE SMOOTH",
"697 571 OFFCURVE",
"610 715 OFFCURVE",
"452 715 CURVE SMOOTH",
"249 715 OFFCURVE",
"52 505 OFFCURVE",
"52 287 CURVE SMOOTH",
"52 135 OFFCURVE",
"141 -5 OFFCURVE",
"299 -5 CURVE SMOOTH"
);
},
{
closed = 1;
nodes = (
"158 15 OFFCURVE",
"72 143 OFFCURVE",
"72 290 CURVE SMOOTH",
"72 484 OFFCURVE",
"248 695 OFFCURVE",
"448 695 CURVE SMOOTH",
"589 695 OFFCURVE",
"677 566 OFFCURVE",
"677 419 CURVE SMOOTH",
"677 227 OFFCURVE",
"503 15 OFFCURVE",
"303 15 CURVE SMOOTH"
);
},
{
closed = 1;
nodes = (
"554 0 LINE",
"579 0 LINE",
"477 186 LINE",
"452 186 LINE"
);
}
);
};
layerId = UUID0;
paths = (
{
closed = 1;
nodes = (
"501 -5 OFFCURVE",
"697 204 OFFCURVE",
"697 421 CURVE SMOOTH",
"697 571 OFFCURVE",
"610 715 OFFCURVE",
"452 715 CURVE SMOOTH",
"249 715 OFFCURVE",
"52 505 OFFCURVE",
"52 287 CURVE SMOOTH",
"52 135 OFFCURVE",
"141 -5 OFFCURVE",
"299 -5 CURVE SMOOTH"
);
},
{
closed = 1;
nodes = (
"158 15 OFFCURVE",
"72 143 OFFCURVE",
"72 290 CURVE SMOOTH",
"72 484 OFFCURVE",
"248 695 OFFCURVE",
"448 695 CURVE SMOOTH",
"589 695 OFFCURVE",
"677 566 OFFCURVE",
"677 419 CURVE SMOOTH",
"677 227 OFFCURVE",
"503 15 OFFCURVE",
"303 15 CURVE SMOOTH"
);
},
{
closed = 1;
nodes = (
"554 0 LINE",
"579 0 LINE",
"477 186 LINE",
"452 186 LINE"
);
}
);
width = 725;
},
{
layerId = "6CB1ED38-7E52-4100-AE28-A91D059C1838";
paths = (
{
closed = 1;
nodes = (
"302 -5 CURVE SMOOTH",
"532 -5 OFFCURVE",
"732 203 OFFCURVE",
"732 416 CURVE SMOOTH",
"732 570 OFFCURVE",
"636 715 OFFCURVE",
"459 715 CURVE SMOOTH",
"230 715 OFFCURVE",
"27 507 OFFCURVE",
"27 292 CURVE SMOOTH",
"27 137 OFFCURVE",
"126 -5 OFFCURVE"
);
},
{
closed = 1;
nodes = (
"341 168 CURVE SMOOTH",
"260 168 OFFCURVE",
"227 234 OFFCURVE",
"227 307 CURVE SMOOTH",
"227 411 OFFCURVE",
"294 542 OFFCURVE",
"419 542 CURVE SMOOTH",
"500 542 OFFCURVE",
"533 477 OFFCURVE",
"533 403 CURVE SMOOTH",
"533 300 OFFCURVE",
"468 168 OFFCURVE"
);
},
{
closed = 1;
nodes = (
"487 0 LINE",
"669 0 LINE",
"463 300 LINE",
"282 300 LINE"
);
}
);
width = 737;
}
);
leftKerningGroup = O;
rightKerningGroup = O;
unicode = 0051;
},
{
glyphname = R;
lastChange = "2016-08-17 14:38:19 +0000";
layers = (
{
anchors = (
{
name = bottom;
position = "{250, 0}";
},
{
name = top;
position = "{400, 710}";
}
);
background = {
paths = (
{
closed = 1;
nodes = (
"53 0 LINE",
"112 279 LINE",
"362 279 LINE",
"473 0 LINE",
"497 0 LINE",
"386 279 LINE",
"506 288 OFFCURVE",
"608 411 OFFCURVE",
"608 533 CURVE SMOOTH",
"608 623 OFFCURVE",
"553 710 OFFCURVE",
"459 710 CURVE SMOOTH",
"184 710 LINE",
"33 0 LINE"
);
},
{
closed = 1;
nodes = (
"117 299 LINE",
"200 690 LINE",
"454 690 LINE SMOOTH",
"535 690 OFFCURVE",
"588 615 OFFCURVE",
"588 530 CURVE SMOOTH",
"588 422 OFFCURVE",
"495 299 OFFCURVE",
"378 299 CURVE SMOOTH"
);
}
);
};
layerId = UUID0;
paths = (
{
closed = 1;
nodes = (
"53 0 LINE",
"112 279 LINE",
"362 279 LINE",
"473 0 LINE",
"497 0 LINE",
"386 279 LINE",
"506 288 OFFCURVE",
"608 411 OFFCURVE",
"608 533 CURVE SMOOTH",
"608 623 OFFCURVE",
"553 710 OFFCURVE",
"459 710 CURVE SMOOTH",
"184 710 LINE",
"33 0 LINE"
);
},
{
closed = 1;
nodes = (
"117 299 LINE",
"200 690 LINE",
"454 690 LINE SMOOTH",
"535 690 OFFCURVE",
"588 615 OFFCURVE",
"588 530 CURVE SMOOTH",
"588 422 OFFCURVE",
"495 299 OFFCURVE",
"378 299 CURVE SMOOTH"
);
}
);
width = 616;
},
{
anchors = (
{
name = bottom;
position = "{263, 0}";
},
{
name = top;
position = "{414, 710}";
}
);
layerId = "6CB1ED38-7E52-4100-AE28-A91D059C1838";
paths = (
{
closed = 1;
nodes = (
"192 0 LINE",
"238 218 LINE",
"297 218 LINE",
"366 0 LINE",
"586 0 LINE",
"501 261 LINE",
"586 317 OFFCURVE",
"642 412 OFFCURVE",
"642 505 CURVE SMOOTH",
"642 609 OFFCURVE",
"575 710 OFFCURVE",
"460 710 CURVE SMOOTH",
"148 710 LINE",
"-3 0 LINE"
);
},
{
closed = 1;
nodes = (
"275 388 LINE",
"307 540 LINE",
"410 540 LINE SMOOTH",
"426 540 OFFCURVE",
"441 520 OFFCURVE",
"441 485 CURVE SMOOTH",
"441 428 OFFCURVE",
"405 388 OFFCURVE",
"383 388 CURVE SMOOTH"
);
}
);
width = 653;
}
);
leftKerningGroup = I;
rightKerningGroup = R;
unicode = 0052;
},
{
glyphname = S;
lastChange = "2016-08-17 14:38:19 +0000";
layers = (
{
anchors = (
{
name = bottom;
position = "{239, 0}";
},
{
name = top;
position = "{392, 729}";
}
);
background = {
paths = (
{
closed = 1;
nodes = (
"407 -5 OFFCURVE",
"518 75 OFFCURVE",
"518 208 CURVE SMOOTH",
"518 305 OFFCURVE",
"435 337 OFFCURVE",
"309 365 CURVE SMOOTH",
"186 393 OFFCURVE",
"127 418 OFFCURVE",
"127 495 CURVE SMOOTH",
"127 607 OFFCURVE",
"201 696 OFFCURVE",
"385 696 CURVE SMOOTH",
"465 696 OFFCURVE",
"514 678 OFFCURVE",
"554 616 CURVE",
"570 630 LINE",
"530 691 OFFCURVE",
"473 715 OFFCURVE",
"387 715 CURVE SMOOTH",
"222 715 OFFCURVE",
"106 630 OFFCURVE",
"106 491 CURVE SMOOTH",
"106 400 OFFCURVE",
"180 372 OFFCURVE",
"305 346 CURVE SMOOTH",
"434 318 OFFCURVE",
"497 284 OFFCURVE",
"497 203 CURVE SMOOTH",
"497 78 OFFCURVE",
"397 12 OFFCURVE",
"243 12 CURVE SMOOTH",
"140 12 OFFCURVE",
"69 44 OFFCURVE",
"16 118 CURVE",
"-1 105 LINE",
"55 30 OFFCURVE",
"130 -5 OFFCURVE",
"238 -5 CURVE SMOOTH"
);
}
);
};
layerId = UUID0;
paths = (
{
closed = 1;
nodes = (
"407 -5 OFFCURVE",
"518 75 OFFCURVE",
"518 208 CURVE SMOOTH",
"518 305 OFFCURVE",
"435 337 OFFCURVE",
"309 365 CURVE SMOOTH",
"186 393 OFFCURVE",
"127 418 OFFCURVE",
"127 495 CURVE SMOOTH",
"127 607 OFFCURVE",
"201 696 OFFCURVE",
"385 696 CURVE SMOOTH",
"465 696 OFFCURVE",
"514 678 OFFCURVE",
"554 616 CURVE",
"570 630 LINE",
"530 691 OFFCURVE",
"473 715 OFFCURVE",
"387 715 CURVE SMOOTH",
"222 715 OFFCURVE",
"106 630 OFFCURVE",
"106 491 CURVE SMOOTH",
"106 400 OFFCURVE",
"180 372 OFFCURVE",
"305 346 CURVE SMOOTH",
"434 318 OFFCURVE",
"497 284 OFFCURVE",
"497 203 CURVE SMOOTH",
"497 78 OFFCURVE",
"397 12 OFFCURVE",
"243 12 CURVE SMOOTH",
"140 12 OFFCURVE",
"69 44 OFFCURVE",
"16 118 CURVE",
"-1 105 LINE",
"55 30 OFFCURVE",
"130 -5 OFFCURVE",
"238 -5 CURVE SMOOTH"
);
}
);
width = 579;
},
{
anchors = (
{
name = bottom;
position = "{244, 0}";
},
{
name = top;
position = "{398, 721}";
}
);
layerId = "6CB1ED38-7E52-4100-AE28-A91D059C1838";
paths = (
{
closed = 1;
nodes = (
"245 -9 CURVE SMOOTH",
"388 -9 OFFCURVE",
"557 60 OFFCURVE",
"557 262 CURVE SMOOTH",
"557 361 OFFCURVE",
"492 401 OFFCURVE",
"396 437 CURVE SMOOTH",
"333 460 OFFCURVE",
"290 470 OFFCURVE",
"290 501 CURVE SMOOTH",
"290 530 OFFCURVE",
"314 543 OFFCURVE",
"343 543 CURVE SMOOTH",
"424 543 OFFCURVE",
"511 478 OFFCURVE",
"507 478 CURVE",
"625 639 LINE",
"571 671 OFFCURVE",
"485 716 OFFCURVE",
"386 716 CURVE SMOOTH",
"234 716 OFFCURVE",
"76 613 OFFCURVE",
"76 434 CURVE SMOOTH",
"76 358 OFFCURVE",
"119 312 OFFCURVE",
"207 277 CURVE SMOOTH",
"273 251 OFFCURVE",
"337 240 OFFCURVE",
"337 204 CURVE SMOOTH",
"337 185 OFFCURVE",
"330 167 OFFCURVE",
"285 167 CURVE SMOOTH",
"181 167 OFFCURVE",
"83 245 OFFCURVE",
"87 245 CURVE",
"-33 74 LINE",
"38 24 OFFCURVE",
"147 -9 OFFCURVE"
);
}
);
width = 596;
}
);
leftKerningGroup = S;
rightKerningGroup = S;
unicode = 0053;
},
{
glyphname = Schwa;
lastChange = "2016-08-17 14:38:19 +0000";
layers = (
{
background = {
paths = (
{
closed = 1;
nodes = (
"479 -10 OFFCURVE",
"676 187 OFFCURVE",
"676 419 CURVE SMOOTH",
"676 583 OFFCURVE",
"578 715 OFFCURVE",
"428 715 CURVE SMOOTH",
"317 715 OFFCURVE",
"190 643 OFFCURVE",
"135 548 CURVE",
"153 539 LINE",
"209 633 OFFCURVE",
"323 694 OFFCURVE",
"424 694 CURVE SMOOTH",
"561 694 OFFCURVE",
"653 582 OFFCURVE",
"653 427 CURVE SMOOTH",
"653 404 OFFCURVE",
"651 384 OFFCURVE",
"648 362 CURVE",
"45 362 LINE",
"36 327 OFFCURVE",
"32 294 OFFCURVE",
"32 262 CURVE SMOOTH",
"32 103 OFFCURVE",
"131 -10 OFFCURVE",
"281 -10 CURVE SMOOTH"
);
},
{
closed = 1;
nodes = (
"124 12 OFFCURVE",
"55 139 OFFCURVE",
"55 266 CURVE SMOOTH",
"55 291 OFFCURVE",
"58 316 OFFCURVE",
"63 340 CURVE",
"643 340 LINE",
"607 155 OFFCURVE",
"448 12 OFFCURVE",
"281 12 CURVE SMOOTH"
);
}
);
};
layerId = UUID0;
paths = (
{
closed = 1;
nodes = (
"479 -10 OFFCURVE",
"676 187 OFFCURVE",
"676 419 CURVE SMOOTH",
"676 583 OFFCURVE",
"578 715 OFFCURVE",
"428 715 CURVE SMOOTH",
"317 715 OFFCURVE",
"190 643 OFFCURVE",
"135 548 CURVE",
"153 539 LINE",
"209 633 OFFCURVE",
"323 694 OFFCURVE",
"424 694 CURVE SMOOTH",
"561 694 OFFCURVE",
"653 582 OFFCURVE",
"653 427 CURVE SMOOTH",
"653 404 OFFCURVE",
"651 384 OFFCURVE",
"648 362 CURVE",
"45 362 LINE",
"36 327 OFFCURVE",
"32 294 OFFCURVE",
"32 262 CURVE SMOOTH",
"32 103 OFFCURVE",
"131 -10 OFFCURVE",
"281 -10 CURVE SMOOTH"
);
},
{
closed = 1;
nodes = (
"124 12 OFFCURVE",
"55 139 OFFCURVE",
"55 266 CURVE SMOOTH",
"55 291 OFFCURVE",
"58 316 OFFCURVE",
"63 340 CURVE",
"643 340 LINE",
"607 155 OFFCURVE",
"448 12 OFFCURVE",
"281 12 CURVE SMOOTH"
);
}
);
width = 707;
},
{
layerId = "6CB1ED38-7E52-4100-AE28-A91D059C1838";
paths = (
{
closed = 1;
nodes = (
"296 -5 CURVE SMOOTH",
"560 -5 OFFCURVE",
"728 236 OFFCURVE",
"728 423 CURVE SMOOTH",
"728 562 OFFCURVE",
"641 714 OFFCURVE",
"449 714 CURVE SMOOTH",
"292 714 OFFCURVE",
"167 637 OFFCURVE",
"91 521 CURVE",
"283 464 LINE",
"307 514 OFFCURVE",
"365 543 OFFCURVE",
"415 543 CURVE SMOOTH",
"471 543 OFFCURVE",
"519 512 OFFCURVE",
"519 437 CURVE SMOOTH",
"519 429 OFFCURVE",
"518 420 OFFCURVE",
"517 411 CURVE",
"43 411 LINE",
"30 381 OFFCURVE",
"15 339 OFFCURVE",
"15 284 CURVE SMOOTH",
"15 150 OFFCURVE",
"99 -5 OFFCURVE"
);
},
{
closed = 1;
nodes = (
"335 165 CURVE SMOOTH",
"270 165 OFFCURVE",
"220 195 OFFCURVE",
"220 246 CURVE SMOOTH",
"220 253 OFFCURVE",
"221 260 OFFCURVE",
"223 268 CURVE",
"482 268 LINE",
"457 203 OFFCURVE",
"402 165 OFFCURVE"
);
}
);
width = 732;
}
);
rightKerningGroup = O;
unicode = 018F;
},
{
glyphname = T;
lastChange = "2016-08-17 14:38:19 +0000";
layers = (
{
anchors = (
{
name = bottom;
position = "{219, 0}";
},
{
name = top;
position = "{369, 707}";
}
);
background = {
paths = (
{
closed = 1;
nodes = (
"209 0 LINE",
"229 0 LINE",
"376 690 LINE",
"634 690 LINE",
"638 710 LINE",
"102 710 LINE",
"98 690 LINE",
"356 690 LINE"
);
}
);
};
layerId = UUID0;
paths = (
{
closed = 1;
nodes = (
"209 0 LINE",
"229 0 LINE",
"376 690 LINE",
"634 690 LINE",
"638 710 LINE",
"102 710 LINE",
"98 690 LINE",
"356 690 LINE"
);
}
);
width = 574;
},
{
anchors = (
{
name = bottom;
position = "{234, 0}";
},
{
name = top;
position = "{385, 708}";
}
);
layerId = "6CB1ED38-7E52-4100-AE28-A91D059C1838";
paths = (
{
closed = 1;
nodes = (
"139 0 LINE",
"334 0 LINE",
"449 540 LINE",
"639 540 LINE",
"675 710 LINE",
"99 710 LINE",
"63 540 LINE",
"254 540 LINE"
);
}
);
width = 600;
}
);
leftKerningGroup = T;
rightKerningGroup = T;
unicode = 0054;
},
{
glyphname = Tbar;
lastChange = "2016-08-17 14:38:19 +0000";
layers = (
{
background = {
paths = (
{
closed = 1;
nodes = (
"88 404 LINE",
"567 404 LINE",
"571 424 LINE",
"92 424 LINE"
);
},
{
closed = 1;
nodes = (
"232 0 LINE",
"252 0 LINE",
"398 690 LINE",
"656 690 LINE",
"661 710 LINE",
"124 710 LINE",
"120 690 LINE",
"378 690 LINE"
);
}
);
};
layerId = UUID0;
paths = (
{
closed = 1;
nodes = (
"88 404 LINE",
"567 404 LINE",
"571 424 LINE",
"92 424 LINE"
);
},
{
closed = 1;
nodes = (
"232 0 LINE",
"252 0 LINE",
"398 690 LINE",
"656 690 LINE",
"661 710 LINE",
"124 710 LINE",
"120 690 LINE",
"378 690 LINE"
);
}
);
width = 616;
},
{
layerId = "6CB1ED38-7E52-4100-AE28-A91D059C1838";
paths = (
{
closed = 1;
nodes = (
"53 268 LINE",
"552 268 LINE",
"571 356 LINE",
"72 356 LINE"
);
},
{
closed = 1;
nodes = (
"149 0 LINE",
"344 0 LINE",
"458 540 LINE",
"648 540 LINE",
"684 710 LINE",
"108 710 LINE",
"72 540 LINE",
"263 540 LINE"
);
}
);
width = 620;
}
);
leftKerningGroup = T;
rightKerningGroup = T;
unicode = 0166;
},
{
glyphname = U;
lastChange = "2016-08-17 14:38:19 +0000";
layers = (
{
anchors = (
{
name = bottom;
position = "{299, 0}";
},
{
name = top;
position = "{448, 707}";
}
);
background = {
paths = (
{
closed = 1;
nodes = (
"505 -5 OFFCURVE",
"610 167 OFFCURVE",
"650 355 CURVE SMOOTH",
"725 710 LINE",
"705 710 LINE",
"630 355 LINE SMOOTH",
"595 189 OFFCURVE",
"504 15 OFFCURVE",
"301 15 CURVE SMOOTH",
"152 15 OFFCURVE",
"103 109 OFFCURVE",
"103 229 CURVE SMOOTH",
"103 269 OFFCURVE",
"109 312 OFFCURVE",
"118 355 CURVE SMOOTH",
"193 710 LINE",
"173 710 LINE",
"98 355 LINE SMOOTH",
"89 311 OFFCURVE",
"83 267 OFFCURVE",
"83 226 CURVE SMOOTH",
"83 99 OFFCURVE",
"136 -5 OFFCURVE",
"298 -5 CURVE SMOOTH"
);
}
);
};
layerId = UUID0;
paths = (
{
closed = 1;
nodes = (
"505 -5 OFFCURVE",
"610 167 OFFCURVE",
"650 355 CURVE SMOOTH",
"725 710 LINE",
"705 710 LINE",
"630 355 LINE SMOOTH",
"595 189 OFFCURVE",
"504 15 OFFCURVE",
"301 15 CURVE SMOOTH",
"152 15 OFFCURVE",
"103 109 OFFCURVE",
"103 229 CURVE SMOOTH",
"103 269 OFFCURVE",
"109 312 OFFCURVE",
"118 355 CURVE SMOOTH",
"193 710 LINE",
"173 710 LINE",
"98 355 LINE SMOOTH",
"89 311 OFFCURVE",
"83 267 OFFCURVE",
"83 226 CURVE SMOOTH",
"83 99 OFFCURVE",
"136 -5 OFFCURVE",
"298 -5 CURVE SMOOTH"
);
}
);
width = 723;
},
{
anchors = (
{
name = bottom;
position = "{290, 0}";
},
{
name = top;
position = "{318, 708}";
}
);
layerId = "6CB1ED38-7E52-4100-AE28-A91D059C1838";
paths = (
{
closed = 1;
nodes = (
"291 -6 CURVE SMOOTH",
"500 -6 OFFCURVE",
"630 147 OFFCURVE",
"672 345 CURVE SMOOTH",
"750 710 LINE",
"555 710 LINE",
"477 345 LINE SMOOTH",
"457 253 OFFCURVE",
"408 167 OFFCURVE",
"328 167 CURVE SMOOTH",
"270 167 OFFCURVE",
"247 212 OFFCURVE",
"247 274 CURVE SMOOTH",
"247 296 OFFCURVE",
"250 320 OFFCURVE",
"255 345 CURVE SMOOTH",
"333 710 LINE",
"138 710 LINE",
"60 345 LINE SMOOTH",
"52 308 OFFCURVE",
"48 272 OFFCURVE",
"48 238 CURVE SMOOTH",
"48 99 OFFCURVE",
"117 -6 OFFCURVE"
);
}
);
width = 713;
}
);
leftKerningGroup = U;
rightKerningGroup = U;
unicode = 0055;
},
{
glyphname = V;
lastChange = "2016-08-17 14:38:19 +0000";
layers = (
{
background = {
paths = (
{
closed = 1;
nodes = (
"243 0 LINE",
"265 0 LINE",
"709 710 LINE",
"687 710 LINE",
"260 25 LINE",
"122 710 LINE",
"101 710 LINE"
);
}
);
};
layerId = UUID0;
paths = (
{
closed = 1;
nodes = (
"243 0 LINE",
"265 0 LINE",
"709 710 LINE",
"687 710 LINE",
"260 25 LINE",
"122 710 LINE",
"101 710 LINE"
);
}
);
width = 644;
},
{
layerId = "6CB1ED38-7E52-4100-AE28-A91D059C1838";
paths = (
{
closed = 1;
nodes = (
"173 0 LINE",
"335 0 LINE",
"731 710 LINE",
"526 710 LINE",
"306 245 LINE",
"282 710 LINE",
"76 710 LINE"
);
}
);
width = 641;
}
);
unicode = 0056;
},
{
glyphname = W;
lastChange = "2016-08-17 14:38:19 +0000";
layers = (
{
anchors = (
{
name = top;
position = "{575, 707}";
}
);
background = {
paths = (
{
closed = 1;
nodes = (
"243 0 LINE",
"265 0 LINE",
"508 389 LINE",
"585 0 LINE",
"607 0 LINE",
"1051 710 LINE",
"1029 710 LINE",
"602 25 LINE",
"523 414 LINE",
"706 704 LINE",
"684 704 LINE",
"517 438 LINE",
"465 704 LINE",
"443 704 LINE",
"502 414 LINE",
"260 25 LINE",
"123 710 LINE",
"101 710 LINE"
);
}
);
};
layerId = UUID0;
paths = (
{
closed = 1;
nodes = (
"243 0 LINE",
"265 0 LINE",
"508 389 LINE",
"585 0 LINE",
"607 0 LINE",
"1051 710 LINE",
"1029 710 LINE",
"602 25 LINE",
"523 414 LINE",
"706 704 LINE",
"684 704 LINE",
"517 438 LINE",
"465 704 LINE",
"443 704 LINE",
"502 414 LINE",
"260 25 LINE",
"123 710 LINE",
"101 710 LINE"
);
}
);
width = 986;
},
{
anchors = (
{
name = top;
position = "{582, 708}";
}
);
layerId = "6CB1ED38-7E52-4100-AE28-A91D059C1838";
paths = (
{
closed = 1;
nodes = (
"181 0 LINE",
"342 0 LINE",
"487 254 LINE",
"526 0 LINE",
"687 0 LINE",
"1101 710 LINE",
"888 710 LINE",
"648 223 LINE",
"637 371 LINE",
"820 710 LINE",
"641 710 LINE",
"538 491 LINE",
"528 710 LINE",
"350 710 LINE",
"386 371 LINE",
"315 223 LINE",
"280 710 LINE",
"69 710 LINE"
);
}
);
width = 1002;
}
);
leftKerningGroup = W;
rightKerningGroup = W;
unicode = 0057;
},
{
glyphname = X;
lastChange = "2016-08-17 14:38:19 +0000";
layers = (
{
background = {
paths = (
{
closed = 1;
nodes = (
"-47 0 LINE",
"-21 0 LINE",
"302 334 LINE",
"482 0 LINE",
"507 0 LINE",
"317 350 LINE",
"666 710 LINE",
"641 710 LINE",
"308 366 LINE",
"122 710 LINE",
"96 710 LINE",
"292 350 LINE"
);
}
);
};
layerId = UUID0;
paths = (
{
closed = 1;
nodes = (
"-47 0 LINE",
"-21 0 LINE",
"302 334 LINE",
"482 0 LINE",
"507 0 LINE",
"317 350 LINE",
"666 710 LINE",
"641 710 LINE",
"308 366 LINE",
"122 710 LINE",
"96 710 LINE",
"292 350 LINE"
);
}
);
width = 588;
},
{
layerId = "6CB1ED38-7E52-4100-AE28-A91D059C1838";
paths = (
{
closed = 1;
nodes = (
"-66 0 LINE",
"145 0 LINE",
"297 214 LINE",
"358 0 LINE",
"568 0 LINE",
"428 350 LINE",
"727 710 LINE",
"517 710 LINE",
"355 486 LINE",
"288 710 LINE",
"77 710 LINE",
"223 350 LINE"
);
}
);
width = 631;
}
);
unicode = 0058;
},
{
glyphname = Y;
lastChange = "2016-08-17 15:17:05 +0000";
layers = (
{
anchors = (
{
name = top;
position = "{379, 707}";
}
);
background = {
paths = (
{
closed = 1;
nodes = (
"218 0 LINE",
"238 0 LINE",
"297 275 LINE",
"663 710 LINE",
"640 710 LINE",
"292 298 LINE",
"120 710 LINE",
"97 710 LINE",
"277 277 LINE"
);
}
);
};
layerId = UUID0;
paths = (
{
closed = 1;
nodes = (
"218 0 LINE",
"238 0 LINE",
"297 275 LINE",
"663 710 LINE",
"640 710 LINE",
"292 298 LINE",
"120 710 LINE",
"97 710 LINE",
"277 277 LINE"
);
}
);
width = 594;
},
{
anchors = (
{
name = top;
position = "{393, 708}";
}
);
layerId = "6CB1ED38-7E52-4100-AE28-A91D059C1838";
paths = (
{
closed = 1;
nodes = (
"341 0 LINE",
"391 235 LINE",
"723 710 LINE",
"511 710 LINE",
"330 403 LINE",
"283 710 LINE",
"72 710 LINE",
"198 237 LINE",
"147 0 LINE"
);
}
);
width = 627;
}
);
leftKerningGroup = Y;
rightKerningGroup = Y;
unicode = 0059;
},
{
glyphname = Z;
lastChange = "2016-08-17 14:38:19 +0000";
layers = (
{
anchors = (
{
name = top;
position = "{379, 707}";
}
);
background = {
paths = (
{
closed = 1;
nodes = (
"-40 0 LINE",
"495 0 LINE",
"499 20 LINE",
"-11 20 LINE",
"645 690 LINE",
"650 710 LINE",
"116 710 LINE",
"111 690 LINE",
"620 690 LINE",
"-36 20 LINE"
);
}
);
};
layerId = UUID0;
paths = (
{
closed = 1;
nodes = (
"-40 0 LINE",
"495 0 LINE",
"499 20 LINE",
"-11 20 LINE",
"645 690 LINE",
"650 710 LINE",
"116 710 LINE",
"111 690 LINE",
"620 690 LINE",
"-36 20 LINE"
);
}
);
width = 587;
},
{
anchors = (
{
name = top;
position = "{380, 708}";
}
);
layerId = "6CB1ED38-7E52-4100-AE28-A91D059C1838";
paths = (
{
closed = 1;
nodes = (
"-37 0 LINE",
"498 0 LINE",
"534 170 LINE",
"244 170 LINE",
"612 565 LINE",
"643 710 LINE",
"129 710 LINE",
"93 540 LINE",
"381 540 LINE",
"-6 145 LINE"
);
}
);
width = 593;
}
);
leftKerningGroup = Z;
rightKerningGroup = Z;
unicode = 005A;
},
{
glyphname = G.alt;
lastChange = "2016-08-17 14:38:19 +0000";
layers = (
{
background = {
paths = (
{
closed = 1;
nodes = (
"463 -5 OFFCURVE",
"621 144 OFFCURVE",
"676 308 CURVE SMOOTH",
"679 317 OFFCURVE",
"681 323 OFFCURVE",
"682 329 CURVE",
"427 329 LINE",
"423 309 LINE",
"656 309 LINE",
"605 158 OFFCURVE",
"462 15 OFFCURVE",
"303 15 CURVE SMOOTH",
"158 15 OFFCURVE",
"72 144 OFFCURVE",
"72 289 CURVE SMOOTH",
"72 483 OFFCURVE",
"247 695 OFFCURVE",
"446 695 CURVE SMOOTH",
"550 695 OFFCURVE",
"625 633 OFFCURVE",
"658 544 CURVE",
"675 558 LINE",
"640 649 OFFCURVE",
"563 715 OFFCURVE",
"452 715 CURVE SMOOTH",
"249 715 OFFCURVE",
"52 505 OFFCURVE",
"52 288 CURVE SMOOTH",
"52 134 OFFCURVE",
"143 -5 OFFCURVE",
"297 -5 CURVE SMOOTH"
);
}
);
};
layerId = UUID0;
paths = (
{
closed = 1;
nodes = (
"463 -5 OFFCURVE",
"621 144 OFFCURVE",
"676 308 CURVE SMOOTH",
"679 317 OFFCURVE",
"681 323 OFFCURVE",
"682 329 CURVE",
"427 329 LINE",
"423 309 LINE",
"656 309 LINE",
"605 158 OFFCURVE",
"462 15 OFFCURVE",
"303 15 CURVE SMOOTH",
"158 15 OFFCURVE",
"72 144 OFFCURVE",
"72 289 CURVE SMOOTH",
"72 483 OFFCURVE",
"247 695 OFFCURVE",
"446 695 CURVE SMOOTH",
"550 695 OFFCURVE",
"625 633 OFFCURVE",
"658 544 CURVE",
"675 558 LINE",
"640 649 OFFCURVE",
"563 715 OFFCURVE",
"452 715 CURVE SMOOTH",
"249 715 OFFCURVE",
"52 505 OFFCURVE",
"52 288 CURVE SMOOTH",
"52 134 OFFCURVE",
"143 -5 OFFCURVE",
"297 -5 CURVE SMOOTH"
);
}
);
width = 705;
},
{
layerId = "6CB1ED38-7E52-4100-AE28-A91D059C1838";
paths = (
{
closed = 1;
nodes = (
"303 -5 CURVE SMOOTH",
"484 -5 OFFCURVE",
"630 137 OFFCURVE",
"665 309 CURVE SMOOTH",
"671 339 OFFCURVE",
"677 368 OFFCURVE",
"684 398 CURVE",
"375 398 LINE",
"339 228 LINE",
"437 228 LINE",
"413 197 OFFCURVE",
"365 168 OFFCURVE",
"319 168 CURVE SMOOTH",
"249 168 OFFCURVE",
"227 236 OFFCURVE",
"227 299 CURVE SMOOTH",
"227 409 OFFCURVE",
"291 542 OFFCURVE",
"400 542 CURVE SMOOTH",
"482 542 OFFCURVE",
"495 463 OFFCURVE",
"495 449 CURVE",
"676 570 LINE",
"646 664 OFFCURVE",
"565 715 OFFCURVE",
"449 715 CURVE SMOOTH",
"205 715 OFFCURVE",
"29 498 OFFCURVE",
"29 295 CURVE SMOOTH",
"29 135 OFFCURVE",
"129 -5 OFFCURVE"
);
}
);
width = 683;
}
);
leftKerningGroup = O;
},
{
glyphname = W.alt;
lastChange = "2016-08-17 14:38:19 +0000";
layers = (
{
background = {
paths = (
{
closed = 1;
nodes = (
"174 0 LINE",
"196 0 LINE",
"557 678 LINE",
"638 0 LINE",
"660 0 LINE",
"1029 710 LINE",
"1007 710 LINE",
"654 25 LINE",
"574 710 LINE",
"552 710 LINE",
"190 25 LINE",
"128 710 LINE",
"107 710 LINE"
);
}
);
};
layerId = UUID0;
paths = (
{
closed = 1;
nodes = (
"174 0 LINE",
"196 0 LINE",
"557 678 LINE",
"638 0 LINE",
"660 0 LINE",
"1029 710 LINE",
"1007 710 LINE",
"654 25 LINE",
"574 710 LINE",
"552 710 LINE",
"190 25 LINE",
"128 710 LINE",
"107 710 LINE"
);
}
);
width = 972;
},
{
layerId = "6CB1ED38-7E52-4100-AE28-A91D059C1838";
paths = (
{
closed = 1;
nodes = (
"141 0 LINE",
"343 0 LINE",
"567 391 LINE",
"625 1 LINE",
"827 1 LINE",
"1186 711 LINE",
"964 711 LINE",
"769 296 LINE",
"741 710 LINE",
"529 710 LINE",
"324 295 LINE",
"305 710 LINE",
"84 710 LINE"
);
}
);
width = 1101;
}
);
},
{
glyphname = a;
lastChange = "2016-08-17 14:38:19 +0000";
layers = (
{
anchors = (
{
name = bottom;
position = "{437, 11}";
},
{
name = top;
position = "{323, 519}";
}
);
background = {
paths = (
{
closed = 1;
nodes = (
"294 -10 OFFCURVE",
"379 39 OFFCURVE",
"435 108 CURVE",
"421 38 OFFCURVE",
"420 35 OFFCURVE",
"420 29 CURVE SMOOTH",
"420 14 OFFCURVE",
"426 5 OFFCURVE",
"439 1 CURVE SMOOTH",
"442 0 OFFCURVE",
"445 0 OFFCURVE",
"448 0 CURVE",
"452 20 LINE",
"443 20 OFFCURVE",
"440 25 OFFCURVE",
"440 32 CURVE SMOOTH",
"440 36 OFFCURVE",
"441 41 OFFCURVE",
"442 44 CURVE SMOOTH",
"544 519 LINE",
"523 519 LINE",
"497 398 LINE",
"472 467 OFFCURVE",
"414 527 OFFCURVE",
"321 527 CURVE SMOOTH",
"171 527 OFFCURVE",
"31 370 OFFCURVE",
"31 210 CURVE SMOOTH",
"31 97 OFFCURVE",
"101 -10 OFFCURVE",
"216 -10 CURVE SMOOTH"
);
},
{
closed = 1;
nodes = (
"122 10 OFFCURVE",
"51 104 OFFCURVE",
"51 210 CURVE SMOOTH",
"51 350 OFFCURVE",
"174 507 OFFCURVE",
"313 507 CURVE SMOOTH",
"407 507 OFFCURVE",
"477 435 OFFCURVE",
"488 356 CURVE",
"448 169 LINE",
"425 85 OFFCURVE",
"303 10 OFFCURVE",
"218 10 CURVE SMOOTH"
);
}
);
};
layerId = UUID0;
paths = (
{
closed = 1;
nodes = (
"294 -10 OFFCURVE",
"379 39 OFFCURVE",
"435 108 CURVE",
"421 38 OFFCURVE",
"420 35 OFFCURVE",
"420 29 CURVE SMOOTH",
"420 14 OFFCURVE",
"426 5 OFFCURVE",
"439 1 CURVE SMOOTH",
"442 0 OFFCURVE",
"445 0 OFFCURVE",
"448 0 CURVE",
"452 20 LINE",
"443 20 OFFCURVE",
"440 25 OFFCURVE",
"440 32 CURVE SMOOTH",
"440 36 OFFCURVE",
"441 41 OFFCURVE",
"442 44 CURVE SMOOTH",
"544 519 LINE",
"523 519 LINE",
"497 398 LINE",
"472 467 OFFCURVE",
"414 527 OFFCURVE",
"321 527 CURVE SMOOTH",
"171 527 OFFCURVE",
"31 370 OFFCURVE",
"31 210 CURVE SMOOTH",
"31 97 OFFCURVE",
"101 -10 OFFCURVE",
"216 -10 CURVE SMOOTH"
);
},
{
closed = 1;
nodes = (
"122 10 OFFCURVE",
"51 104 OFFCURVE",
"51 210 CURVE SMOOTH",
"51 350 OFFCURVE",
"174 507 OFFCURVE",
"313 507 CURVE SMOOTH",
"407 507 OFFCURVE",
"477 435 OFFCURVE",
"488 356 CURVE",
"448 169 LINE",
"425 85 OFFCURVE",
"303 10 OFFCURVE",
"218 10 CURVE SMOOTH"
);
}
);
width = 580;
},
{
anchors = (
{
name = bottom;
position = "{469, 7}";
},
{
name = top;
position = "{317, 522}";
}
);
layerId = "6CB1ED38-7E52-4100-AE28-A91D059C1838";
paths = (
{
closed = 1;
nodes = (
"193 -10 CURVE SMOOTH",
"258 -10 OFFCURVE",
"325 18 OFFCURVE",
"373 82 CURVE",
"372 77 OFFCURVE",
"372 72 OFFCURVE",
"372 67 CURVE SMOOTH",
"372 10 OFFCURVE",
"410 -10 OFFCURVE",
"469 -10 CURVE SMOOTH",
"488 -10 OFFCURVE",
"515 -7 OFFCURVE",
"550 0 CURVE",
"584 160 LINE",
"565 161 OFFCURVE",
"557 168 OFFCURVE",
"557 186 CURVE SMOOTH",
"557 192 OFFCURVE",
"558 200 OFFCURVE",
"560 210 CURVE SMOOTH",
"627 522 LINE",
"436 522 LINE",
"420 448 LINE",
"404 503 OFFCURVE",
"354 536 OFFCURVE",
"291 536 CURVE SMOOTH",
"139 536 OFFCURVE",
"7 383 OFFCURVE",
"7 202 CURVE SMOOTH",
"7 77 OFFCURVE",
"77 -10 OFFCURVE"
);
},
{
closed = 1;
nodes = (
"279 150 CURVE SMOOTH",
"233 150 OFFCURVE",
"207 183 OFFCURVE",
"207 233 CURVE SMOOTH",
"207 308 OFFCURVE",
"263 376 OFFCURVE",
"319 376 CURVE SMOOTH",
"355 376 OFFCURVE",
"383 344 OFFCURVE",
"390 298 CURVE",
"370 204 LINE",
"337 168 OFFCURVE",
"311 150 OFFCURVE"
);
}
);
width = 646;
}
);
leftKerningGroup = a;
rightKerningGroup = a;
unicode = 0061;
},
{
glyphname = ae;
lastChange = "2016-08-17 14:38:19 +0000";
layers = (
{
anchors = (
{
name = top;
position = "{372, 519}";
}
);
background = {
paths = (
{
closed = 1;
nodes = (
"205 -10 OFFCURVE",
"320 24 OFFCURVE",
"378 111 CURVE",
"406 38 OFFCURVE",
"468 -10 OFFCURVE",
"550 -10 CURVE SMOOTH",
"635 -10 OFFCURVE",
"730 43 OFFCURVE",
"772 114 CURVE",
"754 119 LINE",
"713 55 OFFCURVE",
"631 10 OFFCURVE",
"555 10 CURVE SMOOTH",
"452 10 OFFCURVE",
"384 93 OFFCURVE",
"384 206 CURVE SMOOTH",
"384 219 OFFCURVE",
"385 233 OFFCURVE",
"387 248 CURVE",
"837 248 LINE",
"847 269 OFFCURVE",
"850 306 OFFCURVE",
"850 328 CURVE SMOOTH",
"850 442 OFFCURVE",
"768 527 OFFCURVE",
"659 527 CURVE SMOOTH",
"575 527 OFFCURVE",
"492 477 OFFCURVE",
"435 403 CURVE",
"428 484 OFFCURVE",
"372 527 OFFCURVE",
"295 527 CURVE SMOOTH",
"240 527 OFFCURVE",
"181 505 OFFCURVE",
"107 459 CURVE",
"115 443 LINE",
"179 484 OFFCURVE",
"239 507 OFFCURVE",
"291 507 CURVE SMOOTH",
"369 507 OFFCURVE",
"416 456 OFFCURVE",
"416 376 CURVE",
"397 345 OFFCURVE",
"382 312 OFFCURVE",
"373 277 CURVE",
"334 289 OFFCURVE",
"286 297 OFFCURVE",
"241 297 CURVE SMOOTH",
"107 297 OFFCURVE",
"1 226 OFFCURVE",
"1 120 CURVE SMOOTH",
"1 51 OFFCURVE",
"46 -10 OFFCURVE",
"137 -10 CURVE SMOOTH"
);
},
{
closed = 1;
nodes = (
"57 10 OFFCURVE",
"21 66 OFFCURVE",
"21 124 CURVE SMOOTH",
"21 217 OFFCURVE",
"112 277 OFFCURVE",
"239 277 CURVE SMOOTH",
"282 277 OFFCURVE",
"328 270 OFFCURVE",
"368 256 CURVE",
"364 236 OFFCURVE",
"362 217 OFFCURVE",
"362 199 CURVE SMOOTH",
"362 177 OFFCURVE",
"365 156 OFFCURVE",
"370 137 CURVE",
"345 63 OFFCURVE",
"227 10 OFFCURVE",
"143 10 CURVE SMOOTH"
);
},
{
closed = 1;
nodes = (
"391 268 LINE",
"427 405 OFFCURVE",
"539 507 OFFCURVE",
"656 507 CURVE SMOOTH",
"771 507 OFFCURVE",
"828 419 OFFCURVE",
"828 325 CURVE SMOOTH",
"828 306 OFFCURVE",
"826 287 OFFCURVE",
"821 268 CURVE"
);
}
);
};
layerId = UUID0;
paths = (
{
closed = 1;
nodes = (
"205 -10 OFFCURVE",
"320 24 OFFCURVE",
"378 111 CURVE",
"406 38 OFFCURVE",
"468 -10 OFFCURVE",
"550 -10 CURVE SMOOTH",
"635 -10 OFFCURVE",
"730 43 OFFCURVE",
"772 114 CURVE",
"754 119 LINE",
"713 55 OFFCURVE",
"631 10 OFFCURVE",
"555 10 CURVE SMOOTH",
"452 10 OFFCURVE",
"384 93 OFFCURVE",
"384 206 CURVE SMOOTH",
"384 219 OFFCURVE",
"385 233 OFFCURVE",
"387 248 CURVE",
"837 248 LINE",
"847 269 OFFCURVE",
"850 306 OFFCURVE",
"850 328 CURVE SMOOTH",
"850 442 OFFCURVE",
"768 527 OFFCURVE",
"659 527 CURVE SMOOTH",
"575 527 OFFCURVE",
"492 477 OFFCURVE",
"435 403 CURVE",
"428 484 OFFCURVE",
"372 527 OFFCURVE",
"295 527 CURVE SMOOTH",
"240 527 OFFCURVE",
"181 505 OFFCURVE",
"107 459 CURVE",
"115 443 LINE",
"179 484 OFFCURVE",
"239 507 OFFCURVE",
"291 507 CURVE SMOOTH",
"369 507 OFFCURVE",
"416 456 OFFCURVE",
"416 376 CURVE",
"397 345 OFFCURVE",
"382 312 OFFCURVE",
"373 277 CURVE",
"334 289 OFFCURVE",
"286 297 OFFCURVE",
"241 297 CURVE SMOOTH",
"107 297 OFFCURVE",
"1 226 OFFCURVE",
"1 120 CURVE SMOOTH",
"1 51 OFFCURVE",
"46 -10 OFFCURVE",
"137 -10 CURVE SMOOTH"
);
},
{
closed = 1;
nodes = (
"57 10 OFFCURVE",
"21 66 OFFCURVE",
"21 124 CURVE SMOOTH",
"21 217 OFFCURVE",
"112 277 OFFCURVE",
"239 277 CURVE SMOOTH",
"282 277 OFFCURVE",
"328 270 OFFCURVE",
"368 256 CURVE",
"364 236 OFFCURVE",
"362 217 OFFCURVE",
"362 199 CURVE SMOOTH",
"362 177 OFFCURVE",
"365 156 OFFCURVE",
"370 137 CURVE",
"345 63 OFFCURVE",
"227 10 OFFCURVE",
"143 10 CURVE SMOOTH"
);
},
{
closed = 1;
nodes = (
"391 268 LINE",
"427 405 OFFCURVE",
"539 507 OFFCURVE",
"656 507 CURVE SMOOTH",
"771 507 OFFCURVE",
"828 419 OFFCURVE",
"828 325 CURVE SMOOTH",
"828 306 OFFCURVE",
"826 287 OFFCURVE",
"821 268 CURVE"
);
}
);
width = 883;
},
{
anchors = (
{
name = top;
position = "{493, 522}";
}
);
layerId = "6CB1ED38-7E52-4100-AE28-A91D059C1838";
paths = (
{
closed = 1;
nodes = (
"130 -10 CURVE SMOOTH",
"192 -10 OFFCURVE",
"279 20 OFFCURVE",
"344 92 CURVE",
"376 31 OFFCURVE",
"443 -10 OFFCURVE",
"545 -10 CURVE SMOOTH",
"668 -10 OFFCURVE",
"768 49 OFFCURVE",
"827 133 CURVE",
"676 179 LINE",
"659 146 OFFCURVE",
"616 126 OFFCURVE",
"581 126 CURVE SMOOTH",
"547 126 OFFCURVE",
"516 144 OFFCURVE",
"516 186 CURVE SMOOTH",
"516 194 OFFCURVE",
"517 199 OFFCURVE",
"518 205 CURVE",
"861 205 LINE",
"872 231 OFFCURVE",
"886 266 OFFCURVE",
"886 318 CURVE SMOOTH",
"886 436 OFFCURVE",
"814 536 OFFCURVE",
"661 536 CURVE SMOOTH",
"594 536 OFFCURVE",
"535 517 OFFCURVE",
"486 486 CURVE",
"449 519 OFFCURVE",
"395 536 OFFCURVE",
"320 536 CURVE SMOOTH",
"234 536 OFFCURVE",
"154 514 OFFCURVE",
"78 469 CURVE",
"108 351 LINE",
"168 388 OFFCURVE",
"218 408 OFFCURVE",
"274 408 CURVE SMOOTH",
"323 408 OFFCURVE",
"344 392 OFFCURVE",
"344 359 CURVE SMOOTH",
"344 347 OFFCURVE",
"341 332 OFFCURVE",
"339 319 CURVE",
"317 332 OFFCURVE",
"284 339 OFFCURVE",
"245 339 CURVE SMOOTH",
"102 339 OFFCURVE",
"-14 248 OFFCURVE",
"-14 130 CURVE SMOOTH",
"-14 48 OFFCURVE",
"43 -10 OFFCURVE"
);
},
{
closed = 1;
nodes = (
"219 126 CURVE SMOOTH",
"187 126 OFFCURVE",
"171 143 OFFCURVE",
"171 167 CURVE SMOOTH",
"171 205 OFFCURVE",
"212 236 OFFCURVE",
"255 236 CURVE SMOOTH",
"274 236 OFFCURVE",
"300 230 OFFCURVE",
"318 222 CURVE",
"316 203 OFFCURVE",
"314 189 OFFCURVE",
"314 175 CURVE SMOOTH",
"314 170 OFFCURVE",
"314 164 OFFCURVE",
"315 159 CURVE",
"289 141 OFFCURVE",
"250 126 OFFCURVE"
);
},
{
closed = 1;
nodes = (
"538 319 LINE",
"554 370 OFFCURVE",
"588 401 OFFCURVE",
"629 401 CURVE SMOOTH",
"666 401 OFFCURVE",
"687 375 OFFCURVE",
"687 335 CURVE SMOOTH",
"687 326 OFFCURVE",
"686 325 OFFCURVE",
"686 319 CURVE"
);
}
);
width = 902;
}
);
leftKerningGroup = a.alt2;
rightKerningGroup = e;
unicode = 00E6;
},
{
glyphname = b;
lastChange = "2016-08-17 14:38:19 +0000";
layers = (
{
background = {
paths = (
{
closed = 1;
nodes = (
"379 -10 OFFCURVE",
"529 146 OFFCURVE",
"529 313 CURVE SMOOTH",
"529 417 OFFCURVE",
"471 527 OFFCURVE",
"349 527 CURVE SMOOTH",
"264 527 OFFCURVE",
"188 473 OFFCURVE",
"122 398 CURVE",
"192 730 LINE",
"172 730 LINE",
"17 0 LINE",
"37 0 LINE",
"60 108 LINE",
"84 46 OFFCURVE",
"143 -10 OFFCURVE",
"231 -10 CURVE SMOOTH"
);
},
{
closed = 1;
nodes = (
"151 10 OFFCURVE",
"82 60 OFFCURVE",
"68 141 CURVE",
"114 366 LINE",
"179 440 OFFCURVE",
"251 507 OFFCURVE",
"342 507 CURVE SMOOTH",
"449 507 OFFCURVE",
"508 413 OFFCURVE",
"508 312 CURVE SMOOTH",
"508 161 OFFCURVE",
"375 10 OFFCURVE",
"233 10 CURVE SMOOTH"
);
}
);
};
layerId = UUID0;
paths = (
{
closed = 1;
nodes = (
"379 -10 OFFCURVE",
"529 146 OFFCURVE",
"529 313 CURVE SMOOTH",
"529 417 OFFCURVE",
"471 527 OFFCURVE",
"349 527 CURVE SMOOTH",
"264 527 OFFCURVE",
"188 473 OFFCURVE",
"122 398 CURVE",
"192 730 LINE",
"172 730 LINE",
"17 0 LINE",
"37 0 LINE",
"60 108 LINE",
"84 46 OFFCURVE",
"143 -10 OFFCURVE",
"231 -10 CURVE SMOOTH"
);
},
{
closed = 1;
nodes = (
"151 10 OFFCURVE",
"82 60 OFFCURVE",
"68 141 CURVE",
"114 366 LINE",
"179 440 OFFCURVE",
"251 507 OFFCURVE",
"342 507 CURVE SMOOTH",
"449 507 OFFCURVE",
"508 413 OFFCURVE",
"508 312 CURVE SMOOTH",
"508 161 OFFCURVE",
"375 10 OFFCURVE",
"233 10 CURVE SMOOTH"
);
}
);
width = 576;
},
{
layerId = "6CB1ED38-7E52-4100-AE28-A91D059C1838";
paths = (
{
closed = 1;
nodes = (
"305 -10 CURVE SMOOTH",
"462 -10 OFFCURVE",
"604 138 OFFCURVE",
"604 325 CURVE SMOOTH",
"604 448 OFFCURVE",
"543 536 OFFCURVE",
"436 536 CURVE SMOOTH",
"370 536 OFFCURVE",
"306 502 OFFCURVE",
"269 448 CURVE",
"329 730 LINE",
"139 730 LINE",
"-16 0 LINE",
"149 0 LINE",
"166 82 LINE",
"184 22 OFFCURVE",
"232 -10 OFFCURVE"
);
},
{
closed = 1;
nodes = (
"287 150 CURVE SMOOTH",
"252 150 OFFCURVE",
"235 168 OFFCURVE",
"217 204 CURVE",
"237 298 LINE",
"263 344 OFFCURVE",
"306 376 OFFCURVE",
"341 376 CURVE SMOOTH",
"380 376 OFFCURVE",
"404 338 OFFCURVE",
"404 287 CURVE SMOOTH",
"404 210 OFFCURVE",
"350 150 OFFCURVE"
);
}
);
width = 627;
}
);
leftKerningGroup = h;
rightKerningGroup = b;
unicode = 0062;
},
{
glyphname = c;
lastChange = "2016-08-17 14:38:19 +0000";
layers = (
{
anchors = (
{
name = bottom;
position = "{222, 0}";
},
{
name = top;
position = "{330, 519}";
}
);
background = {
paths = (
{
closed = 1;
nodes = (
"304 -10 OFFCURVE",
"399 43 OFFCURVE",
"436 113 CURVE",
"417 119 LINE",
"390 62 OFFCURVE",
"297 10 OFFCURVE",
"220 10 CURVE SMOOTH",
"120 10 OFFCURVE",
"51 101 OFFCURVE",
"51 214 CURVE SMOOTH",
"51 372 OFFCURVE",
"186 507 OFFCURVE",
"325 507 CURVE SMOOTH",
"397 507 OFFCURVE",
"453 468 OFFCURVE",
"471 404 CURVE",
"493 411 LINE",
"475 484 OFFCURVE",
"415 527 OFFCURVE",
"332 527 CURVE SMOOTH",
"177 527 OFFCURVE",
"31 382 OFFCURVE",
"31 210 CURVE SMOOTH",
"31 88 OFFCURVE",
"107 -10 OFFCURVE",
"219 -10 CURVE SMOOTH"
);
}
);
};
layerId = UUID0;
paths = (
{
closed = 1;
nodes = (
"304 -10 OFFCURVE",
"399 43 OFFCURVE",
"436 113 CURVE",
"417 119 LINE",
"390 62 OFFCURVE",
"297 10 OFFCURVE",
"220 10 CURVE SMOOTH",
"120 10 OFFCURVE",
"51 101 OFFCURVE",
"51 214 CURVE SMOOTH",
"51 372 OFFCURVE",
"186 507 OFFCURVE",
"325 507 CURVE SMOOTH",
"397 507 OFFCURVE",
"453 468 OFFCURVE",
"471 404 CURVE",
"493 411 LINE",
"475 484 OFFCURVE",
"415 527 OFFCURVE",
"332 527 CURVE SMOOTH",
"177 527 OFFCURVE",
"31 382 OFFCURVE",
"31 210 CURVE SMOOTH",
"31 88 OFFCURVE",
"107 -10 OFFCURVE",
"219 -10 CURVE SMOOTH"
);
}
);
width = 514;
},
{
anchors = (
{
name = bottom;
position = "{237, 0}";
},
{
name = top;
position = "{348, 522}";
}
);
layerId = "6CB1ED38-7E52-4100-AE28-A91D059C1838";
paths = (
{
closed = 1;
nodes = (
"232 -10 CURVE SMOOTH",
"354 -10 OFFCURVE",
"449 49 OFFCURVE",
"509 133 CURVE",
"336 189 LINE",
"315 164 OFFCURVE",
"291 150 OFFCURVE",
"265 150 CURVE SMOOTH",
"228 150 OFFCURVE",
"204 181 OFFCURVE",
"204 232 CURVE SMOOTH",
"204 318 OFFCURVE",
"257 376 OFFCURVE",
"313 376 CURVE SMOOTH",
"340 376 OFFCURVE",
"358 362 OFFCURVE",
"368 337 CURVE",
"565 393 LINE",
"541 477 OFFCURVE",
"471 536 OFFCURVE",
"348 536 CURVE SMOOTH",
"140 536 OFFCURVE",
"6 374 OFFCURVE",
"6 211 CURVE SMOOTH",
"6 92 OFFCURVE",
"79 -10 OFFCURVE"
);
}
);
width = 555;
}
);
leftKerningGroup = o;
rightKerningGroup = c;
unicode = 0063;
},
{
glyphname = d;
lastChange = "2016-08-17 14:38:19 +0000";
layers = (
{
anchors = (
{
name = top;
position = "{333, 519}";
}
);
background = {
paths = (
{
closed = 1;
nodes = (
"293 -10 OFFCURVE",
"379 39 OFFCURVE",
"435 108 CURVE",
"420 37 OFFCURVE",
"420 33 OFFCURVE",
"420 30 CURVE SMOOTH",
"420 17 OFFCURVE",
"425 6 OFFCURVE",
"436 2 CURVE SMOOTH",
"439 1 OFFCURVE",
"443 0 OFFCURVE",
"448 0 CURVE",
"452 20 LINE",
"444 20 OFFCURVE",
"440 25 OFFCURVE",
"440 33 CURVE SMOOTH",
"440 35 OFFCURVE",
"440 39 OFFCURVE",
"441 43 CURVE SMOOTH",
"588 730 LINE",
"567 730 LINE",
"497 398 LINE",
"472 467 OFFCURVE",
"413 527 OFFCURVE",
"323 527 CURVE SMOOTH",
"171 527 OFFCURVE",
"31 370 OFFCURVE",
"31 211 CURVE SMOOTH",
"31 97 OFFCURVE",
"100 -10 OFFCURVE",
"218 -10 CURVE SMOOTH"
);
},
{
closed = 1;
nodes = (
"119 10 OFFCURVE",
"51 104 OFFCURVE",
"51 213 CURVE SMOOTH",
"51 351 OFFCURVE",
"172 507 OFFCURVE",
"319 507 CURVE SMOOTH",
"399 507 OFFCURVE",
"477 439 OFFCURVE",
"488 356 CURVE",
"448 169 LINE",
"425 84 OFFCURVE",
"299 10 OFFCURVE",
"222 10 CURVE SMOOTH"
);
}
);
};
layerId = UUID0;
paths = (
{
closed = 1;
nodes = (
"293 -10 OFFCURVE",
"379 39 OFFCURVE",
"435 108 CURVE",
"420 37 OFFCURVE",
"420 33 OFFCURVE",
"420 30 CURVE SMOOTH",
"420 17 OFFCURVE",
"425 6 OFFCURVE",
"436 2 CURVE SMOOTH",
"439 1 OFFCURVE",
"443 0 OFFCURVE",
"448 0 CURVE",
"452 20 LINE",
"444 20 OFFCURVE",
"440 25 OFFCURVE",
"440 33 CURVE SMOOTH",
"440 35 OFFCURVE",
"440 39 OFFCURVE",
"441 43 CURVE SMOOTH",
"588 730 LINE",
"567 730 LINE",
"497 398 LINE",
"472 467 OFFCURVE",
"413 527 OFFCURVE",
"323 527 CURVE SMOOTH",
"171 527 OFFCURVE",
"31 370 OFFCURVE",
"31 211 CURVE SMOOTH",
"31 97 OFFCURVE",
"100 -10 OFFCURVE",
"218 -10 CURVE SMOOTH"
);
},
{
closed = 1;
nodes = (
"119 10 OFFCURVE",
"51 104 OFFCURVE",
"51 213 CURVE SMOOTH",
"51 351 OFFCURVE",
"172 507 OFFCURVE",
"319 507 CURVE SMOOTH",
"399 507 OFFCURVE",
"477 439 OFFCURVE",
"488 356 CURVE",
"448 169 LINE",
"425 84 OFFCURVE",
"299 10 OFFCURVE",
"222 10 CURVE SMOOTH"
);
}
);
width = 579;
},
{
anchors = (
{
name = top;
position = "{558, 522}";
}
);
layerId = "6CB1ED38-7E52-4100-AE28-A91D059C1838";
paths = (
{
closed = 1;
nodes = (
"193 -10 CURVE SMOOTH",
"258 -10 OFFCURVE",
"325 18 OFFCURVE",
"373 82 CURVE",
"372 75 OFFCURVE",
"371 68 OFFCURVE",
"371 62 CURVE SMOOTH",
"371 9 OFFCURVE",
"412 -10 OFFCURVE",
"469 -10 CURVE SMOOTH",
"488 -10 OFFCURVE",
"515 -7 OFFCURVE",
"550 0 CURVE",
"584 160 LINE",
"565 161 OFFCURVE",
"557 168 OFFCURVE",
"557 186 CURVE SMOOTH",
"557 192 OFFCURVE",
"558 200 OFFCURVE",
"560 210 CURVE SMOOTH",
"671 730 LINE",
"480 730 LINE",
"420 448 LINE",
"404 503 OFFCURVE",
"354 536 OFFCURVE",
"291 536 CURVE SMOOTH",
"139 536 OFFCURVE",
"7 383 OFFCURVE",
"7 202 CURVE SMOOTH",
"7 77 OFFCURVE",
"77 -10 OFFCURVE"
);
},
{
closed = 1;
nodes = (
"279 150 CURVE SMOOTH",
"233 150 OFFCURVE",
"207 183 OFFCURVE",
"207 233 CURVE SMOOTH",
"207 308 OFFCURVE",
"263 376 OFFCURVE",
"319 376 CURVE SMOOTH",
"355 376 OFFCURVE",
"383 344 OFFCURVE",
"390 298 CURVE",
"370 204 LINE",
"337 168 OFFCURVE",
"311 150 OFFCURVE"
);
}
);
width = 645;
}
);
leftKerningGroup = a;
rightKerningGroup = d;
unicode = 0064;
},
{
glyphname = eth;
lastChange = "2016-08-17 14:38:19 +0000";
layers = (
{
background = {
paths = (
{
closed = 1;
nodes = (
"524 490 OFFCURVE",
"480 621 OFFCURVE",
"330 730 CURVE",
"301 730 LINE",
"466 614 OFFCURVE",
"506 499 OFFCURVE",
"506 390 CURVE SMOOTH",
"506 369 OFFCURVE",
"505 350 OFFCURVE",
"503 330 CURVE",
"488 415 OFFCURVE",
"417 475 OFFCURVE",
"319 475 CURVE SMOOTH",
"175 475 OFFCURVE",
"27 341 OFFCURVE",
"27 190 CURVE SMOOTH",
"27 80 OFFCURVE",
"103 -10 OFFCURVE",
"216 -10 CURVE SMOOTH",
"362 -10 OFFCURVE",
"524 134 OFFCURVE",
"524 369 CURVE SMOOTH"
);
},
{
closed = 1;
nodes = (
"47 331 OFFCURVE",
"183 455 OFFCURVE",
"315 455 CURVE SMOOTH",
"417 455 OFFCURVE",
"490 377 OFFCURVE",
"490 280 CURVE SMOOTH",
"490 143 OFFCURVE",
"352 10 OFFCURVE",
"219 10 CURVE SMOOTH",
"117 10 OFFCURVE",
"47 91 OFFCURVE",
"47 192 CURVE SMOOTH"
);
},
{
closed = 1;
nodes = (
"527 713 LINE",
"415 645 LINE",
"410 642 LINE",
"275 561 LINE",
"282 547 LINE",
"420 630 LINE",
"425 633 LINE",
"534 699 LINE"
);
}
);
};
layerId = UUID0;
paths = (
{
closed = 1;
nodes = (
"524 490 OFFCURVE",
"480 621 OFFCURVE",
"330 730 CURVE",
"301 730 LINE",
"466 614 OFFCURVE",
"506 499 OFFCURVE",
"506 390 CURVE SMOOTH",
"506 369 OFFCURVE",
"505 350 OFFCURVE",
"503 330 CURVE",
"488 415 OFFCURVE",
"417 475 OFFCURVE",
"319 475 CURVE SMOOTH",
"175 475 OFFCURVE",
"27 341 OFFCURVE",
"27 190 CURVE SMOOTH",
"27 80 OFFCURVE",
"103 -10 OFFCURVE",
"216 -10 CURVE SMOOTH",
"362 -10 OFFCURVE",
"524 134 OFFCURVE",
"524 369 CURVE SMOOTH"
);
},
{
closed = 1;
nodes = (
"47 331 OFFCURVE",
"183 455 OFFCURVE",
"315 455 CURVE SMOOTH",
"417 455 OFFCURVE",
"490 377 OFFCURVE",
"490 280 CURVE SMOOTH",
"490 143 OFFCURVE",
"352 10 OFFCURVE",
"219 10 CURVE SMOOTH",
"117 10 OFFCURVE",
"47 91 OFFCURVE",
"47 192 CURVE SMOOTH"
);
},
{
closed = 1;
nodes = (
"527 713 LINE",
"275 561 LINE",
"282 547 LINE",
"534 699 LINE"
);
}
);
width = 568;
},
{
layerId = "6CB1ED38-7E52-4100-AE28-A91D059C1838";
paths = (
{
closed = 1;
nodes = (
"585 379 CURVE SMOOTH",
"585 531 OFFCURVE",
"520 679 OFFCURVE",
"420 730 CURVE",
"192 730 LINE",
"307 661 OFFCURVE",
"374 584 OFFCURVE",
"398 489 CURVE SMOOTH",
"403 469 OFFCURVE",
"406 447 OFFCURVE",
"407 425 CURVE",
"377 454 OFFCURVE",
"333 471 OFFCURVE",
"286 471 CURVE SMOOTH",
"140 471 OFFCURVE",
"4 343 OFFCURVE",
"4 191 CURVE SMOOTH",
"4 73 OFFCURVE",
"92 -10 OFFCURVE",
"234 -10 CURVE SMOOTH",
"446 -10 OFFCURVE",
"585 145 OFFCURVE"
);
},
{
closed = 1;
nodes = (
"202 216 CURVE SMOOTH",
"202 276 OFFCURVE",
"245 320 OFFCURVE",
"304 320 CURVE SMOOTH",
"346 320 OFFCURVE",
"369 294 OFFCURVE",
"369 254 CURVE SMOOTH",
"369 194 OFFCURVE",
"326 150 OFFCURVE",
"268 150 CURVE SMOOTH",
"226 150 OFFCURVE",
"202 176 OFFCURVE"
);
},
{
closed = 1;
nodes = (
"568 712 LINE",
"436 648 LINE",
"379 634 LINE",
"268 581 LINE",
"305 510 LINE",
"417 563 LINE",
"478 580 LINE",
"605 641 LINE"
);
}
);
width = 603;
}
);
unicode = 00F0;
},
{
glyphname = dcroat;
lastChange = "2016-08-17 14:38:19 +0000";
layers = (
{
background = {
paths = (
{
closed = 1;
nodes = (
"429 633 LINE",
"639 633 LINE",
"643 653 LINE",
"433 653 LINE"
);
},
{
closed = 1;
nodes = (
"293 -10 OFFCURVE",
"379 39 OFFCURVE",
"435 108 CURVE",
"421 40 LINE SMOOTH",
"420 37 OFFCURVE",
"420 33 OFFCURVE",
"420 30 CURVE SMOOTH",
"420 13 OFFCURVE",
"428 0 OFFCURVE",
"448 0 CURVE",
"452 20 LINE",
"444 20 OFFCURVE",
"440 25 OFFCURVE",
"440 33 CURVE SMOOTH",
"440 35 OFFCURVE",
"440 38 OFFCURVE",
"441 40 CURVE SMOOTH",
"588 730 LINE",
"567 730 LINE",
"497 398 LINE",
"472 467 OFFCURVE",
"413 527 OFFCURVE",
"323 527 CURVE SMOOTH",
"171 527 OFFCURVE",
"31 370 OFFCURVE",
"31 211 CURVE SMOOTH",
"31 97 OFFCURVE",
"100 -10 OFFCURVE",
"218 -10 CURVE SMOOTH"
);
},
{
closed = 1;
nodes = (
"119 10 OFFCURVE",
"51 104 OFFCURVE",
"51 213 CURVE SMOOTH",
"51 351 OFFCURVE",
"172 507 OFFCURVE",
"319 507 CURVE SMOOTH",
"399 507 OFFCURVE",
"477 439 OFFCURVE",
"488 356 CURVE",
"448 169 LINE",
"425 84 OFFCURVE",
"299 10 OFFCURVE",
"222 10 CURVE SMOOTH"
);
}
);
};
layerId = UUID0;
paths = (
{
closed = 1;
nodes = (
"429 633 LINE",
"639 633 LINE",
"643 653 LINE",
"433 653 LINE"
);
},
{
closed = 1;
nodes = (
"293 -10 OFFCURVE",
"379 39 OFFCURVE",
"435 108 CURVE",
"421 40 LINE SMOOTH",
"420 37 OFFCURVE",
"420 33 OFFCURVE",
"420 30 CURVE SMOOTH",
"420 13 OFFCURVE",
"428 0 OFFCURVE",
"448 0 CURVE",
"452 20 LINE",
"444 20 OFFCURVE",
"440 25 OFFCURVE",
"440 33 CURVE SMOOTH",
"440 35 OFFCURVE",
"440 38 OFFCURVE",
"441 40 CURVE SMOOTH",
"588 730 LINE",
"567 730 LINE",
"497 398 LINE",
"472 467 OFFCURVE",
"413 527 OFFCURVE",
"323 527 CURVE SMOOTH",
"171 527 OFFCURVE",
"31 370 OFFCURVE",
"31 211 CURVE SMOOTH",
"31 97 OFFCURVE",
"100 -10 OFFCURVE",
"218 -10 CURVE SMOOTH"
);
},
{
closed = 1;
nodes = (
"119 10 OFFCURVE",
"51 104 OFFCURVE",
"51 213 CURVE SMOOTH",
"51 351 OFFCURVE",
"172 507 OFFCURVE",
"319 507 CURVE SMOOTH",
"399 507 OFFCURVE",
"477 439 OFFCURVE",
"488 356 CURVE",
"448 169 LINE",
"425 84 OFFCURVE",
"299 10 OFFCURVE",
"222 10 CURVE SMOOTH"
);
}
);
width = 579;
},
{
layerId = "6CB1ED38-7E52-4100-AE28-A91D059C1838";
paths = (
{
closed = 1;
nodes = (
"378 579 LINE",
"702 579 LINE",
"726 688 LINE",
"401 688 LINE"
);
},
{
closed = 1;
nodes = (
"193 -10 CURVE SMOOTH",
"258 -10 OFFCURVE",
"325 18 OFFCURVE",
"373 82 CURVE",
"373 63 LINE SMOOTH",
"373 14 OFFCURVE",
"405 -10 OFFCURVE",
"469 -10 CURVE SMOOTH",
"488 -10 OFFCURVE",
"515 -7 OFFCURVE",
"550 0 CURVE",
"584 160 LINE",
"565 161 OFFCURVE",
"557 168 OFFCURVE",
"557 186 CURVE SMOOTH",
"557 192 OFFCURVE",
"558 200 OFFCURVE",
"560 210 CURVE SMOOTH",
"671 730 LINE",
"480 730 LINE",
"420 448 LINE",
"404 503 OFFCURVE",
"354 536 OFFCURVE",
"291 536 CURVE SMOOTH",
"139 536 OFFCURVE",
"7 383 OFFCURVE",
"7 202 CURVE SMOOTH",
"7 77 OFFCURVE",
"77 -10 OFFCURVE"
);
},
{
closed = 1;
nodes = (
"279 150 CURVE SMOOTH",
"233 150 OFFCURVE",
"207 183 OFFCURVE",
"207 233 CURVE SMOOTH",
"207 308 OFFCURVE",
"263 376 OFFCURVE",
"319 376 CURVE SMOOTH",
"355 376 OFFCURVE",
"383 344 OFFCURVE",
"390 298 CURVE",
"370 204 LINE",
"337 168 OFFCURVE",
"311 150 OFFCURVE"
);
}
);
width = 645;
}
);
leftKerningGroup = a;
rightKerningGroup = d;
unicode = 0111;
},
{
glyphname = e;
lastChange = "2016-08-17 16:37:17 +0000";
layers = (
{
anchors = (
{
name = bottom;
position = "{220, 0}";
},
{
name = top;
position = "{328, 519}";
}
);
background = {
paths = (
{
closed = 1;
nodes = (
"342 -10 OFFCURVE",
"436 48 OFFCURVE",
"436 150 CURVE SMOOTH",
"436 222 OFFCURVE",
"389 281 OFFCURVE",
"252 277 CURVE",
"251 264 LINE",
"366 264 OFFCURVE",
"416 219 OFFCURVE",
"416 150 CURVE SMOOTH",
"416 59 OFFCURVE",
"331 10 OFFCURVE",
"226 11 CURVE SMOOTH",
"87 12 OFFCURVE",
"37 101 OFFCURVE",
"77 290 CURVE SMOOTH",
"107 431 OFFCURVE",
"192 509 OFFCURVE",
"317 509 CURVE SMOOTH",
"396 509 OFFCURVE",
"440 474 OFFCURVE",
"440 414 CURVE SMOOTH",
"440 307 OFFCURVE",
"293 255 OFFCURVE",
"64 290 CURVE",
"60 273 LINE",
"303 236 OFFCURVE",
"460 291 OFFCURVE",
"460 414 CURVE SMOOTH",
"460 486 OFFCURVE",
"406 529 OFFCURVE",
"317 529 CURVE SMOOTH",
"182 529 OFFCURVE",
"88 444 OFFCURVE",
"57 294 CURVE SMOOTH",
"15 93 OFFCURVE",
"73 -8 OFFCURVE",
"224 -9 CURVE SMOOTH"
);
}
);
};
layerId = UUID0;
paths = (
{
closed = 1;
nodes = (
"310 -10 OFFCURVE",
"400 42 OFFCURVE",
"445 122 CURVE",
"426 128 LINE",
"387 56 OFFCURVE",
"300 10 OFFCURVE",
"227 10 CURVE SMOOTH",
"112 10 OFFCURVE",
"52 102 OFFCURVE",
"52 211 CURVE SMOOTH",
"52 352 OFFCURVE",
"176 507 OFFCURVE",
"329 507 CURVE SMOOTH",
"388 507 OFFCURVE",
"465 472 OFFCURVE",
"465 391 CURVE SMOOTH",
"465 319 OFFCURVE",
"404 268 OFFCURVE",
"227 268 CURVE SMOOTH",
"176 268 OFFCURVE",
"125 270 OFFCURVE",
"57 274 CURVE",
"37 255 LINE",
"113 250 OFFCURVE",
"169 248 OFFCURVE",
"224 248 CURVE SMOOTH",
"400 248 OFFCURVE",
"486 297 OFFCURVE",
"486 390 CURVE SMOOTH",
"486 480 OFFCURVE",
"401 527 OFFCURVE",
"333 527 CURVE SMOOTH",
"161 527 OFFCURVE",
"31 368 OFFCURVE",
"31 210 CURVE SMOOTH",
"31 90 OFFCURVE",
"101 -10 OFFCURVE",
"220 -10 CURVE SMOOTH"
);
}
);
width = 521;
},
{
anchors = (
{
name = bottom;
position = "{240, 0}";
},
{
name = top;
position = "{351, 522}";
}
);
layerId = "6CB1ED38-7E52-4100-AE28-A91D059C1838";
paths = (
{
closed = 1;
nodes = (
"233 -10 CURVE SMOOTH",
"343 -10 OFFCURVE",
"457 47 OFFCURVE",
"516 132 CURVE",
"367 180 LINE",
"345 145 OFFCURVE",
"311 126 OFFCURVE",
"269 126 CURVE SMOOTH",
"223 126 OFFCURVE",
"205 148 OFFCURVE",
"205 203 CURVE SMOOTH",
"205 312 OFFCURVE",
"257 401 OFFCURVE",
"320 401 CURVE SMOOTH",
"350 401 OFFCURVE",
"371 385 OFFCURVE",
"371 362 CURVE SMOOTH",
"371 329 OFFCURVE",
"335 318 OFFCURVE",
"233 318 CURVE SMOOTH",
"192 318 OFFCURVE",
"155 320 OFFCURVE",
"120 324 CURVE",
"96 211 LINE",
"143 206 OFFCURVE",
"191 204 OFFCURVE",
"234 204 CURVE SMOOTH",
"446 204 OFFCURVE",
"557 265 OFFCURVE",
"557 383 CURVE SMOOTH",
"557 479 OFFCURVE",
"481 536 OFFCURVE",
"354 536 CURVE SMOOTH",
"161 536 OFFCURVE",
"7 393 OFFCURVE",
"7 213 CURVE SMOOTH",
"7 78 OFFCURVE",
"96 -10 OFFCURVE"
);
}
);
width = 566;
}
);
leftKerningGroup = o;
rightKerningGroup = e;
unicode = 0065;
},
{
glyphname = f;
lastChange = "2016-08-17 14:38:19 +0000";
layers = (
{
background = {
paths = (
{
closed = 1;
nodes = (
"-12 -213 LINE",
"8 -213 LINE",
"159 499 LINE",
"306 499 LINE",
"310 519 LINE",
"164 519 LINE",
"168 540 LINE SMOOTH",
"191 657 OFFCURVE",
"246 721 OFFCURVE",
"318 721 CURVE SMOOTH",
"347 721 OFFCURVE",
"374 710 OFFCURVE",
"386 694 CURVE",
"404 706 LINE",
"391 726 OFFCURVE",
"357 740 OFFCURVE",
"321 740 CURVE SMOOTH",
"239 740 OFFCURVE",
"173 666 OFFCURVE",
"148 540 CURVE SMOOTH",
"144 519 LINE",
"72 519 LINE",
"68 499 LINE",
"139 499 LINE"
);
}
);
};
layerId = UUID0;
paths = (
{
closed = 1;
nodes = (
"-12 -213 LINE",
"8 -213 LINE",
"159 499 LINE",
"306 499 LINE",
"310 519 LINE",
"164 519 LINE",
"168 540 LINE SMOOTH",
"191 657 OFFCURVE",
"246 721 OFFCURVE",
"318 721 CURVE SMOOTH",
"347 721 OFFCURVE",
"374 710 OFFCURVE",
"386 694 CURVE",
"404 706 LINE",
"391 726 OFFCURVE",
"357 740 OFFCURVE",
"321 740 CURVE SMOOTH",
"239 740 OFFCURVE",
"173 666 OFFCURVE",
"148 540 CURVE SMOOTH",
"144 519 LINE",
"72 519 LINE",
"68 499 LINE",
"139 499 LINE"
);
}
);
width = 292;
},
{
layerId = "6CB1ED38-7E52-4100-AE28-A91D059C1838";
paths = (
{
closed = 1;
nodes = (
"-28 -213 LINE",
"162 -213 LINE",
"276 322 LINE",
"383 322 LINE",
"414 465 LINE",
"306 465 LINE",
"320 529 LINE SMOOTH",
"327 563 OFFCURVE",
"344 580 OFFCURVE",
"371 580 CURVE SMOOTH",
"389 580 OFFCURVE",
"416 574 OFFCURVE",
"435 566 CURVE",
"497 710 LINE",
"449 730 OFFCURVE",
"405 740 OFFCURVE",
"362 740 CURVE SMOOTH",
"250 740 OFFCURVE",
"157 654 OFFCURVE",
"129 522 CURVE SMOOTH",
"117 465 LINE",
"56 465 LINE",
"25 322 LINE",
"86 322 LINE"
);
}
);
width = 394;
}
);
leftKerningGroup = f;
rightKerningGroup = f;
unicode = 0066;
},
{
glyphname = g;
lastChange = "2016-08-17 14:38:19 +0000";
layers = (
{
anchors = (
{
name = top;
position = "{322, 519}";
}
);
background = {
paths = (
{
closed = 1;
nodes = (
"278 -223 OFFCURVE",
"397 -159 OFFCURVE",
"426 -22 CURVE SMOOTH",
"541 519 LINE",
"522 519 LINE",
"496 398 LINE",
"463 469 OFFCURVE",
"411 527 OFFCURVE",
"322 527 CURVE SMOOTH",
"167 527 OFFCURVE",
"30 365 OFFCURVE",
"30 211 CURVE SMOOTH",
"30 97 OFFCURVE",
"99 -10 OFFCURVE",
"216 -10 CURVE SMOOTH",
"291 -10 OFFCURVE",
"378 39 OFFCURVE",
"434 108 CURVE",
"406 -22 LINE SMOOTH",
"380 -141 OFFCURVE",
"278 -203 OFFCURVE",
"170 -203 CURVE SMOOTH",
"90 -203 OFFCURVE",
"21 -171 OFFCURVE",
"-2 -93 CURVE",
"-22 -99 LINE",
"-1 -173 OFFCURVE",
"49 -223 OFFCURVE",
"166 -223 CURVE SMOOTH"
);
},
{
closed = 1;
nodes = (
"117 10 OFFCURVE",
"50 104 OFFCURVE",
"50 213 CURVE SMOOTH",
"50 344 OFFCURVE",
"166 507 OFFCURVE",
"318 507 CURVE SMOOTH",
"402 507 OFFCURVE",
"474 443 OFFCURVE",
"487 356 CURVE",
"447 169 LINE",
"425 95 OFFCURVE",
"314 10 OFFCURVE",
"221 10 CURVE SMOOTH"
);
}
);
};
layerId = UUID0;
paths = (
{
closed = 1;
nodes = (
"278 -223 OFFCURVE",
"397 -159 OFFCURVE",
"426 -22 CURVE SMOOTH",
"541 519 LINE",
"522 519 LINE",
"496 398 LINE",
"463 469 OFFCURVE",
"411 527 OFFCURVE",
"322 527 CURVE SMOOTH",
"167 527 OFFCURVE",
"30 365 OFFCURVE",
"30 211 CURVE SMOOTH",
"30 97 OFFCURVE",
"99 -10 OFFCURVE",
"216 -10 CURVE SMOOTH",
"291 -10 OFFCURVE",
"378 39 OFFCURVE",
"434 108 CURVE",
"406 -22 LINE SMOOTH",
"380 -141 OFFCURVE",
"278 -203 OFFCURVE",
"170 -203 CURVE SMOOTH",
"90 -203 OFFCURVE",
"21 -171 OFFCURVE",
"-2 -93 CURVE",
"-22 -99 LINE",
"-1 -173 OFFCURVE",
"49 -223 OFFCURVE",
"166 -223 CURVE SMOOTH"
);
},
{
closed = 1;
nodes = (
"117 10 OFFCURVE",
"50 104 OFFCURVE",
"50 213 CURVE SMOOTH",
"50 344 OFFCURVE",
"166 507 OFFCURVE",
"318 507 CURVE SMOOTH",
"402 507 OFFCURVE",
"474 443 OFFCURVE",
"487 356 CURVE",
"447 169 LINE",
"425 95 OFFCURVE",
"314 10 OFFCURVE",
"221 10 CURVE SMOOTH"
);
}
);
width = 576;
},
{
anchors = (
{
name = top;
position = "{311, 522}";
}
);
layerId = "6CB1ED38-7E52-4100-AE28-A91D059C1838";
paths = (
{
closed = 1;
nodes = (
"159 -223 CURVE SMOOTH",
"345 -223 OFFCURVE",
"490 -116 OFFCURVE",
"525 48 CURVE SMOOTH",
"627 526 LINE",
"462 526 LINE",
"445 448 LINE",
"427 505 OFFCURVE",
"377 536 OFFCURVE",
"307 536 CURVE SMOOTH",
"146 536 OFFCURVE",
"8 387 OFFCURVE",
"8 204 CURVE SMOOTH",
"8 87 OFFCURVE",
"69 0 OFFCURVE",
"176 0 CURVE SMOOTH",
"239 0 OFFCURVE",
"303 27 OFFCURVE",
"342 82 CURVE",
"335 48 LINE SMOOTH",
"316 -46 OFFCURVE",
"252 -82 OFFCURVE",
"188 -82 CURVE SMOOTH",
"132 -82 OFFCURVE",
"85 -54 OFFCURVE",
"57 -18 CURVE",
"-65 -122 LINE",
"-17 -187 OFFCURVE",
"54 -223 OFFCURVE"
);
},
{
closed = 1;
nodes = (
"277 150 CURVE SMOOTH",
"233 150 OFFCURVE",
"206 184 OFFCURVE",
"206 233 CURVE SMOOTH",
"206 307 OFFCURVE",
"262 376 OFFCURVE",
"317 376 CURVE SMOOTH",
"352 376 OFFCURVE",
"381 346 OFFCURVE",
"388 298 CURVE",
"368 204 LINE",
"336 168 OFFCURVE",
"309 150 OFFCURVE"
);
}
);
width = 626;
}
);
leftKerningGroup = a;
rightKerningGroup = a.alt;
unicode = 0067;
},
{
glyphname = h;
lastChange = "2016-08-17 14:38:19 +0000";
layers = (
{
anchors = (
{
name = top;
position = "{354, 518}";
}
);
background = {
paths = (
{
closed = 1;
nodes = (
"17 0 LINE",
"37 0 LINE",
"107 328 LINE",
"154 429 OFFCURVE",
"260 507 OFFCURVE",
"352 507 CURVE SMOOTH",
"419 507 OFFCURVE",
"454 465 OFFCURVE",
"454 384 CURVE SMOOTH",
"454 357 OFFCURVE",
"449 325 OFFCURVE",
"442 289 CURVE SMOOTH",
"381 0 LINE",
"401 0 LINE",
"462 289 LINE SMOOTH",
"470 326 OFFCURVE",
"474 360 OFFCURVE",
"474 388 CURVE SMOOTH",
"474 480 OFFCURVE",
"434 527 OFFCURVE",
"356 527 CURVE SMOOTH",
"271 527 OFFCURVE",
"178 471 OFFCURVE",
"119 385 CURVE",
"192 730 LINE",
"172 730 LINE"
);
}
);
};
layerId = UUID0;
paths = (
{
closed = 1;
nodes = (
"17 0 LINE",
"37 0 LINE",
"107 328 LINE",
"154 429 OFFCURVE",
"260 507 OFFCURVE",
"352 507 CURVE SMOOTH",
"419 507 OFFCURVE",
"454 465 OFFCURVE",
"454 384 CURVE SMOOTH",
"454 357 OFFCURVE",
"449 325 OFFCURVE",
"442 289 CURVE SMOOTH",
"381 0 LINE",
"401 0 LINE",
"462 289 LINE SMOOTH",
"470 326 OFFCURVE",
"474 360 OFFCURVE",
"474 388 CURVE SMOOTH",
"474 480 OFFCURVE",
"434 527 OFFCURVE",
"356 527 CURVE SMOOTH",
"271 527 OFFCURVE",
"178 471 OFFCURVE",
"119 385 CURVE",
"192 730 LINE",
"172 730 LINE"
);
}
);
width = 540;
},
{
anchors = (
{
name = top;
position = "{446, 521}";
}
);
layerId = "6CB1ED38-7E52-4100-AE28-A91D059C1838";
paths = (
{
closed = 1;
nodes = (
"-16 0 LINE",
"174 0 LINE",
"237 295 LINE",
"263 341 OFFCURVE",
"309 370 OFFCURVE",
"329 370 CURVE SMOOTH",
"353 370 OFFCURVE",
"370 356 OFFCURVE",
"370 323 CURVE SMOOTH",
"370 315 OFFCURVE",
"369 306 OFFCURVE",
"367 296 CURVE SMOOTH",
"304 0 LINE",
"494 0 LINE",
"567 346 LINE SMOOTH",
"572 369 OFFCURVE",
"576 395 OFFCURVE",
"576 420 CURVE SMOOTH",
"576 480 OFFCURVE",
"551 536 OFFCURVE",
"451 536 CURVE SMOOTH",
"381 536 OFFCURVE",
"316 505 OFFCURVE",
"269 448 CURVE",
"329 730 LINE",
"139 730 LINE"
);
}
);
width = 601;
}
);
leftKerningGroup = h;
rightKerningGroup = h;
unicode = 0068;
},
{
glyphname = hbar;
lastChange = "2016-08-17 14:38:19 +0000";
layers = (
{
background = {
paths = (
{
closed = 1;
nodes = (
"82 633 LINE",
"291 633 LINE",
"295 653 LINE",
"86 653 LINE"
);
},
{
closed = 1;
nodes = (
"17 0 LINE",
"37 0 LINE",
"107 328 LINE",
"154 429 OFFCURVE",
"260 507 OFFCURVE",
"352 507 CURVE SMOOTH",
"419 507 OFFCURVE",
"454 465 OFFCURVE",
"454 384 CURVE SMOOTH",
"454 357 OFFCURVE",
"450 325 OFFCURVE",
"442 289 CURVE SMOOTH",
"381 0 LINE",
"401 0 LINE",
"462 289 LINE SMOOTH",
"470 326 OFFCURVE",
"474 360 OFFCURVE",
"474 388 CURVE SMOOTH",
"474 480 OFFCURVE",
"434 527 OFFCURVE",
"356 527 CURVE SMOOTH",
"271 527 OFFCURVE",
"178 471 OFFCURVE",
"119 385 CURVE",
"192 730 LINE",
"172 730 LINE"
);
}
);
};
layerId = UUID0;
paths = (
{
closed = 1;
nodes = (
"82 633 LINE",
"291 633 LINE",
"295 653 LINE",
"86 653 LINE"
);
},
{
closed = 1;
nodes = (
"17 0 LINE",
"37 0 LINE",
"107 328 LINE",
"154 429 OFFCURVE",
"260 507 OFFCURVE",
"352 507 CURVE SMOOTH",
"419 507 OFFCURVE",
"454 465 OFFCURVE",
"454 384 CURVE SMOOTH",
"454 357 OFFCURVE",
"450 325 OFFCURVE",
"442 289 CURVE SMOOTH",
"381 0 LINE",
"401 0 LINE",
"462 289 LINE SMOOTH",
"470 326 OFFCURVE",
"474 360 OFFCURVE",
"474 388 CURVE SMOOTH",
"474 480 OFFCURVE",
"434 527 OFFCURVE",
"356 527 CURVE SMOOTH",
"271 527 OFFCURVE",
"178 471 OFFCURVE",
"119 385 CURVE",
"192 730 LINE",
"172 730 LINE"
);
}
);
width = 540;
},
{
layerId = "6CB1ED38-7E52-4100-AE28-A91D059C1838";
paths = (
{
closed = 1;
nodes = (
"61 579 LINE",
"386 579 LINE",
"409 688 LINE",
"84 688 LINE"
);
},
{
closed = 1;
nodes = (
"-16 0 LINE",
"174 0 LINE",
"237 295 LINE",
"263 341 OFFCURVE",
"309 370 OFFCURVE",
"329 370 CURVE SMOOTH",
"353 370 OFFCURVE",
"370 356 OFFCURVE",
"370 323 CURVE SMOOTH",
"370 315 OFFCURVE",
"369 306 OFFCURVE",
"367 296 CURVE SMOOTH",
"304 0 LINE",
"494 0 LINE",
"567 346 LINE SMOOTH",
"572 369 OFFCURVE",
"576 395 OFFCURVE",
"576 420 CURVE SMOOTH",
"576 480 OFFCURVE",
"551 536 OFFCURVE",
"451 536 CURVE SMOOTH",
"381 536 OFFCURVE",
"316 505 OFFCURVE",
"269 448 CURVE",
"329 730 LINE",
"139 730 LINE"
);
}
);
width = 601;
}
);
leftKerningGroup = h;
rightKerningGroup = h;
unicode = 0127;
},
{
glyphname = i;
lastChange = "2016-08-17 14:38:19 +0000";
layers = (
{
anchors = (
{
name = bottom;
position = "{31, 0}";
}
);
background = {
paths = (
{
closed = 1;
nodes = (
"17 0 LINE",
"37 0 LINE",
"147 519 LINE",
"127 519 LINE"
);
},
{
closed = 1;
nodes = (
"156 653 LINE",
"176 653 LINE",
"192 730 LINE",
"172 730 LINE"
);
}
);
};
layerId = UUID0;
paths = (
{
closed = 1;
nodes = (
"17 0 LINE",
"37 0 LINE",
"147 519 LINE",
"127 519 LINE"
);
},
{
closed = 1;
nodes = (
"156 653 LINE",
"176 653 LINE",
"192 730 LINE",
"172 730 LINE"
);
}
);
width = 182;
},
{
layerId = "6CB1ED38-7E52-4100-AE28-A91D059C1838";
paths = (
{
closed = 1;
nodes = (
"-16 0 LINE",
"174 0 LINE",
"286 526 LINE",
"96 526 LINE"
);
},
{
closed = 1;
nodes = (
"105 570 LINE",
"295 570 LINE",
"329 730 LINE",
"139 730 LINE"
);
}
);
width = 286;
}
);
leftKerningGroup = i;
rightKerningGroup = i;
unicode = 0069;
},
{
glyphname = idotless;
lastChange = "2016-08-17 14:38:19 +0000";
layers = (
{
anchors = (
{
name = bottom;
position = "{36, 0}";
},
{
name = ogonek;
position = "{109, 10}";
},
{
name = top;
position = "{144, 519}";
}
);
background = {
paths = (
{
closed = 1;
nodes = (
"17 0 LINE",
"37 0 LINE",
"147 519 LINE",
"127 519 LINE"
);
}
);
};
layerId = UUID0;
paths = (
{
closed = 1;
nodes = (
"17 0 LINE",
"37 0 LINE",
"147 519 LINE",
"127 519 LINE"
);
}
);
width = 182;
},
{
anchors = (
{
name = top;
position = "{191, 522}";
}
);
layerId = "6CB1ED38-7E52-4100-AE28-A91D059C1838";
paths = (
{
closed = 1;
nodes = (
"-16 0 LINE",
"174 0 LINE",
"286 526 LINE",
"96 526 LINE"
);
}
);
width = 286;
}
);
leftKerningGroup = i;
rightKerningGroup = i;
unicode = 0131;
},
{
glyphname = j;
lastChange = "2016-08-17 14:38:19 +0000";
layers = (
{
background = {
paths = (
{
closed = 1;
nodes = (
"-59 -170 OFFCURVE",
"20 -114 OFFCURVE",
"37 -36 CURVE SMOOTH",
"155 519 LINE",
"135 519 LINE",
"17 -36 LINE SMOOTH",
"3 -100 OFFCURVE",
"-63 -150 OFFCURVE",
"-115 -150 CURVE SMOOTH",
"-141 -150 OFFCURVE",
"-170 -145 OFFCURVE",
"-188 -124 CURVE",
"-206 -136 LINE",
"-187 -162 OFFCURVE",
"-155 -170 OFFCURVE",
"-118 -170 CURVE SMOOTH"
);
},
{
closed = 1;
nodes = (
"164 653 LINE",
"184 653 LINE",
"200 730 LINE",
"180 730 LINE"
);
}
);
};
layerId = UUID0;
paths = (
{
closed = 1;
nodes = (
"-59 -170 OFFCURVE",
"20 -114 OFFCURVE",
"37 -36 CURVE SMOOTH",
"155 519 LINE",
"135 519 LINE",
"17 -36 LINE SMOOTH",
"3 -100 OFFCURVE",
"-63 -150 OFFCURVE",
"-115 -150 CURVE SMOOTH",
"-141 -150 OFFCURVE",
"-170 -145 OFFCURVE",
"-188 -124 CURVE",
"-206 -136 LINE",
"-187 -162 OFFCURVE",
"-155 -170 OFFCURVE",
"-118 -170 CURVE SMOOTH"
);
},
{
closed = 1;
nodes = (
"164 653 LINE",
"184 653 LINE",
"200 730 LINE",
"180 730 LINE"
);
}
);
width = 190;
},
{
layerId = "6CB1ED38-7E52-4100-AE28-A91D059C1838";
paths = (
{
closed = 1;
nodes = (
"-66 -209 CURVE SMOOTH",
"52 -209 OFFCURVE",
"153 -119 OFFCURVE",
"181 12 CURVE SMOOTH",
"290 526 LINE",
"99 526 LINE",
"-13 -3 LINE SMOOTH",
"-19 -30 OFFCURVE",
"-34 -46 OFFCURVE",
"-56 -46 CURVE SMOOTH",
"-72 -46 OFFCURVE",
"-87 -38 OFFCURVE",
"-94 -26 CURVE",
"-199 -155 LINE",
"-167 -190 OFFCURVE",
"-119 -209 OFFCURVE"
);
},
{
closed = 1;
nodes = (
"109 570 LINE",
"299 570 LINE",
"333 730 LINE",
"143 730 LINE"
);
}
);
width = 290;
}
);
leftKerningGroup = i;
rightKerningGroup = i;
unicode = 006A;
},
{
glyphname = jdotless;
lastChange = "2016-08-17 14:38:19 +0000";
layers = (
{
anchors = (
{
name = top;
position = "{31, 519}";
}
);
background = {
paths = (
{
closed = 1;
nodes = (
"-67 -170 OFFCURVE",
"12 -114 OFFCURVE",
"29 -36 CURVE SMOOTH",
"147 519 LINE",
"127 519 LINE",
"9 -36 LINE SMOOTH",
"-5 -100 OFFCURVE",
"-71 -150 OFFCURVE",
"-123 -150 CURVE SMOOTH",
"-149 -150 OFFCURVE",
"-178 -145 OFFCURVE",
"-196 -124 CURVE",
"-214 -136 LINE",
"-195 -162 OFFCURVE",
"-163 -170 OFFCURVE",
"-126 -170 CURVE SMOOTH"
);
}
);
};
layerId = UUID0;
paths = (
{
closed = 1;
nodes = (
"-67 -170 OFFCURVE",
"12 -114 OFFCURVE",
"29 -36 CURVE SMOOTH",
"147 519 LINE",
"127 519 LINE",
"9 -36 LINE SMOOTH",
"-5 -100 OFFCURVE",
"-71 -150 OFFCURVE",
"-123 -150 CURVE SMOOTH",
"-149 -150 OFFCURVE",
"-178 -145 OFFCURVE",
"-196 -124 CURVE",
"-214 -136 LINE",
"-195 -162 OFFCURVE",
"-163 -170 OFFCURVE",
"-126 -170 CURVE SMOOTH"
);
}
);
width = 182;
},
{
anchors = (
{
name = top;
position = "{53, 522}";
}
);
layerId = "6CB1ED38-7E52-4100-AE28-A91D059C1838";
paths = (
{
closed = 1;
nodes = (
"-70 -209 CURVE SMOOTH",
"48 -209 OFFCURVE",
"149 -119 OFFCURVE",
"177 12 CURVE SMOOTH",
"286 526 LINE",
"95 526 LINE",
"-17 -3 LINE SMOOTH",
"-23 -30 OFFCURVE",
"-38 -46 OFFCURVE",
"-60 -46 CURVE SMOOTH",
"-76 -46 OFFCURVE",
"-91 -38 OFFCURVE",
"-98 -26 CURVE",
"-203 -155 LINE",
"-171 -190 OFFCURVE",
"-123 -209 OFFCURVE"
);
}
);
width = 286;
}
);
leftKerningGroup = i;
rightKerningGroup = i;
unicode = 0237;
},
{
glyphname = k;
lastChange = "2016-08-17 14:38:19 +0000";
layers = (
{
anchors = (
{
name = bottom;
position = "{202, 0}";
}
);
background = {
paths = (
{
closed = 1;
nodes = (
"381 0 LINE",
"405 0 LINE",
"285 242 LINE",
"424 267 OFFCURVE",
"511 338 OFFCURVE",
"511 426 CURVE SMOOTH",
"511 492 OFFCURVE",
"464 531 OFFCURVE",
"385 531 CURVE SMOOTH",
"289 531 OFFCURVE",
"188 462 OFFCURVE",
"99 325 CURVE",
"81 281 LINE",
"194 440 OFFCURVE",
"289 512 OFFCURVE",
"382 512 CURVE SMOOTH",
"449 512 OFFCURVE",
"489 479 OFFCURVE",
"489 423 CURVE SMOOTH",
"489 344 OFFCURVE",
"407 284 OFFCURVE",
"257 255 CURVE"
);
},
{
closed = 1;
nodes = (
"17 0 LINE",
"37 0 LINE",
"192 730 LINE",
"172 730 LINE"
);
}
);
};
layerId = UUID0;
paths = (
{
closed = 1;
nodes = (
"381 0 LINE",
"405 0 LINE",
"285 242 LINE",
"424 267 OFFCURVE",
"511 338 OFFCURVE",
"511 426 CURVE SMOOTH",
"511 492 OFFCURVE",
"464 531 OFFCURVE",
"385 531 CURVE SMOOTH",
"289 531 OFFCURVE",
"188 462 OFFCURVE",
"99 325 CURVE",
"81 281 LINE",
"194 440 OFFCURVE",
"289 512 OFFCURVE",
"382 512 CURVE SMOOTH",
"449 512 OFFCURVE",
"489 479 OFFCURVE",
"489 423 CURVE SMOOTH",
"489 344 OFFCURVE",
"407 284 OFFCURVE",
"257 255 CURVE"
);
},
{
closed = 1;
nodes = (
"17 0 LINE",
"37 0 LINE",
"192 730 LINE",
"172 730 LINE"
);
}
);
width = 521;
},
{
anchors = (
{
name = bottom;
position = "{237, 0}";
}
);
layerId = "6CB1ED38-7E52-4100-AE28-A91D059C1838";
paths = (
{
closed = 1;
nodes = (
"309 0 LINE",
"509 0 LINE",
"432 189 LINE",
"514 239 OFFCURVE",
"562 318 OFFCURVE",
"562 407 CURVE SMOOTH",
"562 486 OFFCURVE",
"520 531 OFFCURVE",
"447 531 CURVE SMOOTH",
"363 531 OFFCURVE",
"290 473 OFFCURVE",
"239 365 CURVE",
"209 197 LINE",
"229 287 OFFCURVE",
"296 369 OFFCURVE",
"349 369 CURVE SMOOTH",
"374 369 OFFCURVE",
"392 350 OFFCURVE",
"392 324 CURVE SMOOTH",
"392 273 OFFCURVE",
"331 232 OFFCURVE",
"235 215 CURVE"
);
},
{
closed = 1;
nodes = (
"-16 0 LINE",
"172 0 LINE",
"327 730 LINE",
"139 730 LINE"
);
}
);
width = 582;
}
);
leftKerningGroup = h;
rightKerningGroup = k;
unicode = 006B;
},
{
glyphname = kgreenlandic;
lastChange = "2016-08-17 14:38:19 +0000";
layers = (
{
background = {
paths = (
{
closed = 1;
nodes = (
"17 0 LINE",
"37 0 LINE",
"73 169 LINE",
"233 297 LINE",
"380 0 LINE",
"404 0 LINE",
"251 311 LINE",
"509 517 LINE",
"482 517 LINE",
"79 196 LINE",
"147 519 LINE",
"127 519 LINE"
);
}
);
};
layerId = UUID0;
paths = (
{
closed = 1;
nodes = (
"17 0 LINE",
"37 0 LINE",
"73 169 LINE",
"233 297 LINE",
"380 0 LINE",
"404 0 LINE",
"251 311 LINE",
"509 517 LINE",
"482 517 LINE",
"79 196 LINE",
"147 519 LINE",
"127 519 LINE"
);
}
);
width = 484;
},
{
layerId = "6CB1ED38-7E52-4100-AE28-A91D059C1838";
paths = (
{
closed = 1;
nodes = (
"-16 0 LINE",
"174 0 LINE",
"206 150 LINE",
"245 192 LINE",
"312 0 LINE",
"513 0 LINE",
"388 296 LINE",
"606 526 LINE",
"407 526 LINE",
"244 331 LINE",
"286 526 LINE",
"96 526 LINE"
);
}
);
width = 564;
}
);
unicode = 0138;
},
{
glyphname = l;
lastChange = "2016-08-17 14:38:19 +0000";
layers = (
{
anchors = (
{
name = bottom;
position = "{99, 0}";
},
{
name = top;
position = "{142, 519}";
}
);
background = {
paths = (
{
closed = 1;
nodes = (
"114 -5 OFFCURVE",
"147 1 OFFCURVE",
"165 7 CURVE",
"162 23 LINE",
"145 18 OFFCURVE",
"122 14 OFFCURVE",
"108 14 CURVE SMOOTH",
"75 14 OFFCURVE",
"56 31 OFFCURVE",
"56 61 CURVE SMOOTH",
"56 66 OFFCURVE",
"57 71 OFFCURVE",
"58 77 CURVE SMOOTH",
"197 730 LINE",
"177 730 LINE",
"38 77 LINE SMOOTH",
"36 69 OFFCURVE",
"36 62 OFFCURVE",
"36 56 CURVE SMOOTH",
"36 19 OFFCURVE",
"59 -5 OFFCURVE",
"96 -5 CURVE SMOOTH"
);
}
);
};
layerId = UUID0;
paths = (
{
closed = 1;
nodes = (
"114 -5 OFFCURVE",
"147 1 OFFCURVE",
"165 7 CURVE",
"162 23 LINE",
"145 18 OFFCURVE",
"122 14 OFFCURVE",
"108 14 CURVE SMOOTH",
"75 14 OFFCURVE",
"56 31 OFFCURVE",
"56 61 CURVE SMOOTH",
"56 66 OFFCURVE",
"57 71 OFFCURVE",
"58 77 CURVE SMOOTH",
"197 730 LINE",
"177 730 LINE",
"38 77 LINE SMOOTH",
"36 69 OFFCURVE",
"36 62 OFFCURVE",
"36 56 CURVE SMOOTH",
"36 19 OFFCURVE",
"59 -5 OFFCURVE",
"96 -5 CURVE SMOOTH"
);
}
);
width = 224;
},
{
anchors = (
{
name = bottom;
position = "{116, 0}";
},
{
name = top;
position = "{195, 521}";
}
);
layerId = "6CB1ED38-7E52-4100-AE28-A91D059C1838";
paths = (
{
closed = 1;
nodes = (
"132 -10 CURVE SMOOTH",
"181 -10 OFFCURVE",
"245 3 OFFCURVE",
"293 24 CURVE",
"299 164 LINE",
"282 155 OFFCURVE",
"262 149 OFFCURVE",
"247 149 CURVE SMOOTH",
"223 149 OFFCURVE",
"211 162 OFFCURVE",
"211 187 CURVE SMOOTH",
"211 193 OFFCURVE",
"212 201 OFFCURVE",
"214 209 CURVE SMOOTH",
"325 730 LINE",
"135 730 LINE",
"10 142 LINE SMOOTH",
"6 126 OFFCURVE",
"5 111 OFFCURVE",
"5 97 CURVE SMOOTH",
"5 28 OFFCURVE",
"49 -10 OFFCURVE"
);
}
);
width = 345;
}
);
leftKerningGroup = l;
rightKerningGroup = l;
unicode = 006C;
},
{
glyphname = lslash;
lastChange = "2016-08-17 14:38:19 +0000";
layers = (
{
background = {
paths = (
{
closed = 1;
nodes = (
"32 304 LINE",
"266 504 LINE",
"254 518 LINE",
"21 318 LINE"
);
},
{
closed = 1;
nodes = (
"129 -5 OFFCURVE",
"162 1 OFFCURVE",
"180 7 CURVE",
"177 23 LINE",
"159 18 OFFCURVE",
"137 14 OFFCURVE",
"123 14 CURVE SMOOTH",
"90 14 OFFCURVE",
"71 31 OFFCURVE",
"71 61 CURVE SMOOTH",
"71 66 OFFCURVE",
"72 71 OFFCURVE",
"73 77 CURVE SMOOTH",
"212 730 LINE",
"192 730 LINE",
"53 77 LINE SMOOTH",
"51 69 OFFCURVE",
"51 62 OFFCURVE",
"51 55 CURVE SMOOTH",
"51 18 OFFCURVE",
"73 -5 OFFCURVE",
"111 -5 CURVE SMOOTH"
);
}
);
};
layerId = UUID0;
paths = (
{
closed = 1;
nodes = (
"32 304 LINE",
"266 504 LINE",
"254 518 LINE",
"21 318 LINE"
);
},
{
closed = 1;
nodes = (
"129 -5 OFFCURVE",
"162 1 OFFCURVE",
"180 7 CURVE",
"177 23 LINE",
"159 18 OFFCURVE",
"137 14 OFFCURVE",
"123 14 CURVE SMOOTH",
"90 14 OFFCURVE",
"71 31 OFFCURVE",
"71 61 CURVE SMOOTH",
"71 66 OFFCURVE",
"72 71 OFFCURVE",
"73 77 CURVE SMOOTH",
"212 730 LINE",
"192 730 LINE",
"53 77 LINE SMOOTH",
"51 69 OFFCURVE",
"51 62 OFFCURVE",
"51 55 CURVE SMOOTH",
"51 18 OFFCURVE",
"73 -5 OFFCURVE",
"111 -5 CURVE SMOOTH"
);
}
);
width = 238;
},
{
layerId = "6CB1ED38-7E52-4100-AE28-A91D059C1838";
paths = (
{
closed = 1;
nodes = (
"25 252 LINE",
"409 426 LINE",
"388 527 LINE",
"4 353 LINE"
);
},
{
closed = 1;
nodes = (
"180 -10 CURVE SMOOTH",
"229 -10 OFFCURVE",
"292 3 OFFCURVE",
"341 24 CURVE",
"347 164 LINE",
"330 155 OFFCURVE",
"310 149 OFFCURVE",
"295 149 CURVE SMOOTH",
"271 149 OFFCURVE",
"259 162 OFFCURVE",
"259 187 CURVE SMOOTH",
"259 193 OFFCURVE",
"260 201 OFFCURVE",
"262 209 CURVE SMOOTH",
"373 730 LINE",
"183 730 LINE",
"58 142 LINE SMOOTH",
"54 126 OFFCURVE",
"53 111 OFFCURVE",
"53 97 CURVE SMOOTH",
"53 28 OFFCURVE",
"97 -10 OFFCURVE"
);
}
);
width = 394;
}
);
leftKerningGroup = l;
rightKerningGroup = l;
unicode = 0142;
},
{
glyphname = m;
lastChange = "2016-08-17 14:38:19 +0000";
layers = (
{
background = {
paths = (
{
closed = 1;
nodes = (
"17 0 LINE",
"37 0 LINE",
"107 328 LINE",
"158 435 OFFCURVE",
"247 507 OFFCURVE",
"339 507 CURVE SMOOTH",
"405 507 OFFCURVE",
"436 470 OFFCURVE",
"436 393 CURVE SMOOTH",
"436 365 OFFCURVE",
"432 330 OFFCURVE",
"423 289 CURVE SMOOTH",
"362 0 LINE",
"382 0 LINE",
"451 327 LINE",
"501 434 OFFCURVE",
"591 507 OFFCURVE",
"682 507 CURVE SMOOTH",
"748 507 OFFCURVE",
"780 469 OFFCURVE",
"780 390 CURVE SMOOTH",
"780 362 OFFCURVE",
"776 328 OFFCURVE",
"768 289 CURVE SMOOTH",
"707 0 LINE",
"727 0 LINE",
"788 289 LINE SMOOTH",
"797 330 OFFCURVE",
"801 367 OFFCURVE",
"801 396 CURVE SMOOTH",
"801 484 OFFCURVE",
"764 527 OFFCURVE",
"688 527 CURVE SMOOTH",
"603 527 OFFCURVE",
"507 472 OFFCURVE",
"457 370 CURVE",
"466 469 OFFCURVE",
"421 527 OFFCURVE",
"340 527 CURVE SMOOTH",
"262 527 OFFCURVE",
"181 475 OFFCURVE",
"119 385 CURVE",
"147 519 LINE",
"127 519 LINE"
);
}
);
};
layerId = UUID0;
paths = (
{
closed = 1;
nodes = (
"17 0 LINE",
"37 0 LINE",
"107 328 LINE",
"158 435 OFFCURVE",
"247 507 OFFCURVE",
"339 507 CURVE SMOOTH",
"405 507 OFFCURVE",
"436 470 OFFCURVE",
"436 393 CURVE SMOOTH",
"436 365 OFFCURVE",
"432 330 OFFCURVE",
"423 289 CURVE SMOOTH",
"362 0 LINE",
"382 0 LINE",
"451 327 LINE",
"501 434 OFFCURVE",
"591 507 OFFCURVE",
"682 507 CURVE SMOOTH",
"748 507 OFFCURVE",
"780 469 OFFCURVE",
"780 390 CURVE SMOOTH",
"780 362 OFFCURVE",
"776 328 OFFCURVE",
"768 289 CURVE SMOOTH",
"707 0 LINE",
"727 0 LINE",
"788 289 LINE SMOOTH",
"797 330 OFFCURVE",
"801 367 OFFCURVE",
"801 396 CURVE SMOOTH",
"801 484 OFFCURVE",
"764 527 OFFCURVE",
"688 527 CURVE SMOOTH",
"603 527 OFFCURVE",
"507 472 OFFCURVE",
"457 370 CURVE",
"458 378 OFFCURVE",
"458 386 OFFCURVE",
"458 394 CURVE SMOOTH",
"458 478 OFFCURVE",
"414 527 OFFCURVE",
"340 527 CURVE SMOOTH",
"262 527 OFFCURVE",
"181 475 OFFCURVE",
"119 385 CURVE",
"147 519 LINE",
"127 519 LINE"
);
}
);
width = 866;
},
{
layerId = "6CB1ED38-7E52-4100-AE28-A91D059C1838";
paths = (
{
closed = 1;
nodes = (
"-16 0 LINE",
"174 0 LINE",
"237 295 LINE",
"259 336 OFFCURVE",
"301 370 OFFCURVE",
"328 370 CURVE SMOOTH",
"346 370 OFFCURVE",
"361 356 OFFCURVE",
"361 325 CURVE SMOOTH",
"361 317 OFFCURVE",
"360 307 OFFCURVE",
"358 296 CURVE SMOOTH",
"295 0 LINE",
"485 0 LINE",
"547 295 LINE",
"570 337 OFFCURVE",
"612 370 OFFCURVE",
"639 370 CURVE SMOOTH",
"656 370 OFFCURVE",
"671 356 OFFCURVE",
"671 325 CURVE SMOOTH",
"671 317 OFFCURVE",
"670 307 OFFCURVE",
"668 296 CURVE SMOOTH",
"605 0 LINE",
"795 0 LINE",
"869 346 LINE SMOOTH",
"877 385 OFFCURVE",
"878 408 OFFCURVE",
"878 420 CURVE SMOOTH",
"878 479 OFFCURVE",
"855 536 OFFCURVE",
"760 536 CURVE SMOOTH",
"686 536 OFFCURVE",
"613 502 OFFCURVE",
"566 445 CURVE",
"561 493 OFFCURVE",
"536 536 OFFCURVE",
"447 536 CURVE SMOOTH",
"371 536 OFFCURVE",
"296 505 OFFCURVE",
"250 448 CURVE",
"267 526 LINE",
"96 526 LINE"
);
}
);
width = 903;
}
);
leftKerningGroup = n;
rightKerningGroup = n;
unicode = 006D;
},
{
glyphname = n;
lastChange = "2016-08-17 14:38:19 +0000";
layers = (
{
anchors = (
{
name = bottom;
position = "{217, 0}";
},
{
name = top;
position = "{328, 519}";
}
);
background = {
paths = (
{
closed = 1;
nodes = (
"17 0 LINE",
"37 0 LINE",
"107 328 LINE",
"156 430 OFFCURVE",
"268 507 OFFCURVE",
"362 507 CURVE SMOOTH",
"425 507 OFFCURVE",
"455 472 OFFCURVE",
"455 396 CURVE SMOOTH",
"455 367 OFFCURVE",
"451 331 OFFCURVE",
"442 289 CURVE SMOOTH",
"381 0 LINE",
"401 0 LINE",
"462 289 LINE SMOOTH",
"471 332 OFFCURVE",
"476 369 OFFCURVE",
"476 401 CURVE SMOOTH",
"476 487 OFFCURVE",
"440 527 OFFCURVE",
"366 527 CURVE SMOOTH",
"278 527 OFFCURVE",
"177 469 OFFCURVE",
"119 385 CURVE",
"147 519 LINE",
"127 519 LINE"
);
}
);
};
layerId = UUID0;
paths = (
{
closed = 1;
nodes = (
"17 0 LINE",
"37 0 LINE",
"107 328 LINE",
"156 430 OFFCURVE",
"268 507 OFFCURVE",
"362 507 CURVE SMOOTH",
"425 507 OFFCURVE",
"455 472 OFFCURVE",
"455 396 CURVE SMOOTH",
"455 367 OFFCURVE",
"451 331 OFFCURVE",
"442 289 CURVE SMOOTH",
"381 0 LINE",
"401 0 LINE",
"462 289 LINE SMOOTH",
"471 332 OFFCURVE",
"476 369 OFFCURVE",
"476 401 CURVE SMOOTH",
"476 487 OFFCURVE",
"440 527 OFFCURVE",
"366 527 CURVE SMOOTH",
"278 527 OFFCURVE",
"177 469 OFFCURVE",
"119 385 CURVE",
"147 519 LINE",
"127 519 LINE"
);
}
);
width = 540;
},
{
anchors = (
{
name = bottom;
position = "{240, 0}";
},
{
name = top;
position = "{353, 522}";
}
);
layerId = "6CB1ED38-7E52-4100-AE28-A91D059C1838";
paths = (
{
closed = 1;
nodes = (
"-16 0 LINE",
"174 0 LINE",
"237 295 LINE",
"262 339 OFFCURVE",
"305 370 OFFCURVE",
"331 370 CURVE SMOOTH",
"352 370 OFFCURVE",
"370 355 OFFCURVE",
"370 322 CURVE SMOOTH",
"370 314 OFFCURVE",
"369 306 OFFCURVE",
"367 296 CURVE SMOOTH",
"304 0 LINE",
"494 0 LINE",
"567 346 LINE SMOOTH",
"571 367 OFFCURVE",
"575 392 OFFCURVE",
"575 417 CURVE SMOOTH",
"575 477 OFFCURVE",
"552 536 OFFCURVE",
"455 536 CURVE SMOOTH",
"369 536 OFFCURVE",
"297 505 OFFCURVE",
"250 448 CURVE",
"267 526 LINE",
"96 526 LINE"
);
}
);
width = 601;
}
);
leftKerningGroup = n;
rightKerningGroup = n;
unicode = 006E;
},
{
glyphname = eng;
lastChange = "2016-08-17 14:38:19 +0000";
layers = (
{
background = {
paths = (
{
closed = 1;
nodes = (
"297 -170 OFFCURVE",
"376 -114 OFFCURVE",
"393 -36 CURVE SMOOTH",
"462 289 LINE SMOOTH",
"471 332 OFFCURVE",
"476 369 OFFCURVE",
"476 401 CURVE SMOOTH",
"476 487 OFFCURVE",
"440 527 OFFCURVE",
"366 527 CURVE SMOOTH",
"278 527 OFFCURVE",
"177 469 OFFCURVE",
"119 385 CURVE",
"147 519 LINE",
"127 519 LINE",
"17 0 LINE",
"37 0 LINE",
"107 328 LINE",
"156 430 OFFCURVE",
"268 507 OFFCURVE",
"362 507 CURVE SMOOTH",
"425 507 OFFCURVE",
"455 472 OFFCURVE",
"455 396 CURVE SMOOTH",
"455 367 OFFCURVE",
"451 331 OFFCURVE",
"442 289 CURVE SMOOTH",
"373 -36 LINE SMOOTH",
"359 -100 OFFCURVE",
"293 -150 OFFCURVE",
"241 -150 CURVE SMOOTH",
"214 -150 OFFCURVE",
"186 -145 OFFCURVE",
"168 -124 CURVE",
"150 -136 LINE",
"169 -162 OFFCURVE",
"201 -170 OFFCURVE",
"238 -170 CURVE SMOOTH"
);
}
);
};
layerId = UUID0;
paths = (
{
closed = 1;
nodes = (
"297 -170 OFFCURVE",
"376 -114 OFFCURVE",
"393 -36 CURVE SMOOTH",
"462 289 LINE SMOOTH",
"471 332 OFFCURVE",
"476 369 OFFCURVE",
"476 401 CURVE SMOOTH",
"476 487 OFFCURVE",
"440 527 OFFCURVE",
"366 527 CURVE SMOOTH",
"278 527 OFFCURVE",
"177 469 OFFCURVE",
"119 385 CURVE",
"147 519 LINE",
"127 519 LINE",
"17 0 LINE",
"37 0 LINE",
"107 328 LINE",
"156 430 OFFCURVE",
"268 507 OFFCURVE",
"362 507 CURVE SMOOTH",
"425 507 OFFCURVE",
"455 472 OFFCURVE",
"455 396 CURVE SMOOTH",
"455 367 OFFCURVE",
"451 331 OFFCURVE",
"442 289 CURVE SMOOTH",
"373 -36 LINE SMOOTH",
"359 -100 OFFCURVE",
"293 -150 OFFCURVE",
"241 -150 CURVE SMOOTH",
"214 -150 OFFCURVE",
"186 -145 OFFCURVE",
"168 -124 CURVE",
"150 -136 LINE",
"169 -162 OFFCURVE",
"201 -170 OFFCURVE",
"238 -170 CURVE SMOOTH"
);
}
);
width = 540;
},
{
layerId = "6CB1ED38-7E52-4100-AE28-A91D059C1838";
paths = (
{
closed = 1;
nodes = (
"248 -209 CURVE SMOOTH",
"365 -209 OFFCURVE",
"467 -119 OFFCURVE",
"495 12 CURVE SMOOTH",
"566 346 LINE SMOOTH",
"571 368 OFFCURVE",
"575 394 OFFCURVE",
"575 419 CURVE SMOOTH",
"575 478 OFFCURVE",
"552 536 OFFCURVE",
"455 536 CURVE SMOOTH",
"369 536 OFFCURVE",
"297 505 OFFCURVE",
"250 448 CURVE",
"267 526 LINE",
"96 526 LINE",
"-16 0 LINE",
"174 0 LINE",
"237 295 LINE",
"262 339 OFFCURVE",
"305 370 OFFCURVE",
"331 370 CURVE SMOOTH",
"352 370 OFFCURVE",
"370 355 OFFCURVE",
"370 322 CURVE SMOOTH",
"370 314 OFFCURVE",
"369 306 OFFCURVE",
"367 296 CURVE SMOOTH",
"303 -3 LINE SMOOTH",
"297 -30 OFFCURVE",
"281 -46 OFFCURVE",
"259 -46 CURVE SMOOTH",
"242 -46 OFFCURVE",
"228 -38 OFFCURVE",
"221 -26 CURVE",
"116 -155 LINE",
"148 -190 OFFCURVE",
"195 -209 OFFCURVE"
);
}
);
width = 600;
}
);
leftKerningGroup = n;
rightKerningGroup = n;
unicode = 014B;
},
{
color = 7;
glyphname = o;
lastChange = "2016-08-17 14:56:30 +0000";
layers = (
{
anchors = (
{
name = bottom;
position = "{216, 0}";
},
{
name = top;
position = "{326, 519}";
}
);
background = {
paths = (
{
closed = 1;
nodes = (
"363 -10 OFFCURVE",
"513 142 OFFCURVE",
"513 308 CURVE SMOOTH",
"513 429 OFFCURVE",
"438 527 OFFCURVE",
"329 527 CURVE SMOOTH",
"183 527 OFFCURVE",
"30 376 OFFCURVE",
"30 207 CURVE SMOOTH",
"30 88 OFFCURVE",
"103 -10 OFFCURVE",
"215 -10 CURVE SMOOTH"
);
},
{
closed = 1;
nodes = (
"118 10 OFFCURVE",
"50 99 OFFCURVE",
"50 209 CURVE SMOOTH",
"50 365 OFFCURVE",
"192 507 OFFCURVE",
"325 507 CURVE SMOOTH",
"424 507 OFFCURVE",
"493 416 OFFCURVE",
"493 305 CURVE SMOOTH",
"493 150 OFFCURVE",
"352 10 OFFCURVE",
"218 10 CURVE SMOOTH"
);
}
);
};
layerId = UUID0;
paths = (
{
closed = 1;
nodes = (
"383 -10 OFFCURVE",
"513 142 OFFCURVE",
"513 308 CURVE SMOOTH",
"513 429 OFFCURVE",
"458 527 OFFCURVE",
"329 527 CURVE SMOOTH",
"163 527 OFFCURVE",
"30 376 OFFCURVE",
"30 207 CURVE SMOOTH",
"30 88 OFFCURVE",
"86 -10 OFFCURVE",
"215 -10 CURVE SMOOTH"
);
},
{
closed = 1;
nodes = (
"101 10 OFFCURVE",
"50 99 OFFCURVE",
"50 209 CURVE SMOOTH",
"50 365 OFFCURVE",
"172 507 OFFCURVE",
"325 507 CURVE SMOOTH",
"444 507 OFFCURVE",
"493 416 OFFCURVE",
"493 305 CURVE SMOOTH",
"493 150 OFFCURVE",
"362 10 OFFCURVE",
"218 10 CURVE SMOOTH"
);
}
);
width = 561;
},
{
anchors = (
{
name = bottom;
position = "{235, 0}";
},
{
name = top;
position = "{346, 522}";
}
);
layerId = "6CB1ED38-7E52-4100-AE28-A91D059C1838";
paths = (
{
closed = 1;
nodes = (
"443 -10 OFFCURVE",
"573 154 OFFCURVE",
"573 317 CURVE SMOOTH",
"573 436 OFFCURVE",
"501 536 OFFCURVE",
"348 536 CURVE SMOOTH",
"136 536 OFFCURVE",
"7 373 OFFCURVE",
"7 209 CURVE SMOOTH",
"7 91 OFFCURVE",
"79 -10 OFFCURVE",
"232 -10 CURVE SMOOTH"
);
},
{
closed = 1;
nodes = (
"228 150 OFFCURVE",
"205 181 OFFCURVE",
"205 232 CURVE SMOOTH",
"205 315 OFFCURVE",
"255 376 OFFCURVE",
"314 376 CURVE SMOOTH",
"352 376 OFFCURVE",
"375 345 OFFCURVE",
"375 294 CURVE SMOOTH",
"375 211 OFFCURVE",
"325 150 OFFCURVE",
"266 150 CURVE SMOOTH"
);
}
);
width = 596;
}
);
leftKerningGroup = o;
rightKerningGroup = o;
unicode = 006F;
},
{
glyphname = oslash;
lastChange = "2016-08-17 14:38:19 +0000";
layers = (
{
background = {
paths = (
{
closed = 1;
nodes = (
"363 -10 OFFCURVE",
"513 142 OFFCURVE",
"513 308 CURVE SMOOTH",
"513 429 OFFCURVE",
"438 527 OFFCURVE",
"329 527 CURVE SMOOTH",
"183 527 OFFCURVE",
"30 376 OFFCURVE",
"30 207 CURVE SMOOTH",
"30 88 OFFCURVE",
"103 -10 OFFCURVE",
"215 -10 CURVE SMOOTH"
);
},
{
closed = 1;
nodes = (
"118 10 OFFCURVE",
"50 99 OFFCURVE",
"50 209 CURVE SMOOTH",
"50 365 OFFCURVE",
"191 507 OFFCURVE",
"325 507 CURVE SMOOTH",
"424 507 OFFCURVE",
"493 416 OFFCURVE",
"493 305 CURVE SMOOTH",
"493 150 OFFCURVE",
"352 10 OFFCURVE",
"218 10 CURVE SMOOTH"
);
},
{
closed = 1;
nodes = (
"55 0 LINE",
"79 0 LINE",
"109 38 LINE",
"95 51 LINE"
);
},
{
closed = 1;
nodes = (
"109 38 LINE",
"450 466 LINE",
"435 479 LINE",
"96 51 LINE"
);
},
{
closed = 1;
nodes = (
"450 466 LINE",
"492 519 LINE",
"467 519 LINE",
"435 479 LINE"
);
}
);
};
layerId = UUID0;
paths = (
{
closed = 1;
nodes = (
"363 -10 OFFCURVE",
"513 142 OFFCURVE",
"513 308 CURVE SMOOTH",
"513 429 OFFCURVE",
"438 527 OFFCURVE",
"329 527 CURVE SMOOTH",
"183 527 OFFCURVE",
"30 376 OFFCURVE",
"30 207 CURVE SMOOTH",
"30 88 OFFCURVE",
"103 -10 OFFCURVE",
"215 -10 CURVE SMOOTH"
);
},
{
closed = 1;
nodes = (
"118 10 OFFCURVE",
"50 99 OFFCURVE",
"50 209 CURVE SMOOTH",
"50 365 OFFCURVE",
"191 507 OFFCURVE",
"325 507 CURVE SMOOTH",
"424 507 OFFCURVE",
"493 416 OFFCURVE",
"493 305 CURVE SMOOTH",
"493 150 OFFCURVE",
"352 10 OFFCURVE",
"218 10 CURVE SMOOTH"
);
},
{
closed = 1;
nodes = (
"55 0 LINE",
"79 0 LINE",
"109 38 LINE",
"95 51 LINE"
);
},
{
closed = 1;
nodes = (
"109 38 LINE",
"450 466 LINE",
"435 479 LINE",
"96 51 LINE"
);
},
{
closed = 1;
nodes = (
"450 466 LINE",
"492 519 LINE",
"467 519 LINE",
"435 479 LINE"
);
}
);
width = 561;
},
{
layerId = "6CB1ED38-7E52-4100-AE28-A91D059C1838";
paths = (
{
closed = 1;
nodes = (
"232 -10 CURVE SMOOTH",
"443 -10 OFFCURVE",
"573 154 OFFCURVE",
"573 317 CURVE SMOOTH",
"573 436 OFFCURVE",
"502 536 OFFCURVE",
"348 536 CURVE SMOOTH",
"137 536 OFFCURVE",
"7 373 OFFCURVE",
"7 209 CURVE SMOOTH",
"7 91 OFFCURVE",
"79 -10 OFFCURVE"
);
},
{
closed = 1;
nodes = (
"266 150 CURVE SMOOTH",
"228 150 OFFCURVE",
"205 181 OFFCURVE",
"205 232 CURVE SMOOTH",
"205 315 OFFCURVE",
"255 376 OFFCURVE",
"314 376 CURVE SMOOTH",
"352 376 OFFCURVE",
"376 345 OFFCURVE",
"376 294 CURVE SMOOTH",
"376 211 OFFCURVE",
"325 150 OFFCURVE"
);
},
{
closed = 1;
nodes = (
"-52 -6 LINE",
"47 -6 LINE",
"167 104 LINE",
"127 158 LINE"
);
},
{
closed = 1;
nodes = (
"180 121 LINE",
"453 381 LINE",
"405 418 LINE",
"144 169 LINE"
);
},
{
closed = 1;
nodes = (
"471 393 LINE",
"624 532 LINE",
"523 532 LINE",
"418 435 LINE"
);
}
);
width = 596;
}
);
leftKerningGroup = o;
rightKerningGroup = o;
unicode = 00F8;
},
{
glyphname = oe;
lastChange = "2016-08-17 14:38:19 +0000";
layers = (
{
background = {
paths = (
{
closed = 1;
nodes = (
"318 -10 OFFCURVE",
"426 68 OFFCURVE",
"481 185 CURVE",
"488 72 OFFCURVE",
"570 -10 OFFCURVE",
"676 -10 CURVE SMOOTH",
"761 -10 OFFCURVE",
"856 42 OFFCURVE",
"900 114 CURVE",
"882 119 LINE",
"843 55 OFFCURVE",
"761 10 OFFCURVE",
"682 10 CURVE SMOOTH",
"575 10 OFFCURVE",
"502 95 OFFCURVE",
"502 208 CURVE SMOOTH",
"502 221 OFFCURVE",
"503 234 OFFCURVE",
"505 248 CURVE",
"955 248 LINE",
"958 255 OFFCURVE",
"961 264 OFFCURVE",
"961 305 CURVE SMOOTH",
"961 442 OFFCURVE",
"894 527 OFFCURVE",
"778 527 CURVE SMOOTH",
"666 527 OFFCURVE",
"563 452 OFFCURVE",
"511 332 CURVE",
"508 449 OFFCURVE",
"435 527 OFFCURVE",
"331 527 CURVE SMOOTH",
"180 527 OFFCURVE",
"30 377 OFFCURVE",
"30 204 CURVE SMOOTH",
"30 84 OFFCURVE",
"103 -10 OFFCURVE",
"213 -10 CURVE SMOOTH"
);
},
{
closed = 1;
nodes = (
"117 10 OFFCURVE",
"50 96 OFFCURVE",
"50 207 CURVE SMOOTH",
"50 366 OFFCURVE",
"190 507 OFFCURVE",
"326 507 CURVE SMOOTH",
"426 507 OFFCURVE",
"493 419 OFFCURVE",
"493 307 CURVE SMOOTH",
"493 148 OFFCURVE",
"355 10 OFFCURVE",
"218 10 CURVE SMOOTH"
);
},
{
closed = 1;
nodes = (
"509 268 LINE",
"545 405 OFFCURVE",
"657 507 OFFCURVE",
"774 507 CURVE SMOOTH",
"876 507 OFFCURVE",
"943 429 OFFCURVE",
"943 316 CURVE SMOOTH",
"943 300 OFFCURVE",
"941 284 OFFCURVE",
"939 268 CURVE"
);
}
);
};
layerId = UUID0;
paths = (
{
closed = 1;
nodes = (
"318 -10 OFFCURVE",
"426 68 OFFCURVE",
"481 185 CURVE",
"488 72 OFFCURVE",
"570 -10 OFFCURVE",
"676 -10 CURVE SMOOTH",
"761 -10 OFFCURVE",
"856 42 OFFCURVE",
"900 114 CURVE",
"882 119 LINE",
"843 55 OFFCURVE",
"761 10 OFFCURVE",
"682 10 CURVE SMOOTH",
"575 10 OFFCURVE",
"502 95 OFFCURVE",
"502 208 CURVE SMOOTH",
"502 221 OFFCURVE",
"503 234 OFFCURVE",
"505 248 CURVE",
"955 248 LINE",
"958 255 OFFCURVE",
"961 264 OFFCURVE",
"961 305 CURVE SMOOTH",
"961 442 OFFCURVE",
"894 527 OFFCURVE",
"778 527 CURVE SMOOTH",
"666 527 OFFCURVE",
"563 452 OFFCURVE",
"511 332 CURVE",
"508 449 OFFCURVE",
"435 527 OFFCURVE",
"331 527 CURVE SMOOTH",
"180 527 OFFCURVE",
"30 377 OFFCURVE",
"30 204 CURVE SMOOTH",
"30 84 OFFCURVE",
"103 -10 OFFCURVE",
"213 -10 CURVE SMOOTH"
);
},
{
closed = 1;
nodes = (
"117 10 OFFCURVE",
"50 96 OFFCURVE",
"50 207 CURVE SMOOTH",
"50 366 OFFCURVE",
"190 507 OFFCURVE",
"326 507 CURVE SMOOTH",
"426 507 OFFCURVE",
"493 419 OFFCURVE",
"493 307 CURVE SMOOTH",
"493 148 OFFCURVE",
"355 10 OFFCURVE",
"218 10 CURVE SMOOTH"
);
},
{
closed = 1;
nodes = (
"509 268 LINE",
"545 405 OFFCURVE",
"657 507 OFFCURVE",
"774 507 CURVE SMOOTH",
"876 507 OFFCURVE",
"943 429 OFFCURVE",
"943 316 CURVE SMOOTH",
"943 300 OFFCURVE",
"941 284 OFFCURVE",
"939 268 CURVE"
);
}
);
width = 1000;
},
{
layerId = "6CB1ED38-7E52-4100-AE28-A91D059C1838";
paths = (
{
closed = 1;
nodes = (
"230 -10 CURVE SMOOTH",
"294 -10 OFFCURVE",
"342 10 OFFCURVE",
"427 70 CURVE",
"487 11 OFFCURVE",
"527 -10 OFFCURVE",
"592 -10 CURVE SMOOTH",
"703 -10 OFFCURVE",
"808 44 OFFCURVE",
"872 133 CURVE",
"725 179 LINE",
"707 146 OFFCURVE",
"665 122 OFFCURVE",
"626 122 CURVE SMOOTH",
"586 122 OFFCURVE",
"560 149 OFFCURVE",
"560 189 CURVE SMOOTH",
"560 194 OFFCURVE",
"561 199 OFFCURVE",
"562 205 CURVE",
"906 205 LINE",
"917 231 OFFCURVE",
"931 266 OFFCURVE",
"931 317 CURVE SMOOTH",
"931 445 OFFCURVE",
"846 536 OFFCURVE",
"710 536 CURVE SMOOTH",
"639 536 OFFCURVE",
"582 511 OFFCURVE",
"508 450 CURVE",
"468 509 OFFCURVE",
"418 536 OFFCURVE",
"344 536 CURVE SMOOTH",
"160 536 OFFCURVE",
"7 394 OFFCURVE",
"7 209 CURVE SMOOTH",
"7 80 OFFCURVE",
"92 -10 OFFCURVE"
);
},
{
closed = 1;
nodes = (
"266 150 CURVE SMOOTH",
"227 150 OFFCURVE",
"205 182 OFFCURVE",
"205 231 CURVE SMOOTH",
"205 312 OFFCURVE",
"252 376 OFFCURVE",
"314 376 CURVE SMOOTH",
"353 376 OFFCURVE",
"375 344 OFFCURVE",
"375 295 CURVE SMOOTH",
"375 214 OFFCURVE",
"328 150 OFFCURVE"
);
},
{
closed = 1;
nodes = (
"580 319 LINE",
"595 369 OFFCURVE",
"632 401 OFFCURVE",
"675 401 CURVE SMOOTH",
"714 401 OFFCURVE",
"736 375 OFFCURVE",
"736 332 CURVE SMOOTH",
"736 328 OFFCURVE",
"735 324 OFFCURVE",
"735 319 CURVE"
);
}
);
width = 947;
}
);
leftKerningGroup = o;
rightKerningGroup = e;
unicode = 0153;
},
{
glyphname = p;
lastChange = "2016-08-17 14:38:19 +0000";
layers = (
{
background = {
paths = (
{
closed = 1;
nodes = (
"-28 -213 LINE",
"-8 -213 LINE",
"63 119 LINE",
"90 49 OFFCURVE",
"149 -10 OFFCURVE",
"236 -10 CURVE SMOOTH",
"396 -10 OFFCURVE",
"528 149 OFFCURVE",
"528 306 CURVE SMOOTH",
"528 419 OFFCURVE",
"460 527 OFFCURVE",
"342 527 CURVE SMOOTH",
"267 527 OFFCURVE",
"180 478 OFFCURVE",
"124 409 CURVE",
"147 519 LINE",
"128 519 LINE"
);
},
{
closed = 1;
nodes = (
"153 10 OFFCURVE",
"89 77 OFFCURVE",
"71 161 CURVE",
"111 348 LINE",
"134 431 OFFCURVE",
"261 507 OFFCURVE",
"337 507 CURVE SMOOTH",
"441 507 OFFCURVE",
"508 412 OFFCURVE",
"508 304 CURVE SMOOTH",
"508 166 OFFCURVE",
"387 10 OFFCURVE",
"240 10 CURVE SMOOTH"
);
}
);
};
layerId = UUID0;
paths = (
{
closed = 1;
nodes = (
"-28 -213 LINE",
"-8 -213 LINE",
"63 119 LINE",
"90 49 OFFCURVE",
"149 -10 OFFCURVE",
"236 -10 CURVE SMOOTH",
"396 -10 OFFCURVE",
"528 149 OFFCURVE",
"528 306 CURVE SMOOTH",
"528 419 OFFCURVE",
"460 527 OFFCURVE",
"342 527 CURVE SMOOTH",
"267 527 OFFCURVE",
"180 478 OFFCURVE",
"124 409 CURVE",
"147 519 LINE",
"128 519 LINE"
);
},
{
closed = 1;
nodes = (
"153 10 OFFCURVE",
"89 77 OFFCURVE",
"71 161 CURVE",
"111 348 LINE",
"134 431 OFFCURVE",
"261 507 OFFCURVE",
"337 507 CURVE SMOOTH",
"441 507 OFFCURVE",
"508 412 OFFCURVE",
"508 304 CURVE SMOOTH",
"508 166 OFFCURVE",
"387 10 OFFCURVE",
"240 10 CURVE SMOOTH"
);
}
);
width = 577;
},
{
layerId = "6CB1ED38-7E52-4100-AE28-A91D059C1838";
paths = (
{
closed = 1;
nodes = (
"-62 -213 LINE",
"128 -213 LINE",
"190 78 LINE",
"205 21 OFFCURVE",
"253 -10 OFFCURVE",
"324 -10 CURVE SMOOTH",
"469 -10 OFFCURVE",
"603 144 OFFCURVE",
"603 324 CURVE SMOOTH",
"603 447 OFFCURVE",
"533 536 OFFCURVE",
"422 536 CURVE SMOOTH",
"347 536 OFFCURVE",
"290 504 OFFCURVE",
"243 447 CURVE",
"260 526 LINE",
"95 526 LINE"
);
},
{
closed = 1;
nodes = (
"292 150 CURVE SMOOTH",
"257 150 OFFCURVE",
"229 185 OFFCURVE",
"222 231 CURVE",
"242 322 LINE",
"274 358 OFFCURVE",
"301 376 OFFCURVE",
"332 376 CURVE SMOOTH",
"378 376 OFFCURVE",
"404 343 OFFCURVE",
"404 293 CURVE SMOOTH",
"404 218 OFFCURVE",
"348 150 OFFCURVE"
);
}
);
width = 626;
}
);
leftKerningGroup = n;
rightKerningGroup = b;
unicode = 0070;
},
{
glyphname = thorn;
lastChange = "2016-08-17 14:38:19 +0000";
layers = (
{
background = {
paths = (
{
closed = 1;
nodes = (
"-28 -213 LINE",
"-8 -213 LINE",
"60 108 LINE",
"88 39 OFFCURVE",
"146 -10 OFFCURVE",
"236 -10 CURVE SMOOTH",
"407 -10 OFFCURVE",
"529 168 OFFCURVE",
"529 321 CURVE SMOOTH",
"529 427 OFFCURVE",
"470 527 OFFCURVE",
"351 527 CURVE SMOOTH",
"264 527 OFFCURVE",
"188 473 OFFCURVE",
"122 398 CURVE",
"188 710 LINE",
"168 710 LINE"
);
},
{
closed = 1;
nodes = (
"156 10 OFFCURVE",
"71 73 OFFCURVE",
"71 154 CURVE SMOOTH",
"71 156 OFFCURVE",
"71 161 OFFCURVE",
"73 169 CURVE SMOOTH",
"113 356 LINE",
"170 439 OFFCURVE",
"254 507 OFFCURVE",
"347 507 CURVE SMOOTH",
"450 507 OFFCURVE",
"508 426 OFFCURVE",
"508 316 CURVE SMOOTH",
"508 148 OFFCURVE",
"373 10 OFFCURVE",
"243 10 CURVE SMOOTH"
);
}
);
};
layerId = UUID0;
paths = (
{
closed = 1;
nodes = (
"-28 -213 LINE",
"-8 -213 LINE",
"60 108 LINE",
"88 39 OFFCURVE",
"146 -10 OFFCURVE",
"236 -10 CURVE SMOOTH",
"407 -10 OFFCURVE",
"529 168 OFFCURVE",
"529 321 CURVE SMOOTH",
"529 427 OFFCURVE",
"470 527 OFFCURVE",
"351 527 CURVE SMOOTH",
"264 527 OFFCURVE",
"188 473 OFFCURVE",
"122 398 CURVE",
"188 710 LINE",
"168 710 LINE"
);
},
{
closed = 1;
nodes = (
"156 10 OFFCURVE",
"71 73 OFFCURVE",
"71 154 CURVE SMOOTH",
"71 156 OFFCURVE",
"71 161 OFFCURVE",
"73 169 CURVE SMOOTH",
"113 356 LINE",
"170 439 OFFCURVE",
"254 507 OFFCURVE",
"347 507 CURVE SMOOTH",
"450 507 OFFCURVE",
"508 426 OFFCURVE",
"508 316 CURVE SMOOTH",
"508 148 OFFCURVE",
"373 10 OFFCURVE",
"243 10 CURVE SMOOTH"
);
}
);
width = 576;
},
{
layerId = "6CB1ED38-7E52-4100-AE28-A91D059C1838";
paths = (
{
closed = 1;
nodes = (
"-62 -213 LINE",
"133 -213 LINE",
"171 -32 OFFCURVE",
"175 -14 OFFCURVE",
"175 -14 CURVE",
"178 -20 OFFCURVE",
"191 -31 OFFCURVE",
"235 -31 CURVE SMOOTH",
"422 -31 OFFCURVE",
"554 164 OFFCURVE",
"554 323 CURVE SMOOTH",
"554 436 OFFCURVE",
"487 544 OFFCURVE",
"354 544 CURVE SMOOTH",
"320 544 OFFCURVE",
"298 537 OFFCURVE",
"290 525 CURVE SMOOTH",
"290 525 OFFCURVE",
"290 525 OFFCURVE",
"329 710 CURVE",
"134 710 LINE"
);
},
{
closed = 1;
nodes = (
"262 139 CURVE SMOOTH",
"225 139 OFFCURVE",
"215 164 OFFCURVE",
"215 174 CURVE SMOOTH",
"215 177 OFFCURVE",
"216 177 OFFCURVE",
"216 179 CURVE",
"248 327 LINE",
"268 356 OFFCURVE",
"284 374 OFFCURVE",
"310 374 CURVE SMOOTH",
"343 374 OFFCURVE",
"358 344 OFFCURVE",
"358 292 CURVE SMOOTH",
"358 215 OFFCURVE",
"326 139 OFFCURVE"
);
}
);
width = 575;
}
);
leftKerningGroup = h;
rightKerningGroup = b;
unicode = 00FE;
},
{
glyphname = q;
lastChange = "2016-08-17 14:38:19 +0000";
layers = (
{
background = {
paths = (
{
closed = 1;
nodes = (
"285 -10 OFFCURVE",
"363 35 OFFCURVE",
"436 119 CURVE",
"374 -173 LINE SMOOTH",
"373 -176 OFFCURVE",
"373 -179 OFFCURVE",
"373 -182 CURVE SMOOTH",
"373 -192 OFFCURVE",
"376 -201 OFFCURVE",
"382 -207 CURVE SMOOTH",
"387 -211 OFFCURVE",
"393 -213 OFFCURVE",
"401 -213 CURVE",
"405 -193 LINE",
"397 -193 OFFCURVE",
"393 -188 OFFCURVE",
"393 -180 CURVE SMOOTH",
"393 -178 OFFCURVE",
"393 -176 OFFCURVE",
"394 -173 CURVE SMOOTH",
"541 519 LINE",
"521 519 LINE",
"498 409 LINE",
"473 475 OFFCURVE",
"408 527 OFFCURVE",
"331 527 CURVE SMOOTH",
"180 527 OFFCURVE",
"29 371 OFFCURVE",
"29 205 CURVE SMOOTH",
"29 93 OFFCURVE",
"91 -10 OFFCURVE",
"208 -10 CURVE SMOOTH"
);
},
{
closed = 1;
nodes = (
"110 10 OFFCURVE",
"49 101 OFFCURVE",
"49 208 CURVE SMOOTH",
"49 353 OFFCURVE",
"181 507 OFFCURVE",
"327 507 CURVE SMOOTH",
"419 507 OFFCURVE",
"475 439 OFFCURVE",
"488 358 CURVE",
"445 161 LINE",
"391 82 OFFCURVE",
"306 10 OFFCURVE",
"212 10 CURVE SMOOTH"
);
}
);
};
layerId = UUID0;
paths = (
{
closed = 1;
nodes = (
"285 -10 OFFCURVE",
"363 35 OFFCURVE",
"436 119 CURVE",
"374 -173 LINE SMOOTH",
"373 -176 OFFCURVE",
"373 -179 OFFCURVE",
"373 -182 CURVE SMOOTH",
"373 -192 OFFCURVE",
"376 -201 OFFCURVE",
"382 -207 CURVE SMOOTH",
"387 -211 OFFCURVE",
"393 -213 OFFCURVE",
"401 -213 CURVE",
"405 -193 LINE",
"397 -193 OFFCURVE",
"393 -188 OFFCURVE",
"393 -180 CURVE SMOOTH",
"393 -178 OFFCURVE",
"393 -176 OFFCURVE",
"394 -173 CURVE SMOOTH",
"541 519 LINE",
"521 519 LINE",
"498 409 LINE",
"473 475 OFFCURVE",
"408 527 OFFCURVE",
"331 527 CURVE SMOOTH",
"180 527 OFFCURVE",
"29 371 OFFCURVE",
"29 205 CURVE SMOOTH",
"29 93 OFFCURVE",
"91 -10 OFFCURVE",
"208 -10 CURVE SMOOTH"
);
},
{
closed = 1;
nodes = (
"110 10 OFFCURVE",
"49 101 OFFCURVE",
"49 208 CURVE SMOOTH",
"49 353 OFFCURVE",
"181 507 OFFCURVE",
"327 507 CURVE SMOOTH",
"419 507 OFFCURVE",
"475 439 OFFCURVE",
"488 358 CURVE",
"445 161 LINE",
"391 82 OFFCURVE",
"306 10 OFFCURVE",
"212 10 CURVE SMOOTH"
);
}
);
width = 576;
},
{
layerId = "6CB1ED38-7E52-4100-AE28-A91D059C1838";
paths = (
{
closed = 1;
nodes = (
"169 -10 CURVE SMOOTH",
"241 -10 OFFCURVE",
"302 21 OFFCURVE",
"341 78 CURVE",
"304 -96 LINE SMOOTH",
"302 -105 OFFCURVE",
"301 -113 OFFCURVE",
"301 -121 CURVE SMOOTH",
"301 -178 OFFCURVE",
"347 -213 OFFCURVE",
"410 -213 CURVE SMOOTH",
"439 -213 OFFCURVE",
"482 -209 OFFCURVE",
"517 -203 CURVE",
"551 -43 LINE",
"524 -42 OFFCURVE",
"513 -34 OFFCURVE",
"513 -14 CURVE SMOOTH",
"513 -8 OFFCURVE",
"514 -1 OFFCURVE",
"516 7 CURVE SMOOTH",
"626 526 LINE",
"461 526 LINE",
"444 445 LINE",
"421 502 OFFCURVE",
"379 536 OFFCURVE",
"304 536 CURVE SMOOTH",
"148 536 OFFCURVE",
"7 388 OFFCURVE",
"7 200 CURVE SMOOTH",
"7 78 OFFCURVE",
"69 -10 OFFCURVE"
);
},
{
closed = 1;
nodes = (
"278 150 CURVE SMOOTH",
"232 150 OFFCURVE",
"205 183 OFFCURVE",
"205 234 CURVE SMOOTH",
"205 308 OFFCURVE",
"260 376 OFFCURVE",
"317 376 CURVE SMOOTH",
"352 376 OFFCURVE",
"380 344 OFFCURVE",
"388 298 CURVE",
"368 204 LINE",
"337 168 OFFCURVE",
"308 150 OFFCURVE"
);
}
);
width = 626;
}
);
leftKerningGroup = a;
rightKerningGroup = a.alt;
unicode = 0071;
},
{
glyphname = r;
lastChange = "2016-08-17 14:38:19 +0000";
layers = (
{
anchors = (
{
name = bottom;
position = "{31, 0}";
},
{
name = top;
position = "{221, 519}";
}
);
background = {
paths = (
{
closed = 1;
nodes = (
"17 0 LINE",
"37 0 LINE",
"107 328 LINE",
"155 431 OFFCURVE",
"241 495 OFFCURVE",
"335 499 CURVE",
"339 519 LINE",
"333 519 OFFCURVE",
"326 519 OFFCURVE",
"320 518 CURVE SMOOTH",
"248 511 OFFCURVE",
"173 466 OFFCURVE",
"119 385 CURVE",
"147 519 LINE",
"127 519 LINE"
);
}
);
};
layerId = UUID0;
paths = (
{
closed = 1;
nodes = (
"17 0 LINE",
"37 0 LINE",
"107 328 LINE",
"155 431 OFFCURVE",
"241 495 OFFCURVE",
"335 499 CURVE",
"339 519 LINE",
"333 519 OFFCURVE",
"326 519 OFFCURVE",
"320 518 CURVE SMOOTH",
"248 511 OFFCURVE",
"173 466 OFFCURVE",
"119 385 CURVE",
"147 519 LINE",
"127 519 LINE"
);
}
);
width = 317;
},
{
anchors = (
{
name = bottom;
position = "{81, 0}";
},
{
name = top;
position = "{183, 522}";
}
);
layerId = "6CB1ED38-7E52-4100-AE28-A91D059C1838";
paths = (
{
closed = 1;
nodes = (
"-16 0 LINE",
"174 0 LINE",
"240 312 LINE",
"276 349 OFFCURVE",
"340 364 OFFCURVE",
"408 364 CURVE",
"444 535 LINE",
"440 536 OFFCURVE",
"436 536 OFFCURVE",
"422 536 CURVE SMOOTH",
"363 536 OFFCURVE",
"299 496 OFFCURVE",
"248 426 CURVE",
"270 526 LINE",
"96 526 LINE"
);
}
);
width = 408;
}
);
leftKerningGroup = n;
rightKerningGroup = r;
unicode = 0072;
},
{
glyphname = s;
lastChange = "2016-08-17 14:38:19 +0000";
layers = (
{
anchors = (
{
name = bottom;
position = "{172, 0}";
},
{
name = top;
position = "{278, 519}";
}
);
background = {
paths = (
{
closed = 1;
nodes = (
"284 -10 OFFCURVE",
"377 61 OFFCURVE",
"377 162 CURVE SMOOTH",
"377 232 OFFCURVE",
"312 251 OFFCURVE",
"213 277 CURVE SMOOTH",
"134 298 OFFCURVE",
"93 311 OFFCURVE",
"93 362 CURVE SMOOTH",
"93 461 OFFCURVE",
"180 507 OFFCURVE",
"273 507 CURVE SMOOTH",
"336 507 OFFCURVE",
"392 485 OFFCURVE",
"407 444 CURVE",
"426 452 LINE",
"413 495 OFFCURVE",
"361 527 OFFCURVE",
"281 527 CURVE SMOOTH",
"174 527 OFFCURVE",
"72 472 OFFCURVE",
"72 356 CURVE SMOOTH",
"72 294 OFFCURVE",
"121 279 OFFCURVE",
"208 257 CURVE SMOOTH",
"301 233 OFFCURVE",
"356 214 OFFCURVE",
"356 155 CURVE SMOOTH",
"356 67 OFFCURVE",
"272 10 OFFCURVE",
"163 10 CURVE SMOOTH",
"93 10 OFFCURVE",
"45 35 OFFCURVE",
"5 87 CURVE",
"-12 74 LINE",
"25 17 OFFCURVE",
"84 -10 OFFCURVE",
"159 -10 CURVE SMOOTH"
);
}
);
};
layerId = UUID0;
paths = (
{
closed = 1;
nodes = (
"284 -10 OFFCURVE",
"377 61 OFFCURVE",
"377 162 CURVE SMOOTH",
"377 232 OFFCURVE",
"312 251 OFFCURVE",
"213 277 CURVE SMOOTH",
"134 298 OFFCURVE",
"93 311 OFFCURVE",
"93 362 CURVE SMOOTH",
"93 461 OFFCURVE",
"180 507 OFFCURVE",
"273 507 CURVE SMOOTH",
"336 507 OFFCURVE",
"392 485 OFFCURVE",
"407 444 CURVE",
"426 452 LINE",
"413 495 OFFCURVE",
"361 527 OFFCURVE",
"281 527 CURVE SMOOTH",
"174 527 OFFCURVE",
"72 472 OFFCURVE",
"72 356 CURVE SMOOTH",
"72 294 OFFCURVE",
"121 279 OFFCURVE",
"208 257 CURVE SMOOTH",
"301 233 OFFCURVE",
"356 214 OFFCURVE",
"356 155 CURVE SMOOTH",
"356 67 OFFCURVE",
"272 10 OFFCURVE",
"163 10 CURVE SMOOTH",
"93 10 OFFCURVE",
"45 35 OFFCURVE",
"5 87 CURVE",
"-12 74 LINE",
"25 17 OFFCURVE",
"84 -10 OFFCURVE",
"159 -10 CURVE SMOOTH"
);
}
);
width = 450;
},
{
anchors = (
{
name = bottom;
position = "{180, 0}";
},
{
name = top;
position = "{289, 522}";
}
);
layerId = "6CB1ED38-7E52-4100-AE28-A91D059C1838";
paths = (
{
closed = 1;
nodes = (
"191 -10 CURVE SMOOTH",
"340 -10 OFFCURVE",
"441 74 OFFCURVE",
"441 196 CURVE SMOOTH",
"441 261 OFFCURVE",
"397 298 OFFCURVE",
"281 333 CURVE SMOOTH",
"234 347 OFFCURVE",
"219 357 OFFCURVE",
"219 374 CURVE SMOOTH",
"219 394 OFFCURVE",
"234 406 OFFCURVE",
"256 406 CURVE SMOOTH",
"291 406 OFFCURVE",
"324 389 OFFCURVE",
"379 347 CURVE",
"474 461 LINE",
"417 522 OFFCURVE",
"357 537 OFFCURVE",
"283 537 CURVE SMOOTH",
"147 537 OFFCURVE",
"35 443 OFFCURVE",
"35 326 CURVE SMOOTH",
"35 265 OFFCURVE",
"81 233 OFFCURVE",
"195 195 CURVE SMOOTH",
"238 181 OFFCURVE",
"251 168 OFFCURVE",
"251 153 CURVE SMOOTH",
"251 135 OFFCURVE",
"242 123 OFFCURVE",
"215 123 CURVE SMOOTH",
"168 123 OFFCURVE",
"114 148 OFFCURVE",
"61 192 CURVE",
"-27 78 LINE",
"19 21 OFFCURVE",
"104 -10 OFFCURVE"
);
}
);
width = 485;
}
);
leftKerningGroup = s;
rightKerningGroup = s;
unicode = 0073;
},
{
glyphname = germandbls;
lastChange = "2016-08-17 14:38:19 +0000";
layers = (
{
background = {
paths = (
{
closed = 1;
nodes = (
"155 -6 LINE",
"351 1 OFFCURVE",
"462 95 OFFCURVE",
"462 245 CURVE SMOOTH",
"462 326 OFFCURVE",
"418 385 OFFCURVE",
"335 404 CURVE",
"411 419 OFFCURVE",
"485 500 OFFCURVE",
"485 583 CURVE SMOOTH",
"485 658 OFFCURVE",
"429 714 OFFCURVE",
"344 714 CURVE SMOOTH",
"240 714 OFFCURVE",
"151 632 OFFCURVE",
"125 509 CURVE SMOOTH",
"17 0 LINE",
"37 0 LINE",
"145 509 LINE SMOOTH",
"169 621 OFFCURVE",
"245 694 OFFCURVE",
"339 694 CURVE SMOOTH",
"414 694 OFFCURVE",
"464 644 OFFCURVE",
"464 576 CURVE SMOOTH",
"464 486 OFFCURVE",
"380 413 OFFCURVE",
"285 413 CURVE SMOOTH",
"270 413 LINE",
"266 393 LINE",
"282 393 LINE SMOOTH",
"381 393 OFFCURVE",
"441 332 OFFCURVE",
"441 240 CURVE SMOOTH",
"441 102 OFFCURVE",
"336 16 OFFCURVE",
"159 13 CURVE"
);
}
);
};
layerId = UUID0;
paths = (
{
closed = 1;
nodes = (
"155 -6 LINE",
"351 1 OFFCURVE",
"462 95 OFFCURVE",
"462 245 CURVE SMOOTH",
"462 326 OFFCURVE",
"418 385 OFFCURVE",
"335 404 CURVE",
"411 419 OFFCURVE",
"485 500 OFFCURVE",
"485 583 CURVE SMOOTH",
"485 658 OFFCURVE",
"429 714 OFFCURVE",
"344 714 CURVE SMOOTH",
"240 714 OFFCURVE",
"151 632 OFFCURVE",
"125 509 CURVE SMOOTH",
"17 0 LINE",
"37 0 LINE",
"145 509 LINE SMOOTH",
"169 621 OFFCURVE",
"245 694 OFFCURVE",
"339 694 CURVE SMOOTH",
"414 694 OFFCURVE",
"464 644 OFFCURVE",
"464 576 CURVE SMOOTH",
"464 486 OFFCURVE",
"380 413 OFFCURVE",
"285 413 CURVE SMOOTH",
"270 413 LINE",
"266 393 LINE",
"282 393 LINE SMOOTH",
"381 393 OFFCURVE",
"441 332 OFFCURVE",
"441 240 CURVE SMOOTH",
"441 102 OFFCURVE",
"336 16 OFFCURVE",
"159 13 CURVE"
);
}
);
width = 523;
},
{
layerId = "6CB1ED38-7E52-4100-AE28-A91D059C1838";
paths = (
{
closed = 1;
nodes = (
"182 -6 LINE",
"325 -6 OFFCURVE",
"511 50 OFFCURVE",
"511 258 CURVE SMOOTH",
"511 328 OFFCURVE",
"481 380 OFFCURVE",
"431 403 CURVE",
"477 426 OFFCURVE",
"531 499 OFFCURVE",
"531 578 CURVE SMOOTH",
"531 664 OFFCURVE",
"465 714 OFFCURVE",
"367 714 CURVE SMOOTH",
"237 714 OFFCURVE",
"119 635 OFFCURVE",
"96 529 CURVE SMOOTH",
"-16 0 LINE",
"164 0 LINE",
"269 494 LINE SMOOTH",
"277 533 OFFCURVE",
"289 554 OFFCURVE",
"313 554 CURVE SMOOTH",
"329 554 OFFCURVE",
"341 542 OFFCURVE",
"341 522 CURVE SMOOTH",
"341 505 OFFCURVE",
"335 473 OFFCURVE",
"300 473 CURVE SMOOTH",
"280 473 LINE",
"244 303 LINE",
"266 303 LINE SMOOTH",
"280 303 OFFCURVE",
"312 288 OFFCURVE",
"312 250 CURVE SMOOTH",
"312 198 OFFCURVE",
"266 168 OFFCURVE",
"219 168 CURVE"
);
}
);
width = 546;
}
);
leftKerningGroup = h;
unicode = 00DF;
},
{
glyphname = schwa;
lastChange = "2016-08-17 14:38:19 +0000";
layers = (
{
anchors = (
{
name = bottom;
position = "{220, 0}";
},
{
name = top;
position = "{216, 519}";
}
);
background = {
paths = (
{
closed = 1;
nodes = (
"352 -10 OFFCURVE",
"499 137 OFFCURVE",
"499 306 CURVE SMOOTH",
"499 429 OFFCURVE",
"424 527 OFFCURVE",
"313 527 CURVE SMOOTH",
"227 527 OFFCURVE",
"132 474 OFFCURVE",
"91 403 CURVE",
"108 398 LINE",
"149 462 OFFCURVE",
"232 507 OFFCURVE",
"308 507 CURVE SMOOTH",
"410 507 OFFCURVE",
"479 424 OFFCURVE",
"479 311 CURVE SMOOTH",
"479 297 OFFCURVE",
"478 283 OFFCURVE",
"476 269 CURVE",
"25 269 LINE",
"17 247 OFFCURVE",
"16 217 OFFCURVE",
"16 195 CURVE SMOOTH",
"16 77 OFFCURVE",
"91 -10 OFFCURVE",
"203 -10 CURVE SMOOTH"
);
},
{
closed = 1;
nodes = (
"104 10 OFFCURVE",
"38 87 OFFCURVE",
"38 201 CURVE SMOOTH",
"38 216 OFFCURVE",
"39 232 OFFCURVE",
"42 249 CURVE",
"471 249 LINE",
"436 112 OFFCURVE",
"323 10 OFFCURVE",
"207 10 CURVE SMOOTH"
);
}
);
};
layerId = UUID0;
paths = (
{
closed = 1;
nodes = (
"352 -10 OFFCURVE",
"499 137 OFFCURVE",
"499 306 CURVE SMOOTH",
"499 429 OFFCURVE",
"424 527 OFFCURVE",
"313 527 CURVE SMOOTH",
"227 527 OFFCURVE",
"132 474 OFFCURVE",
"91 403 CURVE",
"108 398 LINE",
"149 462 OFFCURVE",
"232 507 OFFCURVE",
"308 507 CURVE SMOOTH",
"410 507 OFFCURVE",
"479 424 OFFCURVE",
"479 311 CURVE SMOOTH",
"479 297 OFFCURVE",
"478 283 OFFCURVE",
"476 269 CURVE",
"25 269 LINE",
"17 247 OFFCURVE",
"16 217 OFFCURVE",
"16 195 CURVE SMOOTH",
"16 77 OFFCURVE",
"91 -10 OFFCURVE",
"203 -10 CURVE SMOOTH"
);
},
{
closed = 1;
nodes = (
"104 10 OFFCURVE",
"38 87 OFFCURVE",
"38 201 CURVE SMOOTH",
"38 216 OFFCURVE",
"39 232 OFFCURVE",
"42 249 CURVE",
"471 249 LINE",
"436 112 OFFCURVE",
"323 10 OFFCURVE",
"207 10 CURVE SMOOTH"
);
}
);
width = 548;
},
{
layerId = "6CB1ED38-7E52-4100-AE28-A91D059C1838";
paths = (
{
closed = 1;
nodes = (
"227 -10 CURVE SMOOTH",
"440 -10 OFFCURVE",
"569 155 OFFCURVE",
"569 320 CURVE SMOOTH",
"569 437 OFFCURVE",
"495 536 OFFCURVE",
"343 536 CURVE SMOOTH",
"219 536 OFFCURVE",
"120 477 OFFCURVE",
"61 393 CURVE",
"212 347 LINE",
"229 380 OFFCURVE",
"271 400 OFFCURVE",
"308 400 CURVE SMOOTH",
"341 400 OFFCURVE",
"372 381 OFFCURVE",
"372 337 CURVE SMOOTH",
"372 332 OFFCURVE",
"372 326 OFFCURVE",
"371 321 CURVE",
"26 321 LINE",
"12 284 OFFCURVE",
"2 237 OFFCURVE",
"2 197 CURVE SMOOTH",
"2 81 OFFCURVE",
"73 -10 OFFCURVE"
);
},
{
closed = 1;
nodes = (
"258 125 CURVE SMOOTH",
"221 125 OFFCURVE",
"201 150 OFFCURVE",
"201 192 CURVE SMOOTH",
"201 197 OFFCURVE",
"201 202 OFFCURVE",
"202 207 CURVE",
"351 207 LINE",
"334 156 OFFCURVE",
"300 125 OFFCURVE"
);
}
);
width = 591;
}
);
rightKerningGroup = o;
unicode = 0259;
},
{
glyphname = t;
lastChange = "2016-08-17 14:38:19 +0000";
layers = (
{
anchors = (
{
name = bottom;
position = "{130, 0}";
},
{
name = top;
position = "{256, 519}";
}
);
background = {
paths = (
{
closed = 1;
nodes = (
"171 -5 OFFCURVE",
"215 23 OFFCURVE",
"216 24 CURVE",
"209 40 LINE",
"206 38 OFFCURVE",
"167 15 OFFCURVE",
"124 15 CURVE SMOOTH",
"94 15 OFFCURVE",
"69 33 OFFCURVE",
"69 66 CURVE SMOOTH",
"69 75 OFFCURVE",
"72 89 OFFCURVE",
"80 126 CURVE SMOOTH",
"160 499 LINE",
"279 499 LINE",
"283 519 LINE",
"165 519 LINE",
"203 700 LINE",
"183 700 LINE",
"145 519 LINE",
"73 519 LINE",
"69 499 LINE",
"140 499 LINE",
"50 75 LINE SMOOTH",
"49 69 OFFCURVE",
"48 63 OFFCURVE",
"48 58 CURVE SMOOTH",
"48 20 OFFCURVE",
"78 -5 OFFCURVE",
"119 -5 CURVE SMOOTH"
);
}
);
};
layerId = UUID0;
paths = (
{
closed = 1;
nodes = (
"171 -5 OFFCURVE",
"215 23 OFFCURVE",
"216 24 CURVE",
"209 40 LINE",
"206 38 OFFCURVE",
"167 15 OFFCURVE",
"124 15 CURVE SMOOTH",
"94 15 OFFCURVE",
"69 33 OFFCURVE",
"69 66 CURVE SMOOTH",
"69 75 OFFCURVE",
"72 89 OFFCURVE",
"80 126 CURVE SMOOTH",
"160 499 LINE",
"279 499 LINE",
"283 519 LINE",
"165 519 LINE",
"203 700 LINE",
"183 700 LINE",
"145 519 LINE",
"73 519 LINE",
"69 499 LINE",
"140 499 LINE",
"50 75 LINE SMOOTH",
"49 69 OFFCURVE",
"48 63 OFFCURVE",
"48 58 CURVE SMOOTH",
"48 20 OFFCURVE",
"78 -5 OFFCURVE",
"119 -5 CURVE SMOOTH"
);
}
);
width = 281;
},
{
anchors = (
{
name = bottom;
position = "{154, 0}";
},
{
name = top;
position = "{227, 522}";
}
);
layerId = "6CB1ED38-7E52-4100-AE28-A91D059C1838";
paths = (
{
closed = 1;
nodes = (
"172 -11 CURVE SMOOTH",
"227 -11 OFFCURVE",
"293 6 OFFCURVE",
"351 29 CURVE",
"349 179 LINE",
"323 169 OFFCURVE",
"298 162 OFFCURVE",
"282 162 CURVE SMOOTH",
"263 162 OFFCURVE",
"252 170 OFFCURVE",
"252 191 CURVE SMOOTH",
"252 196 OFFCURVE",
"253 202 OFFCURVE",
"254 209 CURVE SMOOTH",
"291 383 LINE",
"388 383 LINE",
"418 526 LINE",
"322 526 LINE",
"357 691 LINE",
"167 691 LINE",
"132 526 LINE",
"71 526 LINE",
"40 383 LINE",
"101 383 LINE",
"50 142 LINE SMOOTH",
"46 125 OFFCURVE",
"45 110 OFFCURVE",
"45 96 CURVE SMOOTH",
"45 17 OFFCURVE",
"100 -11 OFFCURVE"
);
}
);
width = 415;
}
);
leftKerningGroup = t;
rightKerningGroup = t;
unicode = 0074;
},
{
glyphname = tbar;
lastChange = "2016-08-17 14:38:19 +0000";
layers = (
{
background = {
paths = (
{
closed = 1;
nodes = (
"36 339 LINE",
"246 339 LINE",
"250 359 LINE",
"40 359 LINE"
);
},
{
closed = 1;
nodes = (
"172 -5 OFFCURVE",
"215 22 OFFCURVE",
"217 24 CURVE",
"210 40 LINE",
"207 38 OFFCURVE",
"168 15 OFFCURVE",
"125 15 CURVE SMOOTH",
"94 15 OFFCURVE",
"70 32 OFFCURVE",
"70 65 CURVE SMOOTH",
"70 76 OFFCURVE",
"74 92 OFFCURVE",
"79 116 CURVE SMOOTH",
"161 499 LINE",
"280 499 LINE",
"284 519 LINE",
"165 519 LINE",
"204 700 LINE",
"184 700 LINE",
"145 519 LINE",
"74 519 LINE",
"70 499 LINE",
"141 499 LINE",
"51 75 LINE SMOOTH",
"50 69 OFFCURVE",
"49 63 OFFCURVE",
"49 58 CURVE SMOOTH",
"49 20 OFFCURVE",
"79 -5 OFFCURVE",
"120 -5 CURVE SMOOTH"
);
}
);
};
layerId = UUID0;
paths = (
{
closed = 1;
nodes = (
"36 339 LINE",
"246 339 LINE",
"250 359 LINE",
"40 359 LINE"
);
},
{
closed = 1;
nodes = (
"172 -5 OFFCURVE",
"215 22 OFFCURVE",
"217 24 CURVE",
"210 40 LINE",
"207 38 OFFCURVE",
"168 15 OFFCURVE",
"125 15 CURVE SMOOTH",
"94 15 OFFCURVE",
"70 32 OFFCURVE",
"70 65 CURVE SMOOTH",
"70 76 OFFCURVE",
"74 92 OFFCURVE",
"79 116 CURVE SMOOTH",
"161 499 LINE",
"280 499 LINE",
"284 519 LINE",
"165 519 LINE",
"204 700 LINE",
"184 700 LINE",
"145 519 LINE",
"74 519 LINE",
"70 499 LINE",
"141 499 LINE",
"51 75 LINE SMOOTH",
"50 69 OFFCURVE",
"49 63 OFFCURVE",
"49 58 CURVE SMOOTH",
"49 20 OFFCURVE",
"79 -5 OFFCURVE",
"120 -5 CURVE SMOOTH"
);
}
);
width = 283;
},
{
layerId = "6CB1ED38-7E52-4100-AE28-A91D059C1838";
paths = (
{
closed = 1;
nodes = (
"9 227 LINE",
"357 227 LINE",
"380 336 LINE",
"32 336 LINE"
);
},
{
closed = 1;
nodes = (
"173 -11 CURVE SMOOTH",
"229 -11 OFFCURVE",
"295 6 OFFCURVE",
"353 29 CURVE",
"351 179 LINE",
"325 169 OFFCURVE",
"300 162 OFFCURVE",
"284 162 CURVE SMOOTH",
"265 162 OFFCURVE",
"254 170 OFFCURVE",
"254 191 CURVE SMOOTH",
"254 196 OFFCURVE",
"254 202 OFFCURVE",
"256 209 CURVE SMOOTH",
"293 383 LINE",
"390 383 LINE",
"420 526 LINE",
"324 526 LINE",
"359 691 LINE",
"169 691 LINE",
"134 526 LINE",
"73 526 LINE",
"42 383 LINE",
"103 383 LINE",
"52 142 LINE SMOOTH",
"48 125 OFFCURVE",
"47 110 OFFCURVE",
"47 96 CURVE SMOOTH",
"47 17 OFFCURVE",
"102 -11 OFFCURVE"
);
}
);
width = 417;
}
);
leftKerningGroup = t;
rightKerningGroup = t;
unicode = 0167;
},
{
glyphname = u;
lastChange = "2016-08-17 14:38:19 +0000";
layers = (
{
anchors = (
{
name = bottom;
position = "{410, 11}";
},
{
name = top;
position = "{311, 519}";
}
);
background = {
paths = (
{
closed = 1;
nodes = (
"256 -10 OFFCURVE",
"351 45 OFFCURVE",
"412 132 CURVE",
"392 36 OFFCURVE",
"392 33 OFFCURVE",
"392 29 CURVE SMOOTH",
"392 16 OFFCURVE",
"397 6 OFFCURVE",
"407 2 CURVE SMOOTH",
"410 1 OFFCURVE",
"414 0 OFFCURVE",
"419 0 CURVE",
"424 20 LINE",
"416 20 OFFCURVE",
"411 25 OFFCURVE",
"411 34 CURVE SMOOTH",
"411 36 OFFCURVE",
"415 52 OFFCURVE",
"418 67 CURVE SMOOTH",
"514 519 LINE",
"494 519 LINE",
"424 189 LINE",
"373 85 OFFCURVE",
"267 10 OFFCURVE",
"172 10 CURVE SMOOTH",
"102 10 OFFCURVE",
"67 49 OFFCURVE",
"67 131 CURVE SMOOTH",
"67 158 OFFCURVE",
"71 191 OFFCURVE",
"79 228 CURVE SMOOTH",
"141 519 LINE",
"121 519 LINE",
"59 228 LINE SMOOTH",
"51 191 OFFCURVE",
"47 158 OFFCURVE",
"47 129 CURVE SMOOTH",
"47 37 OFFCURVE",
"88 -10 OFFCURVE",
"167 -10 CURVE SMOOTH"
);
}
);
};
layerId = UUID0;
paths = (
{
closed = 1;
nodes = (
"256 -10 OFFCURVE",
"351 45 OFFCURVE",
"412 132 CURVE",
"392 36 OFFCURVE",
"392 33 OFFCURVE",
"392 29 CURVE SMOOTH",
"392 16 OFFCURVE",
"397 6 OFFCURVE",
"407 2 CURVE SMOOTH",
"410 1 OFFCURVE",
"414 0 OFFCURVE",
"419 0 CURVE",
"424 20 LINE",
"416 20 OFFCURVE",
"411 25 OFFCURVE",
"411 34 CURVE SMOOTH",
"411 36 OFFCURVE",
"415 52 OFFCURVE",
"418 67 CURVE SMOOTH",
"514 519 LINE",
"494 519 LINE",
"424 189 LINE",
"373 85 OFFCURVE",
"267 10 OFFCURVE",
"172 10 CURVE SMOOTH",
"102 10 OFFCURVE",
"67 49 OFFCURVE",
"67 131 CURVE SMOOTH",
"67 158 OFFCURVE",
"71 191 OFFCURVE",
"79 228 CURVE SMOOTH",
"141 519 LINE",
"121 519 LINE",
"59 228 LINE SMOOTH",
"51 191 OFFCURVE",
"47 158 OFFCURVE",
"47 129 CURVE SMOOTH",
"47 37 OFFCURVE",
"88 -10 OFFCURVE",
"167 -10 CURVE SMOOTH"
);
}
);
width = 551;
},
{
anchors = (
{
name = bottom;
position = "{448, 7}";
},
{
name = top;
position = "{339, 522}";
}
);
layerId = "6CB1ED38-7E52-4100-AE28-A91D059C1838";
paths = (
{
closed = 1;
nodes = (
"132 -10 CURVE SMOOTH",
"215 -10 OFFCURVE",
"285 17 OFFCURVE",
"345 82 CURVE",
"344 75 OFFCURVE",
"343 69 OFFCURVE",
"343 63 CURVE SMOOTH",
"343 10 OFFCURVE",
"384 -10 OFFCURVE",
"441 -10 CURVE SMOOTH",
"461 -10 OFFCURVE",
"488 -7 OFFCURVE",
"523 0 CURVE",
"557 160 LINE",
"538 161 OFFCURVE",
"530 168 OFFCURVE",
"530 186 CURVE SMOOTH",
"530 192 OFFCURVE",
"531 200 OFFCURVE",
"533 210 CURVE SMOOTH",
"600 526 LINE",
"410 526 LINE",
"341 204 LINE",
"302 159 OFFCURVE",
"274 150 OFFCURVE",
"251 150 CURVE SMOOTH",
"227 150 OFFCURVE",
"213 166 OFFCURVE",
"213 196 CURVE SMOOTH",
"213 204 OFFCURVE",
"214 213 OFFCURVE",
"216 223 CURVE SMOOTH",
"280 526 LINE",
"91 526 LINE",
"17 180 LINE SMOOTH",
"12 156 OFFCURVE",
"9 134 OFFCURVE",
"9 114 CURVE SMOOTH",
"9 33 OFFCURVE",
"52 -10 OFFCURVE"
);
}
);
width = 618;
}
);
leftKerningGroup = u;
rightKerningGroup = u;
unicode = 0075;
},
{
glyphname = v;
lastChange = "2016-08-17 14:38:19 +0000";
layers = (
{
background = {
paths = (
{
closed = 1;
nodes = (
"147 0 LINE",
"165 0 LINE",
"310 164 OFFCURVE",
"397 345 OFFCURVE",
"451 519 CURVE",
"431 519 LINE",
"384 371 OFFCURVE",
"295 176 OFFCURVE",
"163 28 CURVE",
"85 519 LINE",
"64 519 LINE"
);
}
);
};
layerId = UUID0;
paths = (
{
closed = 1;
nodes = (
"147 0 LINE",
"165 0 LINE",
"310 164 OFFCURVE",
"397 345 OFFCURVE",
"451 519 CURVE",
"431 519 LINE",
"384 371 OFFCURVE",
"295 176 OFFCURVE",
"163 28 CURVE",
"85 519 LINE",
"64 519 LINE"
);
}
);
width = 451;
},
{
layerId = "6CB1ED38-7E52-4100-AE28-A91D059C1838";
paths = (
{
closed = 1;
nodes = (
"96 0 LINE",
"292 0 LINE",
"427 174 OFFCURVE",
"527 352 OFFCURVE",
"575 526 CURVE",
"405 526 LINE",
"354 378 OFFCURVE",
"321 297 OFFCURVE",
"240 149 CURVE",
"240 526 LINE",
"43 526 LINE"
);
}
);
width = 548;
}
);
unicode = 0076;
},
{
glyphname = w;
lastChange = "2016-08-17 14:38:19 +0000";
layers = (
{
anchors = (
{
name = top;
position = "{411, 519}";
}
);
background = {
paths = (
{
closed = 1;
nodes = (
"154 0 LINE",
"172 0 LINE",
"252 87 OFFCURVE",
"315 180 OFFCURVE",
"365 273 CURVE",
"414 0 LINE",
"432 0 LINE",
"582 164 OFFCURVE",
"672 345 OFFCURVE",
"728 519 CURVE",
"708 519 LINE",
"659 371 OFFCURVE",
"567 176 OFFCURVE",
"430 28 CURVE",
"380 303 LINE",
"416 375 OFFCURVE",
"445 448 OFFCURVE",
"468 519 CURVE",
"448 519 LINE",
"429 463 OFFCURVE",
"405 401 OFFCURVE",
"374 337 CURVE",
"342 519 LINE",
"321 519 LINE",
"359 306 LINE",
"310 210 OFFCURVE",
"247 111 OFFCURVE",
"170 28 CURVE",
"82 519 LINE",
"61 519 LINE"
);
}
);
};
layerId = UUID0;
paths = (
{
closed = 1;
nodes = (
"154 0 LINE",
"172 0 LINE",
"252 87 OFFCURVE",
"315 180 OFFCURVE",
"365 273 CURVE",
"414 0 LINE",
"432 0 LINE",
"582 164 OFFCURVE",
"672 345 OFFCURVE",
"728 519 CURVE",
"708 519 LINE",
"659 371 OFFCURVE",
"567 176 OFFCURVE",
"430 28 CURVE",
"380 303 LINE",
"416 375 OFFCURVE",
"445 448 OFFCURVE",
"468 519 CURVE",
"448 519 LINE",
"429 463 OFFCURVE",
"405 401 OFFCURVE",
"374 337 CURVE",
"342 519 LINE",
"321 519 LINE",
"359 306 LINE",
"310 210 OFFCURVE",
"247 111 OFFCURVE",
"170 28 CURVE",
"82 519 LINE",
"61 519 LINE"
);
}
);
width = 723;
},
{
anchors = (
{
name = top;
position = "{456, 522}";
}
);
layerId = "6CB1ED38-7E52-4100-AE28-A91D059C1838";
paths = (
{
closed = 1;
nodes = (
"127 0 LINE",
"283 0 LINE",
"388 200 LINE",
"408 0 LINE",
"517 0 LINE",
"677 174 OFFCURVE",
"798 352 OFFCURVE",
"870 526 CURVE",
"700 526 LINE",
"635 386 OFFCURVE",
"623 364 OFFCURVE",
"515 224 CURVE",
"508 286 LINE",
"563 362 OFFCURVE",
"599 430 OFFCURVE",
"639 526 CURVE",
"499 526 LINE",
"424 372 LINE",
"415 526 LINE",
"265 526 LINE",
"304 286 LINE",
"252 173 LINE",
"214 526 LINE",
"34 526 LINE"
);
}
);
width = 816;
}
);
leftKerningGroup = w;
rightKerningGroup = w;
unicode = 0077;
},
{
glyphname = x;
lastChange = "2016-08-17 14:38:19 +0000";
layers = (
{
background = {
paths = (
{
closed = 1;
nodes = (
"-44 0 LINE",
"-18 0 LINE",
"206 234 LINE",
"216 244 LINE",
"221 232 LINE",
"347 0 LINE",
"373 0 LINE",
"232 258 LINE",
"485 519 LINE",
"459 519 LINE",
"230 281 LINE",
"222 273 LINE",
"217 285 LINE",
"90 519 LINE",
"64 519 LINE",
"206 258 LINE"
);
}
);
};
layerId = UUID0;
paths = (
{
closed = 1;
nodes = (
"-44 0 LINE",
"-18 0 LINE",
"216 244 LINE",
"221 232 LINE",
"347 0 LINE",
"373 0 LINE",
"232 258 LINE",
"485 519 LINE",
"459 519 LINE",
"222 273 LINE",
"217 285 LINE",
"90 519 LINE",
"64 519 LINE",
"206 258 LINE"
);
}
);
width = 456;
},
{
layerId = "6CB1ED38-7E52-4100-AE28-A91D059C1838";
paths = (
{
closed = 1;
nodes = (
"-69 0 LINE",
"124 0 LINE",
"222 129 LINE",
"235 149 LINE",
"239 129 LINE",
"283 0 LINE",
"476 0 LINE",
"361 263 LINE",
"583 526 LINE",
"393 526 LINE",
"296 397 LINE",
"283 376 LINE",
"278 397 LINE",
"240 526 LINE",
"48 526 LINE",
"157 263 LINE"
);
}
);
width = 535;
}
);
unicode = 0078;
},
{
glyphname = y;
lastChange = "2016-08-17 14:38:19 +0000";
layers = (
{
anchors = (
{
name = top;
position = "{273, 519}";
}
);
background = {
paths = (
{
closed = 1;
nodes = (
"-35 -224 LINE",
"48 -211 OFFCURVE",
"82 -176 OFFCURVE",
"177 -26 CURVE SMOOTH",
"259 103 LINE SMOOTH",
"393 314 OFFCURVE",
"430 390 OFFCURVE",
"466 519 CURVE",
"445 519 LINE",
"410 398 OFFCURVE",
"370 317 OFFCURVE",
"244 117 CURVE SMOOTH",
"186 25 LINE",
"74 519 LINE",
"52 519 LINE",
"171 0 LINE",
"130 -63 LINE SMOOTH",
"69 -157 OFFCURVE",
"44 -191 OFFCURVE",
"-37 -207 CURVE"
);
}
);
};
layerId = UUID0;
paths = (
{
closed = 1;
nodes = (
"-35 -224 LINE",
"48 -211 OFFCURVE",
"82 -176 OFFCURVE",
"177 -26 CURVE SMOOTH",
"259 103 LINE SMOOTH",
"393 314 OFFCURVE",
"430 390 OFFCURVE",
"466 519 CURVE",
"445 519 LINE",
"410 398 OFFCURVE",
"370 317 OFFCURVE",
"244 117 CURVE SMOOTH",
"186 25 LINE",
"74 519 LINE",
"52 519 LINE",
"171 0 LINE",
"130 -63 LINE SMOOTH",
"69 -157 OFFCURVE",
"44 -191 OFFCURVE",
"-37 -207 CURVE"
);
}
);
width = 460;
},
{
anchors = (
{
name = top;
position = "{325, 522}";
}
);
layerId = "6CB1ED38-7E52-4100-AE28-A91D059C1838";
paths = (
{
closed = 1;
nodes = (
"-34 -234 LINE",
"104 -234 OFFCURVE",
"194 -180 OFFCURVE",
"289 -26 CURVE SMOOTH",
"369 103 LINE SMOOTH",
"501 316 OFFCURVE",
"539 397 OFFCURVE",
"575 526 CURVE",
"393 526 LINE",
"370 405 OFFCURVE",
"329 296 OFFCURVE",
"281 217 CURVE SMOOTH",
"247 161 LINE",
"235 526 LINE",
"42 526 LINE",
"111 -11 LINE",
"82 -45 LINE SMOOTH",
"49 -84 OFFCURVE",
"20 -93 OFFCURVE",
"-56 -93 CURVE"
);
}
);
width = 543;
}
);
leftKerningGroup = y;
rightKerningGroup = y;
unicode = 0079;
},
{
glyphname = z;
lastChange = "2016-08-17 14:38:19 +0000";
layers = (
{
anchors = (
{
name = top;
position = "{279, 519}";
}
);
background = {
paths = (
{
closed = 1;
nodes = (
"-36 0 LINE",
"360 0 LINE",
"365 20 LINE",
"-6 20 LINE",
"470 499 LINE",
"474 519 LINE",
"79 519 LINE",
"75 499 LINE",
"445 499 LINE",
"-32 20 LINE"
);
}
);
};
layerId = UUID0;
paths = (
{
closed = 1;
nodes = (
"-36 0 LINE",
"360 0 LINE",
"365 20 LINE",
"-6 20 LINE",
"470 499 LINE",
"474 519 LINE",
"79 519 LINE",
"75 499 LINE",
"445 499 LINE",
"-32 20 LINE"
);
}
);
width = 457;
},
{
anchors = (
{
name = top;
position = "{279, 522}";
}
);
layerId = "6CB1ED38-7E52-4100-AE28-A91D059C1838";
paths = (
{
closed = 1;
nodes = (
"-42 0 LINE",
"384 0 LINE",
"412 130 LINE",
"184 130 LINE",
"463 414 LINE",
"487 526 LINE",
"85 526 LINE",
"57 396 LINE",
"261 396 LINE",
"-18 112 LINE"
);
}
);
width = 472;
}
);
leftKerningGroup = z;
rightKerningGroup = z;
unicode = 007A;
},
{
glyphname = a.alt;
lastChange = "2016-08-17 14:38:19 +0000";
layers = (
{
background = {
paths = (
{
closed = 1;
nodes = (
"300 -10 OFFCURVE",
"384 44 OFFCURVE",
"441 119 CURVE",
"415 0 LINE",
"435 0 LINE",
"545 517 LINE",
"525 517 LINE",
"500 397 LINE",
"476 471 OFFCURVE",
"417 527 OFFCURVE",
"328 527 CURVE SMOOTH",
"181 527 OFFCURVE",
"30 374 OFFCURVE",
"30 208 CURVE SMOOTH",
"30 95 OFFCURVE",
"97 -10 OFFCURVE",
"214 -10 CURVE SMOOTH"
);
},
{
closed = 1;
nodes = (
"113 10 OFFCURVE",
"50 103 OFFCURVE",
"50 210 CURVE SMOOTH",
"50 347 OFFCURVE",
"177 507 OFFCURVE",
"324 507 CURVE SMOOTH",
"415 507 OFFCURVE",
"477 439 OFFCURVE",
"490 351 CURVE",
"451 167 LINE",
"402 82 OFFCURVE",
"315 10 OFFCURVE",
"219 10 CURVE SMOOTH"
);
}
);
};
layerId = UUID0;
paths = (
{
closed = 1;
nodes = (
"300 -10 OFFCURVE",
"384 44 OFFCURVE",
"441 119 CURVE",
"415 0 LINE",
"435 0 LINE",
"545 517 LINE",
"525 517 LINE",
"500 397 LINE",
"476 471 OFFCURVE",
"417 527 OFFCURVE",
"328 527 CURVE SMOOTH",
"181 527 OFFCURVE",
"30 374 OFFCURVE",
"30 208 CURVE SMOOTH",
"30 95 OFFCURVE",
"97 -10 OFFCURVE",
"214 -10 CURVE SMOOTH"
);
},
{
closed = 1;
nodes = (
"113 10 OFFCURVE",
"50 103 OFFCURVE",
"50 210 CURVE SMOOTH",
"50 347 OFFCURVE",
"177 507 OFFCURVE",
"324 507 CURVE SMOOTH",
"415 507 OFFCURVE",
"477 439 OFFCURVE",
"490 351 CURVE",
"451 167 LINE",
"402 82 OFFCURVE",
"315 10 OFFCURVE",
"219 10 CURVE SMOOTH"
);
}
);
width = 580;
},
{
layerId = "6CB1ED38-7E52-4100-AE28-A91D059C1838";
paths = (
{
closed = 1;
nodes = (
"193 -10 CURVE SMOOTH",
"257 -10 OFFCURVE",
"302 16 OFFCURVE",
"341 69 CURVE",
"326 0 LINE",
"515 0 LINE",
"625 518 LINE",
"435 518 LINE",
"420 448 LINE",
"404 503 OFFCURVE",
"355 536 OFFCURVE",
"290 536 CURVE SMOOTH",
"140 536 OFFCURVE",
"7 383 OFFCURVE",
"7 203 CURVE SMOOTH",
"7 77 OFFCURVE",
"78 -10 OFFCURVE"
);
},
{
closed = 1;
nodes = (
"278 150 CURVE SMOOTH",
"234 150 OFFCURVE",
"207 184 OFFCURVE",
"207 234 CURVE SMOOTH",
"207 307 OFFCURVE",
"263 376 OFFCURVE",
"318 376 CURVE SMOOTH",
"353 376 OFFCURVE",
"382 346 OFFCURVE",
"389 298 CURVE",
"369 204 LINE",
"338 168 OFFCURVE",
"311 150 OFFCURVE"
);
}
);
width = 627;
}
);
leftKerningGroup = a;
rightKerningGroup = a.alt;
},
{
glyphname = d.alt;
lastChange = "2016-08-17 14:38:19 +0000";
layers = (
{
background = {
paths = (
{
closed = 1;
nodes = (
"293 -10 OFFCURVE",
"379 39 OFFCURVE",
"435 108 CURVE",
"412 0 LINE",
"432 0 LINE",
"587 730 LINE",
"567 730 LINE",
"497 398 LINE",
"466 467 OFFCURVE",
"413 527 OFFCURVE",
"323 527 CURVE SMOOTH",
"171 527 OFFCURVE",
"31 370 OFFCURVE",
"31 211 CURVE SMOOTH",
"31 97 OFFCURVE",
"100 -10 OFFCURVE",
"218 -10 CURVE SMOOTH"
);
},
{
closed = 1;
nodes = (
"119 10 OFFCURVE",
"51 104 OFFCURVE",
"51 213 CURVE SMOOTH",
"51 351 OFFCURVE",
"172 507 OFFCURVE",
"319 507 CURVE SMOOTH",
"399 507 OFFCURVE",
"479 439 OFFCURVE",
"488 356 CURVE",
"448 169 LINE",
"428 84 OFFCURVE",
"299 10 OFFCURVE",
"222 10 CURVE SMOOTH"
);
}
);
};
layerId = UUID0;
paths = (
{
closed = 1;
nodes = (
"293 -10 OFFCURVE",
"379 39 OFFCURVE",
"435 108 CURVE",
"412 0 LINE",
"432 0 LINE",
"587 730 LINE",
"567 730 LINE",
"497 398 LINE",
"466 467 OFFCURVE",
"413 527 OFFCURVE",
"323 527 CURVE SMOOTH",
"171 527 OFFCURVE",
"31 370 OFFCURVE",
"31 211 CURVE SMOOTH",
"31 97 OFFCURVE",
"100 -10 OFFCURVE",
"218 -10 CURVE SMOOTH"
);
},
{
closed = 1;
nodes = (
"119 10 OFFCURVE",
"51 104 OFFCURVE",
"51 213 CURVE SMOOTH",
"51 351 OFFCURVE",
"172 507 OFFCURVE",
"319 507 CURVE SMOOTH",
"399 507 OFFCURVE",
"479 439 OFFCURVE",
"488 356 CURVE",
"448 169 LINE",
"425 84 OFFCURVE",
"299 10 OFFCURVE",
"222 10 CURVE SMOOTH"
);
}
);
width = 577;
},
{
layerId = "6CB1ED38-7E52-4100-AE28-A91D059C1838";
paths = (
{
closed = 1;
nodes = (
"193 -10 CURVE SMOOTH",
"258 -10 OFFCURVE",
"302 16 OFFCURVE",
"341 69 CURVE",
"326 0 LINE",
"515 0 LINE",
"670 730 LINE",
"480 730 LINE",
"420 448 LINE",
"405 503 OFFCURVE",
"355 536 OFFCURVE",
"290 536 CURVE SMOOTH",
"141 536 OFFCURVE",
"7 383 OFFCURVE",
"7 202 CURVE SMOOTH",
"7 77 OFFCURVE",
"77 -10 OFFCURVE"
);
},
{
closed = 1;
nodes = (
"278 150 CURVE SMOOTH",
"234 150 OFFCURVE",
"207 183 OFFCURVE",
"207 234 CURVE SMOOTH",
"207 307 OFFCURVE",
"263 376 OFFCURVE",
"318 376 CURVE SMOOTH",
"354 376 OFFCURVE",
"382 346 OFFCURVE",
"390 298 CURVE",
"370 204 LINE",
"337 168 OFFCURVE",
"312 150 OFFCURVE"
);
}
);
width = 627;
}
);
leftKerningGroup = a;
},
{
glyphname = j.alt;
lastChange = "2016-08-17 14:38:19 +0000";
layers = (
{
background = {
paths = (
{
closed = 1;
nodes = (
"-28 -213 LINE",
"-8 -213 LINE",
"147 517 LINE",
"127 517 LINE"
);
},
{
closed = 1;
nodes = (
"156 653 LINE",
"176 653 LINE",
"190 717 LINE",
"170 717 LINE"
);
}
);
};
layerId = UUID0;
paths = (
{
closed = 1;
nodes = (
"-28 -213 LINE",
"-8 -213 LINE",
"147 517 LINE",
"127 517 LINE"
);
},
{
closed = 1;
nodes = (
"156 653 LINE",
"176 653 LINE",
"190 717 LINE",
"170 717 LINE"
);
}
);
width = 182;
},
{
layerId = "6CB1ED38-7E52-4100-AE28-A91D059C1838";
paths = (
{
closed = 1;
nodes = (
"-61 -213 LINE",
"129 -213 LINE",
"284 517 LINE",
"94 517 LINE"
);
},
{
closed = 1;
nodes = (
"105 570 LINE",
"294 570 LINE",
"328 730 LINE",
"139 730 LINE"
);
}
);
width = 286;
}
);
leftKerningGroup = i;
rightKerningGroup = i;
},
{
glyphname = l.alt;
lastChange = "2016-08-17 14:38:19 +0000";
layers = (
{
background = {
paths = (
{
closed = 1;
nodes = (
"25 0 LINE",
"32 0 OFFCURVE",
"45 0 OFFCURVE",
"45 0 CURVE",
"200 730 LINE",
"180 730 LINE"
);
}
);
};
layerId = UUID0;
paths = (
{
closed = 1;
nodes = (
"25 0 LINE",
"32 0 OFFCURVE",
"45 0 OFFCURVE",
"45 0 CURVE",
"200 730 LINE",
"180 730 LINE"
);
}
);
width = 198;
},
{
layerId = "6CB1ED38-7E52-4100-AE28-A91D059C1838";
paths = (
{
closed = 1;
nodes = (
"-16 0 LINE",
"52 0 OFFCURVE",
"174 0 OFFCURVE",
"174 0 CURVE",
"329 730 LINE",
"139 730 LINE"
);
}
);
width = 286;
}
);
},
{
glyphname = q.alt;
lastChange = "2016-08-17 14:38:19 +0000";
layers = (
{
background = {
paths = (
{
closed = 1;
nodes = (
"366 -213 LINE",
"386 -213 LINE",
"541 519 LINE",
"521 519 LINE",
"498 409 LINE",
"473 475 OFFCURVE",
"408 527 OFFCURVE",
"331 527 CURVE SMOOTH",
"180 527 OFFCURVE",
"29 371 OFFCURVE",
"29 205 CURVE SMOOTH",
"29 93 OFFCURVE",
"91 -10 OFFCURVE",
"208 -10 CURVE SMOOTH",
"285 -10 OFFCURVE",
"363 35 OFFCURVE",
"436 119 CURVE"
);
},
{
closed = 1;
nodes = (
"110 10 OFFCURVE",
"49 101 OFFCURVE",
"49 208 CURVE SMOOTH",
"49 353 OFFCURVE",
"181 507 OFFCURVE",
"327 507 CURVE SMOOTH",
"419 507 OFFCURVE",
"482 436 OFFCURVE",
"490 365 CURVE",
"445 161 LINE",
"391 82 OFFCURVE",
"306 10 OFFCURVE",
"212 10 CURVE SMOOTH"
);
}
);
};
layerId = UUID0;
paths = (
{
closed = 1;
nodes = (
"366 -213 LINE",
"386 -213 LINE",
"541 519 LINE",
"521 519 LINE",
"498 409 LINE",
"473 475 OFFCURVE",
"408 527 OFFCURVE",
"331 527 CURVE SMOOTH",
"180 527 OFFCURVE",
"29 371 OFFCURVE",
"29 205 CURVE SMOOTH",
"29 93 OFFCURVE",
"91 -10 OFFCURVE",
"208 -10 CURVE SMOOTH",
"285 -10 OFFCURVE",
"363 35 OFFCURVE",
"436 119 CURVE"
);
},
{
closed = 1;
nodes = (
"110 10 OFFCURVE",
"49 101 OFFCURVE",
"49 208 CURVE SMOOTH",
"49 353 OFFCURVE",
"181 507 OFFCURVE",
"327 507 CURVE SMOOTH",
"419 507 OFFCURVE",
"482 436 OFFCURVE",
"490 365 CURVE",
"445 161 LINE",
"391 82 OFFCURVE",
"306 10 OFFCURVE",
"212 10 CURVE SMOOTH"
);
}
);
width = 576;
},
{
layerId = "6CB1ED38-7E52-4100-AE28-A91D059C1838";
paths = (
{
closed = 1;
nodes = (
"279 -214 LINE",
"469 -214 LINE",
"626 526 LINE",
"461 526 LINE",
"444 445 LINE",
"421 502 OFFCURVE",
"379 536 OFFCURVE",
"304 536 CURVE SMOOTH",
"148 536 OFFCURVE",
"7 388 OFFCURVE",
"7 200 CURVE SMOOTH",
"7 78 OFFCURVE",
"69 -10 OFFCURVE",
"169 -10 CURVE SMOOTH",
"241 -10 OFFCURVE",
"302 21 OFFCURVE",
"341 78 CURVE"
);
},
{
closed = 1;
nodes = (
"278 150 CURVE SMOOTH",
"232 150 OFFCURVE",
"205 183 OFFCURVE",
"205 234 CURVE SMOOTH",
"205 308 OFFCURVE",
"260 376 OFFCURVE",
"317 376 CURVE SMOOTH",
"352 376 OFFCURVE",
"380 344 OFFCURVE",
"388 298 CURVE",
"368 204 LINE",
"337 168 OFFCURVE",
"308 150 OFFCURVE"
);
}
);
width = 626;
}
);
leftKerningGroup = a;
rightKerningGroup = a.alt;
},
{
glyphname = t.alt;
lastChange = "2016-08-17 14:38:19 +0000";
layers = (
{
background = {
paths = (
{
closed = 1;
nodes = (
"33 0 LINE",
"53 0 LINE",
"159 499 LINE",
"278 499 LINE",
"282 519 LINE",
"163 519 LINE",
"202 701 LINE",
"182 701 LINE",
"143 519 LINE",
"72 519 LINE",
"68 499 LINE",
"139 499 LINE"
);
}
);
};
layerId = UUID0;
paths = (
{
closed = 1;
nodes = (
"33 0 LINE",
"53 0 LINE",
"159 499 LINE",
"278 499 LINE",
"282 519 LINE",
"163 519 LINE",
"202 701 LINE",
"182 701 LINE",
"143 519 LINE",
"72 519 LINE",
"68 499 LINE",
"139 499 LINE"
);
}
);
width = 264;
},
{
layerId = "6CB1ED38-7E52-4100-AE28-A91D059C1838";
paths = (
{
closed = 1;
nodes = (
"39 0 LINE",
"234 0 LINE",
"309 356 LINE",
"423 356 LINE",
"459 526 LINE",
"345 526 LINE",
"381 691 LINE",
"185 691 LINE",
"150 526 LINE",
"74 526 LINE",
"38 356 LINE",
"114 356 LINE"
);
}
);
width = 425;
}
);
},
{
glyphname = u.alt;
lastChange = "2016-08-17 14:38:19 +0000";
layers = (
{
background = {
paths = (
{
closed = 1;
nodes = (
"257 -10 OFFCURVE",
"354 48 OFFCURVE",
"412 132 CURVE",
"384 0 LINE",
"404 0 LINE",
"515 519 LINE",
"495 519 LINE",
"424 189 LINE",
"380 97 OFFCURVE",
"276 10 OFFCURVE",
"175 10 CURVE SMOOTH",
"93 10 OFFCURVE",
"67 59 OFFCURVE",
"67 128 CURVE SMOOTH",
"67 158 OFFCURVE",
"72 192 OFFCURVE",
"80 228 CURVE SMOOTH",
"142 519 LINE",
"122 519 LINE",
"60 228 LINE SMOOTH",
"52 193 OFFCURVE",
"47 157 OFFCURVE",
"47 124 CURVE SMOOTH",
"47 49 OFFCURVE",
"75 -10 OFFCURVE",
"171 -10 CURVE SMOOTH"
);
}
);
};
layerId = UUID0;
paths = (
{
closed = 1;
nodes = (
"257 -10 OFFCURVE",
"354 48 OFFCURVE",
"412 132 CURVE",
"384 0 LINE",
"404 0 LINE",
"515 519 LINE",
"495 519 LINE",
"424 189 LINE",
"380 97 OFFCURVE",
"276 10 OFFCURVE",
"175 10 CURVE SMOOTH",
"93 10 OFFCURVE",
"67 59 OFFCURVE",
"67 128 CURVE SMOOTH",
"67 158 OFFCURVE",
"72 192 OFFCURVE",
"80 228 CURVE SMOOTH",
"142 519 LINE",
"122 519 LINE",
"60 228 LINE SMOOTH",
"52 193 OFFCURVE",
"47 157 OFFCURVE",
"47 124 CURVE SMOOTH",
"47 49 OFFCURVE",
"75 -10 OFFCURVE",
"171 -10 CURVE SMOOTH"
);
}
);
width = 549;
},
{
layerId = "6CB1ED38-7E52-4100-AE28-A91D059C1838";
paths = (
{
closed = 1;
nodes = (
"144 -10 CURVE SMOOTH",
"207 -10 OFFCURVE",
"275 11 OFFCURVE",
"321 70 CURVE",
"306 0 LINE",
"488 0 LINE",
"600 526 LINE",
"410 526 LINE",
"342 204 LINE",
"302 159 OFFCURVE",
"273 150 OFFCURVE",
"255 150 CURVE SMOOTH",
"228 150 OFFCURVE",
"214 166 OFFCURVE",
"214 196 CURVE SMOOTH",
"214 204 OFFCURVE",
"215 213 OFFCURVE",
"217 223 CURVE SMOOTH",
"281 526 LINE",
"91 526 LINE",
"17 180 LINE SMOOTH",
"12 155 OFFCURVE",
"9 133 OFFCURVE",
"9 113 CURVE SMOOTH",
"9 30 OFFCURVE",
"55 -10 OFFCURVE"
);
}
);
width = 600;
}
);
leftKerningGroup = u;
rightKerningGroup = a.alt;
},
{
glyphname = w.alt;
lastChange = "2016-08-17 14:38:19 +0000";
layers = (
{
background = {
paths = (
{
closed = 1;
nodes = (
"136 0 LINE",
"155 0 LINE",
"416 493 LINE",
"467 0 LINE",
"485 0 LINE",
"772 519 LINE",
"750 519 LINE",
"482 30 LINE",
"432 519 LINE",
"410 519 LINE",
"152 30 LINE",
"92 519 LINE",
"70 519 LINE"
);
}
);
};
layerId = UUID0;
paths = (
{
closed = 1;
nodes = (
"136 0 LINE",
"155 0 LINE",
"416 493 LINE",
"467 0 LINE",
"485 0 LINE",
"772 519 LINE",
"750 519 LINE",
"482 30 LINE",
"432 519 LINE",
"410 519 LINE",
"152 30 LINE",
"92 519 LINE",
"70 519 LINE"
);
}
);
width = 755;
},
{
layerId = "6CB1ED38-7E52-4100-AE28-A91D059C1838";
paths = (
{
closed = 1;
nodes = (
"100 0 LINE",
"307 0 LINE",
"415 229 LINE",
"415 0 LINE",
"634 0 LINE",
"913 526 LINE",
"718 526 LINE",
"569 224 LINE",
"569 526 LINE",
"390 526 LINE",
"260 224 LINE",
"239 526 LINE",
"44 526 LINE"
);
}
);
width = 868;
}
);
},
{
glyphname = y.alt;
lastChange = "2016-08-17 14:38:19 +0000";
layers = (
{
background = {
paths = (
{
closed = 1;
nodes = (
"43 -213 LINE",
"61 -213 LINE",
"519 519 LINE",
"498 519 LINE",
"187 25 LINE",
"75 519 LINE",
"54 519 LINE",
"172 0 LINE"
);
}
);
};
layerId = UUID0;
paths = (
{
closed = 1;
nodes = (
"43 -213 LINE",
"61 -213 LINE",
"519 519 LINE",
"498 519 LINE",
"187 25 LINE",
"75 519 LINE",
"54 519 LINE",
"172 0 LINE"
);
}
);
width = 487;
},
{
layerId = "6CB1ED38-7E52-4100-AE28-A91D059C1838";
paths = (
{
closed = 1;
nodes = (
"-17 -213 CURVE",
"205 -213 LINE",
"569 526 LINE",
"392 526 LINE",
"245 161 LINE",
"245 526 LINE",
"40 526 LINE",
"107 0 LINE",
"67 -71 OFFCURVE",
"27 -142 OFFCURVE"
);
}
);
width = 523;
}
);
},
{
glyphname = a.alt2;
lastChange = "2016-08-17 14:38:19 +0000";
layers = (
{
background = {
paths = (
{
closed = 1;
nodes = (
"207 -10 OFFCURVE",
"295 20 OFFCURVE",
"360 88 CURVE",
"341 0 LINE",
"361 0 LINE",
"431 327 LINE SMOOTH",
"435 346 OFFCURVE",
"437 365 OFFCURVE",
"437 383 CURVE SMOOTH",
"437 467 OFFCURVE",
"390 527 OFFCURVE",
"292 527 CURVE SMOOTH",
"231 527 OFFCURVE",
"166 496 OFFCURVE",
"107 459 CURVE",
"115 443 LINE",
"179 484 OFFCURVE",
"240 507 OFFCURVE",
"288 507 CURVE SMOOTH",
"370 507 OFFCURVE",
"417 455 OFFCURVE",
"417 377 CURVE SMOOTH",
"417 361 OFFCURVE",
"415 344 OFFCURVE",
"411 327 CURVE SMOOTH",
"398 268 LINE",
"375 278 OFFCURVE",
"320 297 OFFCURVE",
"240 297 CURVE SMOOTH",
"144 297 OFFCURVE",
"1 255 OFFCURVE",
"1 121 CURVE SMOOTH",
"1 47 OFFCURVE",
"53 -10 OFFCURVE",
"131 -10 CURVE SMOOTH"
);
},
{
closed = 1;
nodes = (
"72 10 OFFCURVE",
"21 55 OFFCURVE",
"21 124 CURVE SMOOTH",
"21 241 OFFCURVE",
"146 277 OFFCURVE",
"235 277 CURVE SMOOTH",
"290 277 OFFCURVE",
"344 268 OFFCURVE",
"394 246 CURVE",
"372 143 LINE SMOOTH",
"369 131 OFFCURVE",
"362 117 OFFCURVE",
"349 102 CURVE SMOOTH",
"296 38 OFFCURVE",
"207 10 OFFCURVE",
"135 10 CURVE SMOOTH"
);
}
);
};
layerId = UUID0;
paths = (
{
closed = 1;
nodes = (
"207 -10 OFFCURVE",
"295 20 OFFCURVE",
"360 88 CURVE",
"341 0 LINE",
"361 0 LINE",
"431 327 LINE SMOOTH",
"435 346 OFFCURVE",
"437 365 OFFCURVE",
"437 383 CURVE SMOOTH",
"437 467 OFFCURVE",
"390 527 OFFCURVE",
"292 527 CURVE SMOOTH",
"231 527 OFFCURVE",
"166 496 OFFCURVE",
"107 459 CURVE",
"115 443 LINE",
"179 484 OFFCURVE",
"240 507 OFFCURVE",
"288 507 CURVE SMOOTH",
"370 507 OFFCURVE",
"417 455 OFFCURVE",
"417 377 CURVE SMOOTH",
"417 361 OFFCURVE",
"415 344 OFFCURVE",
"411 327 CURVE SMOOTH",
"398 268 LINE",
"375 278 OFFCURVE",
"320 297 OFFCURVE",
"240 297 CURVE SMOOTH",
"144 297 OFFCURVE",
"1 255 OFFCURVE",
"1 121 CURVE SMOOTH",
"1 47 OFFCURVE",
"53 -10 OFFCURVE",
"131 -10 CURVE SMOOTH"
);
},
{
closed = 1;
nodes = (
"72 10 OFFCURVE",
"21 55 OFFCURVE",
"21 124 CURVE SMOOTH",
"21 241 OFFCURVE",
"146 277 OFFCURVE",
"235 277 CURVE SMOOTH",
"290 277 OFFCURVE",
"344 268 OFFCURVE",
"394 246 CURVE",
"372 143 LINE SMOOTH",
"369 131 OFFCURVE",
"362 117 OFFCURVE",
"349 102 CURVE SMOOTH",
"296 38 OFFCURVE",
"207 10 OFFCURVE",
"135 10 CURVE SMOOTH"
);
}
);
width = 501;
},
{
layerId = "6CB1ED38-7E52-4100-AE28-A91D059C1838";
paths = (
{
closed = 1;
nodes = (
"130 -10 CURVE SMOOTH",
"195 -10 OFFCURVE",
"249 16 OFFCURVE",
"290 65 CURVE",
"277 0 LINE",
"460 0 LINE",
"526 312 LINE SMOOTH",
"531 334 OFFCURVE",
"533 354 OFFCURVE",
"533 373 CURVE SMOOTH",
"533 481 OFFCURVE",
"458 536 OFFCURVE",
"320 536 CURVE SMOOTH",
"234 536 OFFCURVE",
"155 514 OFFCURVE",
"78 469 CURVE",
"107 351 LINE",
"168 388 OFFCURVE",
"218 408 OFFCURVE",
"274 408 CURVE SMOOTH",
"323 408 OFFCURVE",
"343 391 OFFCURVE",
"343 357 CURVE SMOOTH",
"343 350 OFFCURVE",
"342 343 OFFCURVE",
"341 335 CURVE SMOOTH",
"338 319 LINE",
"314 332 OFFCURVE",
"282 339 OFFCURVE",
"245 339 CURVE SMOOTH",
"99 339 OFFCURVE",
"-14 249 OFFCURVE",
"-14 129 CURVE SMOOTH",
"-14 48 OFFCURVE",
"43 -10 OFFCURVE"
);
},
{
closed = 1;
nodes = (
"216 126 CURVE SMOOTH",
"188 126 OFFCURVE",
"171 143 OFFCURVE",
"171 167 CURVE SMOOTH",
"171 205 OFFCURVE",
"209 236 OFFCURVE",
"256 236 CURVE SMOOTH",
"274 236 OFFCURVE",
"299 230 OFFCURVE",
"316 222 CURVE",
"308 183 LINE SMOOTH",
"305 170 OFFCURVE",
"292 156 OFFCURVE",
"276 146 CURVE SMOOTH",
"257 134 OFFCURVE",
"235 126 OFFCURVE"
);
}
);
width = 565;
}
);
leftKerningGroup = a.alt2;
},
{
glyphname = c_t;
lastChange = "2016-08-17 14:38:19 +0000";
layers = (
{
background = {
paths = (
{
closed = 1;
nodes = (
"289 -10 OFFCURVE",
"392 32 OFFCURVE",
"435 113 CURVE",
"417 119 LINE",
"386 53 OFFCURVE",
"283 10 OFFCURVE",
"221 10 CURVE SMOOTH",
"118 10 OFFCURVE",
"50 104 OFFCURVE",
"50 213 CURVE SMOOTH",
"50 344 OFFCURVE",
"166 507 OFFCURVE",
"318 507 CURVE SMOOTH",
"392 507 OFFCURVE",
"449 476 OFFCURVE",
"471 404 CURVE",
"491 411 LINE",
"485 440 OFFCURVE",
"448 528 OFFCURVE",
"448 595 CURVE SMOOTH",
"448 664 OFFCURVE",
"495 733 OFFCURVE",
"579 733 CURVE SMOOTH",
"651 733 OFFCURVE",
"672 698 OFFCURVE",
"672 648 CURVE SMOOTH",
"672 611 OFFCURVE",
"660 565 OFFCURVE",
"651 519 CURVE",
"579 519 LINE",
"575 499 LINE",
"646 499 LINE",
"556 75 LINE SMOOTH",
"555 69 OFFCURVE",
"554 63 OFFCURVE",
"554 58 CURVE SMOOTH",
"554 20 OFFCURVE",
"584 -5 OFFCURVE",
"625 -5 CURVE SMOOTH",
"663 -5 OFFCURVE",
"684 5 OFFCURVE",
"722 24 CURVE",
"715 40 LINE",
"688 26 OFFCURVE",
"661 15 OFFCURVE",
"630 15 CURVE SMOOTH",
"600 15 OFFCURVE",
"575 33 OFFCURVE",
"575 66 CURVE SMOOTH",
"575 69 OFFCURVE",
"575 72 OFFCURVE",
"576 75 CURVE SMOOTH",
"666 499 LINE",
"785 499 LINE",
"789 519 LINE",
"671 519 LINE",
"683 575 OFFCURVE",
"693 623 OFFCURVE",
"693 661 CURVE SMOOTH",
"693 720 OFFCURVE",
"668 753 OFFCURVE",
"584 753 CURVE SMOOTH",
"490 753 OFFCURVE",
"428 674 OFFCURVE",
"428 590 CURVE SMOOTH",
"428 548 OFFCURVE",
"442 508 OFFCURVE",
"454 481 CURVE",
"427 510 OFFCURVE",
"385 527 OFFCURVE",
"323 527 CURVE SMOOTH",
"167 527 OFFCURVE",
"30 365 OFFCURVE",
"30 211 CURVE SMOOTH",
"30 97 OFFCURVE",
"99 -10 OFFCURVE",
"217 -10 CURVE SMOOTH"
);
}
);
};
layerId = UUID0;
paths = (
{
closed = 1;
nodes = (
"289 -10 OFFCURVE",
"392 32 OFFCURVE",
"435 113 CURVE",
"417 119 LINE",
"386 53 OFFCURVE",
"283 10 OFFCURVE",
"221 10 CURVE SMOOTH",
"118 10 OFFCURVE",
"50 104 OFFCURVE",
"50 213 CURVE SMOOTH",
"50 344 OFFCURVE",
"166 507 OFFCURVE",
"318 507 CURVE SMOOTH",
"392 507 OFFCURVE",
"449 476 OFFCURVE",
"471 404 CURVE",
"491 411 LINE",
"485 440 OFFCURVE",
"448 528 OFFCURVE",
"448 595 CURVE SMOOTH",
"448 664 OFFCURVE",
"495 733 OFFCURVE",
"579 733 CURVE SMOOTH",
"651 733 OFFCURVE",
"672 698 OFFCURVE",
"672 648 CURVE SMOOTH",
"672 611 OFFCURVE",
"660 565 OFFCURVE",
"651 519 CURVE",
"579 519 LINE",
"575 499 LINE",
"646 499 LINE",
"556 75 LINE SMOOTH",
"555 69 OFFCURVE",
"554 63 OFFCURVE",
"554 58 CURVE SMOOTH",
"554 20 OFFCURVE",
"584 -5 OFFCURVE",
"625 -5 CURVE SMOOTH",
"663 -5 OFFCURVE",
"684 5 OFFCURVE",
"722 24 CURVE",
"715 40 LINE",
"688 26 OFFCURVE",
"661 15 OFFCURVE",
"630 15 CURVE SMOOTH",
"600 15 OFFCURVE",
"575 33 OFFCURVE",
"575 66 CURVE SMOOTH",
"575 69 OFFCURVE",
"575 72 OFFCURVE",
"576 75 CURVE SMOOTH",
"666 499 LINE",
"785 499 LINE",
"789 519 LINE",
"671 519 LINE",
"683 575 OFFCURVE",
"693 623 OFFCURVE",
"693 661 CURVE SMOOTH",
"693 720 OFFCURVE",
"668 753 OFFCURVE",
"584 753 CURVE SMOOTH",
"490 753 OFFCURVE",
"428 674 OFFCURVE",
"428 590 CURVE SMOOTH",
"428 548 OFFCURVE",
"442 508 OFFCURVE",
"454 481 CURVE",
"427 510 OFFCURVE",
"385 527 OFFCURVE",
"323 527 CURVE SMOOTH",
"167 527 OFFCURVE",
"30 365 OFFCURVE",
"30 211 CURVE SMOOTH",
"30 97 OFFCURVE",
"99 -10 OFFCURVE",
"217 -10 CURVE SMOOTH"
);
}
);
width = 787;
},
{
layerId = "6CB1ED38-7E52-4100-AE28-A91D059C1838";
paths = (
{
closed = 1;
nodes = (
"233 -10 CURVE SMOOTH",
"356 -10 OFFCURVE",
"451 49 OFFCURVE",
"510 133 CURVE",
"337 189 LINE",
"316 164 OFFCURVE",
"293 150 OFFCURVE",
"266 150 CURVE SMOOTH",
"229 150 OFFCURVE",
"205 181 OFFCURVE",
"205 232 CURVE SMOOTH",
"205 318 OFFCURVE",
"260 376 OFFCURVE",
"314 376 CURVE SMOOTH",
"341 376 OFFCURVE",
"359 362 OFFCURVE",
"369 337 CURVE",
"566 393 LINE",
"561 416 OFFCURVE",
"556 466 OFFCURVE",
"556 507 CURVE SMOOTH",
"556 576 OFFCURVE",
"568 651 OFFCURVE",
"650 651 CURVE SMOOTH",
"681 651 OFFCURVE",
"694 636 OFFCURVE",
"694 599 CURVE SMOOTH",
"694 581 OFFCURVE",
"691 557 OFFCURVE",
"685 526 CURVE",
"624 526 LINE",
"593 383 LINE",
"654 383 LINE",
"603 142 LINE SMOOTH",
"599 125 OFFCURVE",
"598 110 OFFCURVE",
"598 96 CURVE SMOOTH",
"598 17 OFFCURVE",
"653 -11 OFFCURVE",
"725 -11 CURVE SMOOTH",
"780 -11 OFFCURVE",
"846 6 OFFCURVE",
"904 29 CURVE",
"902 179 LINE",
"876 169 OFFCURVE",
"851 162 OFFCURVE",
"835 162 CURVE SMOOTH",
"816 162 OFFCURVE",
"805 170 OFFCURVE",
"805 191 CURVE SMOOTH",
"805 196 OFFCURVE",
"805 202 OFFCURVE",
"807 209 CURVE SMOOTH",
"844 383 LINE",
"941 383 LINE",
"971 526 LINE",
"875 526 LINE",
"881 554 OFFCURVE",
"887 585 OFFCURVE",
"887 613 CURVE SMOOTH",
"887 676 OFFCURVE",
"857 730 OFFCURVE",
"725 730 CURVE SMOOTH",
"569 730 OFFCURVE",
"483 660 OFFCURVE",
"483 530 CURVE SMOOTH",
"483 523 OFFCURVE",
"483 506 OFFCURVE",
"484 499 CURVE",
"446 523 OFFCURVE",
"416 536 OFFCURVE",
"356 536 CURVE SMOOTH",
"135 536 OFFCURVE",
"7 372 OFFCURVE",
"7 211 CURVE SMOOTH",
"7 91 OFFCURVE",
"81 -10 OFFCURVE"
);
}
);
width = 968;
}
);
leftKerningGroup = o;
rightKerningGroup = t;
},
{
glyphname = f_f;
lastChange = "2016-08-17 14:38:19 +0000";
layers = (
{
background = {
paths = (
{
closed = 1;
nodes = (
"33 0 LINE",
"53 0 LINE",
"159 499 LINE",
"336 499 LINE",
"230 0 LINE",
"250 0 LINE",
"356 499 LINE",
"532 499 LINE",
"536 519 LINE",
"361 519 LINE",
"365 540 LINE SMOOTH",
"381 621 OFFCURVE",
"437 720 OFFCURVE",
"542 720 CURVE SMOOTH",
"588 720 OFFCURVE",
"598 701 OFFCURVE",
"602 694 CURVE",
"620 706 LINE",
"620 709 OFFCURVE",
"608 740 OFFCURVE",
"543 740 CURVE SMOOTH",
"485 740 OFFCURVE",
"443 714 OFFCURVE",
"409 674 CURVE",
"397 685 OFFCURVE",
"364 700 OFFCURVE",
"321 700 CURVE SMOOTH",
"218 700 OFFCURVE",
"161 611 OFFCURVE",
"146 530 CURVE SMOOTH",
"144 519 LINE",
"72 519 LINE",
"68 499 LINE",
"139 499 LINE"
);
},
{
closed = 1;
nodes = (
"163 519 LINE",
"166 530 LINE SMOOTH",
"181 588 OFFCURVE",
"221 680 OFFCURVE",
"318 680 CURVE SMOOTH",
"338 680 OFFCURVE",
"377 676 OFFCURVE",
"395 656 CURVE",
"369 620 OFFCURVE",
"352 585 OFFCURVE",
"340 519 CURVE"
);
}
);
};
layerId = UUID0;
paths = (
{
closed = 1;
nodes = (
"33 0 LINE",
"53 0 LINE",
"159 499 LINE",
"336 499 LINE",
"230 0 LINE",
"250 0 LINE",
"356 499 LINE",
"532 499 LINE",
"536 519 LINE",
"361 519 LINE",
"365 540 LINE SMOOTH",
"381 621 OFFCURVE",
"437 720 OFFCURVE",
"542 720 CURVE SMOOTH",
"588 720 OFFCURVE",
"598 701 OFFCURVE",
"602 694 CURVE",
"620 706 LINE",
"620 709 OFFCURVE",
"608 740 OFFCURVE",
"543 740 CURVE SMOOTH",
"485 740 OFFCURVE",
"443 714 OFFCURVE",
"409 674 CURVE",
"397 685 OFFCURVE",
"364 700 OFFCURVE",
"321 700 CURVE SMOOTH",
"218 700 OFFCURVE",
"161 611 OFFCURVE",
"146 530 CURVE SMOOTH",
"144 519 LINE",
"72 519 LINE",
"68 499 LINE",
"139 499 LINE"
);
},
{
closed = 1;
nodes = (
"163 519 LINE",
"166 530 LINE SMOOTH",
"181 588 OFFCURVE",
"221 680 OFFCURVE",
"318 680 CURVE SMOOTH",
"338 680 OFFCURVE",
"377 676 OFFCURVE",
"395 656 CURVE",
"369 620 OFFCURVE",
"352 585 OFFCURVE",
"340 519 CURVE"
);
}
);
width = 520;
},
{
layerId = "6CB1ED38-7E52-4100-AE28-A91D059C1838";
paths = (
{
closed = 1;
nodes = (
"18 0 LINE",
"208 0 LINE",
"276 322 LINE",
"366 322 LINE",
"297 0 LINE",
"487 0 LINE",
"556 322 LINE",
"661 322 LINE",
"691 465 LINE",
"586 465 LINE",
"600 529 LINE SMOOTH",
"607 563 OFFCURVE",
"623 580 OFFCURVE",
"650 580 CURVE SMOOTH",
"666 580 OFFCURVE",
"693 574 OFFCURVE",
"713 566 CURVE",
"775 710 LINE",
"726 730 OFFCURVE",
"680 740 OFFCURVE",
"642 740 CURVE SMOOTH",
"581 740 OFFCURVE",
"529 716 OFFCURVE",
"488 676 CURVE",
"440 696 OFFCURVE",
"396 706 OFFCURVE",
"357 706 CURVE SMOOTH",
"242 706 OFFCURVE",
"151 620 OFFCURVE",
"122 488 CURVE SMOOTH",
"117 465 LINE",
"56 465 LINE",
"25 322 LINE",
"86 322 LINE"
);
},
{
closed = 1;
nodes = (
"307 465 LINE",
"313 495 LINE SMOOTH",
"320 529 OFFCURVE",
"337 546 OFFCURVE",
"363 546 CURVE SMOOTH",
"377 546 OFFCURVE",
"394 542 OFFCURVE",
"410 537 CURVE",
"406 513 OFFCURVE",
"401 489 OFFCURVE",
"396 465 CURVE"
);
}
);
width = 672;
}
);
leftKerningGroup = f;
rightKerningGroup = f;
},
{
glyphname = f_f_i;
lastChange = "2016-08-17 14:38:19 +0000";
layers = (
{
background = {
paths = (
{
closed = 1;
nodes = (
"33 0 LINE",
"53 0 LINE",
"159 499 LINE",
"336 499 LINE",
"230 0 LINE",
"250 0 LINE",
"356 499 LINE",
"569 499 LINE",
"463 0 LINE",
"483 0 LINE",
"594 519 LINE",
"361 519 LINE",
"365 540 LINE SMOOTH",
"381 622 OFFCURVE",
"437 720 OFFCURVE",
"542 720 CURVE SMOOTH",
"582 720 OFFCURVE",
"623 706 OFFCURVE",
"631 694 CURVE",
"649 706 LINE",
"649 709 OFFCURVE",
"608 740 OFFCURVE",
"544 740 CURVE SMOOTH",
"485 740 OFFCURVE",
"443 714 OFFCURVE",
"409 674 CURVE",
"397 685 OFFCURVE",
"364 700 OFFCURVE",
"322 700 CURVE SMOOTH",
"218 700 OFFCURVE",
"161 610 OFFCURVE",
"145 529 CURVE SMOOTH",
"143 519 LINE",
"72 519 LINE",
"68 499 LINE",
"139 499 LINE"
);
},
{
closed = 1;
nodes = (
"163 519 LINE",
"165 529 LINE SMOOTH",
"177 588 OFFCURVE",
"221 680 OFFCURVE",
"318 680 CURVE SMOOTH",
"338 680 OFFCURVE",
"377 676 OFFCURVE",
"395 656 CURVE",
"369 620 OFFCURVE",
"353 576 OFFCURVE",
"340 519 CURVE"
);
}
);
};
layerId = UUID0;
paths = (
{
closed = 1;
nodes = (
"33 0 LINE",
"53 0 LINE",
"159 499 LINE",
"336 499 LINE",
"230 0 LINE",
"250 0 LINE",
"356 499 LINE",
"569 499 LINE",
"463 0 LINE",
"483 0 LINE",
"594 519 LINE",
"361 519 LINE",
"365 540 LINE SMOOTH",
"381 622 OFFCURVE",
"437 720 OFFCURVE",
"542 720 CURVE SMOOTH",
"582 720 OFFCURVE",
"623 706 OFFCURVE",
"631 694 CURVE",
"649 706 LINE",
"649 709 OFFCURVE",
"608 740 OFFCURVE",
"544 740 CURVE SMOOTH",
"485 740 OFFCURVE",
"443 714 OFFCURVE",
"409 674 CURVE",
"397 685 OFFCURVE",
"364 700 OFFCURVE",
"322 700 CURVE SMOOTH",
"218 700 OFFCURVE",
"161 610 OFFCURVE",
"145 529 CURVE SMOOTH",
"143 519 LINE",
"72 519 LINE",
"68 499 LINE",
"139 499 LINE"
);
},
{
closed = 1;
nodes = (
"163 519 LINE",
"165 529 LINE SMOOTH",
"177 588 OFFCURVE",
"221 680 OFFCURVE",
"318 680 CURVE SMOOTH",
"338 680 OFFCURVE",
"377 676 OFFCURVE",
"395 656 CURVE",
"369 620 OFFCURVE",
"353 576 OFFCURVE",
"340 519 CURVE"
);
}
);
width = 628;
},
{
layerId = "6CB1ED38-7E52-4100-AE28-A91D059C1838";
paths = (
{
closed = 1;
nodes = (
"18 0 LINE",
"208 0 LINE",
"276 322 LINE",
"366 322 LINE",
"297 0 LINE",
"487 0 LINE",
"556 322 LINE",
"653 322 LINE",
"584 0 LINE",
"775 0 LINE",
"874 465 LINE",
"586 465 LINE",
"600 529 LINE SMOOTH",
"607 563 OFFCURVE",
"629 580 OFFCURVE",
"670 580 CURVE SMOOTH",
"707 580 OFFCURVE",
"757 554 OFFCURVE",
"791 516 CURVE",
"893 660 LINE",
"816 715 OFFCURVE",
"747 740 OFFCURVE",
"683 740 CURVE SMOOTH",
"606 740 OFFCURVE",
"537 716 OFFCURVE",
"488 676 CURVE",
"440 696 OFFCURVE",
"396 706 OFFCURVE",
"357 706 CURVE SMOOTH",
"242 706 OFFCURVE",
"151 620 OFFCURVE",
"122 488 CURVE SMOOTH",
"117 465 LINE",
"56 465 LINE",
"25 322 LINE",
"86 322 LINE"
);
},
{
closed = 1;
nodes = (
"307 465 LINE",
"313 495 LINE SMOOTH",
"320 529 OFFCURVE",
"337 546 OFFCURVE",
"363 546 CURVE SMOOTH",
"377 546 OFFCURVE",
"394 542 OFFCURVE",
"410 537 CURVE",
"406 513 OFFCURVE",
"401 489 OFFCURVE",
"396 465 CURVE"
);
}
);
width = 887;
}
);
leftKerningGroup = f;
rightKerningGroup = i;
},
{
glyphname = f_f_l;
lastChange = "2016-08-17 14:38:19 +0000";
layers = (
{
background = {
paths = (
{
closed = 1;
nodes = (
"602 -5 OFFCURVE",
"640 3 OFFCURVE",
"642 4 CURVE",
"637 23 LINE",
"635 23 OFFCURVE",
"601 14 OFFCURVE",
"580 14 CURVE SMOOTH",
"545 14 OFFCURVE",
"532 38 OFFCURVE",
"532 62 CURVE SMOOTH",
"532 67 OFFCURVE",
"533 72 OFFCURVE",
"534 77 CURVE SMOOTH",
"648 614 LINE SMOOTH",
"650 624 OFFCURVE",
"651 633 OFFCURVE",
"651 642 CURVE SMOOTH",
"651 698 OFFCURVE",
"612 740 OFFCURVE",
"538 740 CURVE SMOOTH",
"481 740 OFFCURVE",
"439 715 OFFCURVE",
"408 675 CURVE",
"396 685 OFFCURVE",
"374 700 OFFCURVE",
"329 700 CURVE SMOOTH",
"229 700 OFFCURVE",
"167 626 OFFCURVE",
"145 528 CURVE SMOOTH",
"143 519 LINE",
"72 519 LINE",
"68 499 LINE",
"139 499 LINE",
"33 0 LINE",
"53 0 LINE",
"159 499 LINE",
"341 499 LINE",
"235 0 LINE",
"255 0 LINE",
"361 499 LINE",
"479 499 LINE",
"484 519 LINE",
"366 519 LINE",
"370 540 LINE SMOOTH",
"387 626 OFFCURVE",
"440 720 OFFCURVE",
"539 720 CURVE SMOOTH",
"601 720 OFFCURVE",
"631 683 OFFCURVE",
"631 637 CURVE SMOOTH",
"631 629 OFFCURVE",
"630 621 OFFCURVE",
"628 613 CURVE SMOOTH",
"514 77 LINE SMOOTH",
"512 70 OFFCURVE",
"512 62 OFFCURVE",
"512 56 CURVE SMOOTH",
"512 21 OFFCURVE",
"531 -5 OFFCURVE",
"577 -5 CURVE SMOOTH"
);
},
{
closed = 1;
nodes = (
"163 519 LINE",
"165 528 LINE SMOOTH",
"181 601 OFFCURVE",
"231 680 OFFCURVE",
"326 680 CURVE SMOOTH",
"348 680 OFFCURVE",
"377 676 OFFCURVE",
"394 657 CURVE",
"373 624 OFFCURVE",
"359 583 OFFCURVE",
"345 519 CURVE"
);
}
);
};
layerId = UUID0;
paths = (
{
closed = 1;
nodes = (
"602 -5 OFFCURVE",
"640 3 OFFCURVE",
"642 4 CURVE",
"637 23 LINE",
"635 23 OFFCURVE",
"601 14 OFFCURVE",
"580 14 CURVE SMOOTH",
"545 14 OFFCURVE",
"532 38 OFFCURVE",
"532 62 CURVE SMOOTH",
"532 67 OFFCURVE",
"533 72 OFFCURVE",
"534 77 CURVE SMOOTH",
"648 614 LINE SMOOTH",
"650 624 OFFCURVE",
"651 633 OFFCURVE",
"651 642 CURVE SMOOTH",
"651 698 OFFCURVE",
"612 740 OFFCURVE",
"538 740 CURVE SMOOTH",
"481 740 OFFCURVE",
"439 715 OFFCURVE",
"408 675 CURVE",
"396 685 OFFCURVE",
"374 700 OFFCURVE",
"329 700 CURVE SMOOTH",
"229 700 OFFCURVE",
"167 626 OFFCURVE",
"145 528 CURVE SMOOTH",
"143 519 LINE",
"72 519 LINE",
"68 499 LINE",
"139 499 LINE",
"33 0 LINE",
"53 0 LINE",
"159 499 LINE",
"341 499 LINE",
"235 0 LINE",
"255 0 LINE",
"361 499 LINE",
"479 499 LINE",
"484 519 LINE",
"366 519 LINE",
"370 540 LINE SMOOTH",
"387 626 OFFCURVE",
"440 720 OFFCURVE",
"539 720 CURVE SMOOTH",
"601 720 OFFCURVE",
"631 683 OFFCURVE",
"631 637 CURVE SMOOTH",
"631 629 OFFCURVE",
"630 621 OFFCURVE",
"628 613 CURVE SMOOTH",
"514 77 LINE SMOOTH",
"512 70 OFFCURVE",
"512 62 OFFCURVE",
"512 56 CURVE SMOOTH",
"512 21 OFFCURVE",
"531 -5 OFFCURVE",
"577 -5 CURVE SMOOTH"
);
},
{
closed = 1;
nodes = (
"163 519 LINE",
"165 528 LINE SMOOTH",
"181 601 OFFCURVE",
"231 680 OFFCURVE",
"326 680 CURVE SMOOTH",
"348 680 OFFCURVE",
"377 676 OFFCURVE",
"394 657 CURVE",
"373 624 OFFCURVE",
"359 583 OFFCURVE",
"345 519 CURVE"
);
}
);
width = 700;
},
{
layerId = "6CB1ED38-7E52-4100-AE28-A91D059C1838";
paths = (
{
closed = 1;
nodes = (
"759 -9 CURVE SMOOTH",
"829 -9 OFFCURVE",
"912 21 OFFCURVE",
"916 24 CURVE",
"925 176 LINE",
"924 176 OFFCURVE",
"889 160 OFFCURVE",
"868 160 CURVE SMOOTH",
"845 160 OFFCURVE",
"838 178 OFFCURVE",
"838 198 CURVE SMOOTH",
"838 204 OFFCURVE",
"839 211 OFFCURVE",
"840 217 CURVE SMOOTH",
"903 510 LINE SMOOTH",
"908 533 OFFCURVE",
"910 555 OFFCURVE",
"910 575 CURVE SMOOTH",
"910 677 OFFCURVE",
"846 740 OFFCURVE",
"698 740 CURVE SMOOTH",
"615 740 OFFCURVE",
"541 720 OFFCURVE",
"489 676 CURVE",
"441 696 OFFCURVE",
"396 706 OFFCURVE",
"354 706 CURVE SMOOTH",
"242 706 OFFCURVE",
"151 620 OFFCURVE",
"122 488 CURVE SMOOTH",
"117 465 LINE",
"56 465 LINE",
"25 322 LINE",
"86 322 LINE",
"18 0 LINE",
"208 0 LINE",
"276 322 LINE",
"364 322 LINE",
"296 0 LINE",
"486 0 LINE",
"554 322 LINE",
"617 322 LINE",
"647 465 LINE",
"585 465 LINE",
"591 494 LINE SMOOTH",
"600 540 OFFCURVE",
"623 580 OFFCURVE",
"666 580 CURVE SMOOTH",
"702 580 OFFCURVE",
"714 563 OFFCURVE",
"714 534 CURVE SMOOTH",
"714 520 OFFCURVE",
"711 502 OFFCURVE",
"707 483 CURVE SMOOTH",
"629 117 LINE SMOOTH",
"627 109 OFFCURVE",
"626 101 OFFCURVE",
"626 93 CURVE SMOOTH",
"626 36 OFFCURVE",
"672 -9 OFFCURVE"
);
},
{
closed = 1;
nodes = (
"307 465 LINE",
"313 495 LINE SMOOTH",
"320 529 OFFCURVE",
"337 546 OFFCURVE",
"363 546 CURVE SMOOTH",
"375 546 OFFCURVE",
"393 543 OFFCURVE",
"409 538 CURVE",
"405 514 OFFCURVE",
"400 489 OFFCURVE",
"395 465 CURVE"
);
}
);
width = 970;
}
);
leftKerningGroup = f;
rightKerningGroup = l;
},
{
glyphname = f_i;
lastChange = "2016-08-17 14:38:19 +0000";
layers = (
{
background = {
paths = (
{
closed = 1;
nodes = (
"33 0 LINE",
"53 0 LINE",
"159 499 LINE",
"372 499 LINE",
"266 0 LINE",
"286 0 LINE",
"396 519 LINE",
"164 519 LINE",
"168 540 LINE SMOOTH",
"184 622 OFFCURVE",
"243 720 OFFCURVE",
"340 720 CURVE SMOOTH",
"389 720 OFFCURVE",
"425 706 OFFCURVE",
"434 694 CURVE",
"452 706 LINE",
"452 709 OFFCURVE",
"413 740 OFFCURVE",
"345 740 CURVE SMOOTH",
"228 740 OFFCURVE",
"164 624 OFFCURVE",
"148 540 CURVE SMOOTH",
"144 519 LINE",
"72 519 LINE",
"68 499 LINE",
"139 499 LINE"
);
}
);
};
layerId = UUID0;
paths = (
{
closed = 1;
nodes = (
"33 0 LINE",
"53 0 LINE",
"159 499 LINE",
"372 499 LINE",
"266 0 LINE",
"286 0 LINE",
"396 519 LINE",
"164 519 LINE",
"168 540 LINE SMOOTH",
"184 622 OFFCURVE",
"243 720 OFFCURVE",
"340 720 CURVE SMOOTH",
"389 720 OFFCURVE",
"425 706 OFFCURVE",
"434 694 CURVE",
"452 706 LINE",
"452 709 OFFCURVE",
"413 740 OFFCURVE",
"345 740 CURVE SMOOTH",
"228 740 OFFCURVE",
"164 624 OFFCURVE",
"148 540 CURVE SMOOTH",
"144 519 LINE",
"72 519 LINE",
"68 499 LINE",
"139 499 LINE"
);
}
);
width = 431;
},
{
layerId = "6CB1ED38-7E52-4100-AE28-A91D059C1838";
paths = (
{
closed = 1;
nodes = (
"18 0 LINE",
"208 0 LINE",
"276 322 LINE",
"373 322 LINE",
"305 0 LINE",
"495 0 LINE",
"594 465 LINE",
"306 465 LINE",
"320 529 LINE SMOOTH",
"327 563 OFFCURVE",
"352 580 OFFCURVE",
"386 580 CURVE SMOOTH",
"429 580 OFFCURVE",
"475 556 OFFCURVE",
"512 516 CURVE",
"614 660 LINE",
"541 714 OFFCURVE",
"480 740 OFFCURVE",
"407 740 CURVE SMOOTH",
"273 740 OFFCURVE",
"157 654 OFFCURVE",
"129 522 CURVE SMOOTH",
"117 465 LINE",
"56 465 LINE",
"25 322 LINE",
"86 322 LINE"
);
}
);
width = 607;
}
);
leftKerningGroup = f;
rightKerningGroup = i;
},
{
glyphname = f_l;
lastChange = "2016-08-17 14:38:19 +0000";
layers = (
{
background = {
paths = (
{
closed = 1;
nodes = (
"403 -5 OFFCURVE",
"439 3 OFFCURVE",
"440 4 CURVE",
"435 23 LINE",
"434 23 OFFCURVE",
"401 14 OFFCURVE",
"375 14 CURVE SMOOTH",
"344 14 OFFCURVE",
"330 38 OFFCURVE",
"330 63 CURVE SMOOTH",
"330 67 OFFCURVE",
"331 72 OFFCURVE",
"332 77 CURVE SMOOTH",
"446 614 LINE SMOOTH",
"448 624 OFFCURVE",
"449 633 OFFCURVE",
"449 643 CURVE SMOOTH",
"449 699 OFFCURVE",
"410 740 OFFCURVE",
"335 740 CURVE SMOOTH",
"230 740 OFFCURVE",
"169 649 OFFCURVE",
"148 540 CURVE SMOOTH",
"144 519 LINE",
"72 519 LINE",
"68 499 LINE",
"139 499 LINE",
"33 0 LINE",
"53 0 LINE",
"159 499 LINE",
"277 499 LINE",
"282 519 LINE",
"164 519 LINE",
"168 540 LINE SMOOTH",
"184 625 OFFCURVE",
"241 720 OFFCURVE",
"331 720 CURVE SMOOTH",
"402 720 OFFCURVE",
"429 681 OFFCURVE",
"429 638 CURVE SMOOTH",
"429 630 OFFCURVE",
"428 621 OFFCURVE",
"426 613 CURVE SMOOTH",
"312 77 LINE SMOOTH",
"310 70 OFFCURVE",
"310 63 OFFCURVE",
"310 56 CURVE SMOOTH",
"310 22 OFFCURVE",
"330 -5 OFFCURVE",
"370 -5 CURVE SMOOTH"
);
}
);
};
layerId = UUID0;
paths = (
{
closed = 1;
nodes = (
"403 -5 OFFCURVE",
"439 3 OFFCURVE",
"440 4 CURVE",
"435 23 LINE",
"434 23 OFFCURVE",
"401 14 OFFCURVE",
"375 14 CURVE SMOOTH",
"344 14 OFFCURVE",
"330 38 OFFCURVE",
"330 63 CURVE SMOOTH",
"330 67 OFFCURVE",
"331 72 OFFCURVE",
"332 77 CURVE SMOOTH",
"446 614 LINE SMOOTH",
"448 624 OFFCURVE",
"449 633 OFFCURVE",
"449 643 CURVE SMOOTH",
"449 699 OFFCURVE",
"410 740 OFFCURVE",
"335 740 CURVE SMOOTH",
"230 740 OFFCURVE",
"169 649 OFFCURVE",
"148 540 CURVE SMOOTH",
"144 519 LINE",
"72 519 LINE",
"68 499 LINE",
"139 499 LINE",
"33 0 LINE",
"53 0 LINE",
"159 499 LINE",
"277 499 LINE",
"282 519 LINE",
"164 519 LINE",
"168 540 LINE SMOOTH",
"184 625 OFFCURVE",
"241 720 OFFCURVE",
"331 720 CURVE SMOOTH",
"402 720 OFFCURVE",
"429 681 OFFCURVE",
"429 638 CURVE SMOOTH",
"429 630 OFFCURVE",
"428 621 OFFCURVE",
"426 613 CURVE SMOOTH",
"312 77 LINE SMOOTH",
"310 70 OFFCURVE",
"310 63 OFFCURVE",
"310 56 CURVE SMOOTH",
"310 22 OFFCURVE",
"330 -5 OFFCURVE",
"370 -5 CURVE SMOOTH"
);
}
);
width = 498;
},
{
layerId = "6CB1ED38-7E52-4100-AE28-A91D059C1838";
paths = (
{
closed = 1;
nodes = (
"481 -9 CURVE SMOOTH",
"552 -9 OFFCURVE",
"634 21 OFFCURVE",
"638 24 CURVE",
"648 176 LINE",
"646 176 OFFCURVE",
"611 160 OFFCURVE",
"590 160 CURVE SMOOTH",
"568 160 OFFCURVE",
"561 178 OFFCURVE",
"561 197 CURVE SMOOTH",
"561 204 OFFCURVE",
"562 210 OFFCURVE",
"563 217 CURVE SMOOTH",
"625 510 LINE SMOOTH",
"630 533 OFFCURVE",
"632 555 OFFCURVE",
"632 575 CURVE SMOOTH",
"632 677 OFFCURVE",
"568 740 OFFCURVE",
"420 740 CURVE SMOOTH",
"277 740 OFFCURVE",
"163 679 OFFCURVE",
"133 540 CURVE SMOOTH",
"117 465 LINE",
"56 465 LINE",
"25 322 LINE",
"86 322 LINE",
"18 0 LINE",
"208 0 LINE",
"276 322 LINE",
"339 322 LINE",
"369 465 LINE",
"307 465 LINE",
"313 494 LINE SMOOTH",
"323 545 OFFCURVE",
"345 580 OFFCURVE",
"395 580 CURVE SMOOTH",
"425 580 OFFCURVE",
"436 566 OFFCURVE",
"436 537 CURVE SMOOTH",
"436 521 OFFCURVE",
"432 499 OFFCURVE",
"427 473 CURVE SMOOTH",
"351 117 LINE SMOOTH",
"349 109 OFFCURVE",
"348 101 OFFCURVE",
"348 93 CURVE SMOOTH",
"348 36 OFFCURVE",
"394 -9 OFFCURVE"
);
}
);
width = 692;
}
);
leftKerningGroup = f;
rightKerningGroup = l;
},
{
glyphname = s_t;
lastChange = "2016-08-17 14:38:19 +0000";
layers = (
{
background = {
paths = (
{
closed = 1;
nodes = (
"260 -10 OFFCURVE",
"388 37 OFFCURVE",
"388 154 CURVE SMOOTH",
"388 254 OFFCURVE",
"294 262 OFFCURVE",
"222 268 CURVE SMOOTH",
"155 274 OFFCURVE",
"87 283 OFFCURVE",
"87 367 CURVE SMOOTH",
"87 469 OFFCURVE",
"186 507 OFFCURVE",
"274 507 CURVE SMOOTH",
"323 507 OFFCURVE",
"377 495 OFFCURVE",
"397 444 CURVE",
"417 452 LINE",
"410 475 OFFCURVE",
"391 521 OFFCURVE",
"391 585 CURVE SMOOTH",
"391 655 OFFCURVE",
"414 733 OFFCURVE",
"539 733 CURVE SMOOTH",
"594 733 OFFCURVE",
"617 718 OFFCURVE",
"617 663 CURVE SMOOTH",
"617 631 OFFCURVE",
"609 584 OFFCURVE",
"595 519 CURVE",
"524 519 LINE",
"519 499 LINE",
"590 499 LINE",
"500 75 LINE SMOOTH",
"499 70 OFFCURVE",
"498 63 OFFCURVE",
"498 56 CURVE SMOOTH",
"498 20 OFFCURVE",
"528 -5 OFFCURVE",
"572 -5 CURVE SMOOTH",
"618 -5 OFFCURVE",
"664 22 OFFCURVE",
"666 24 CURVE",
"659 40 LINE",
"656 38 OFFCURVE",
"616 15 OFFCURVE",
"576 15 CURVE SMOOTH",
"544 15 OFFCURVE",
"519 30 OFFCURVE",
"519 64 CURVE SMOOTH",
"519 66 OFFCURVE",
"519 70 OFFCURVE",
"520 75 CURVE SMOOTH",
"610 499 LINE",
"729 499 LINE",
"733 519 LINE",
"615 519 LINE",
"628 582 OFFCURVE",
"638 631 OFFCURVE",
"638 669 CURVE SMOOTH",
"638 726 OFFCURVE",
"615 753 OFFCURVE",
"542 753 CURVE SMOOTH",
"407 753 OFFCURVE",
"372 661 OFFCURVE",
"372 589 CURVE SMOOTH",
"372 555 OFFCURVE",
"380 529 OFFCURVE",
"386 497 CURVE",
"362 516 OFFCURVE",
"326 527 OFFCURVE",
"278 527 CURVE SMOOTH",
"184 527 OFFCURVE",
"66 485 OFFCURVE",
"66 360 CURVE SMOOTH",
"66 264 OFFCURVE",
"136 256 OFFCURVE",
"214 249 CURVE SMOOTH",
"298 241 OFFCURVE",
"367 233 OFFCURVE",
"367 153 CURVE SMOOTH",
"367 50 OFFCURVE",
"255 10 OFFCURVE",
"173 10 CURVE SMOOTH",
"108 10 OFFCURVE",
"55 35 OFFCURVE",
"14 85 CURVE",
"-3 72 LINE",
"30 27 OFFCURVE",
"85 -10 OFFCURVE",
"167 -10 CURVE SMOOTH"
);
}
);
};
layerId = UUID0;
paths = (
{
closed = 1;
nodes = (
"260 -10 OFFCURVE",
"388 37 OFFCURVE",
"388 154 CURVE SMOOTH",
"388 254 OFFCURVE",
"294 262 OFFCURVE",
"222 268 CURVE SMOOTH",
"155 274 OFFCURVE",
"87 283 OFFCURVE",
"87 367 CURVE SMOOTH",
"87 469 OFFCURVE",
"186 507 OFFCURVE",
"274 507 CURVE SMOOTH",
"323 507 OFFCURVE",
"377 495 OFFCURVE",
"397 444 CURVE",
"417 452 LINE",
"410 475 OFFCURVE",
"391 521 OFFCURVE",
"391 585 CURVE SMOOTH",
"391 655 OFFCURVE",
"414 733 OFFCURVE",
"539 733 CURVE SMOOTH",
"594 733 OFFCURVE",
"617 718 OFFCURVE",
"617 663 CURVE SMOOTH",
"617 631 OFFCURVE",
"609 584 OFFCURVE",
"595 519 CURVE",
"524 519 LINE",
"519 499 LINE",
"590 499 LINE",
"500 75 LINE SMOOTH",
"499 70 OFFCURVE",
"498 63 OFFCURVE",
"498 56 CURVE SMOOTH",
"498 20 OFFCURVE",
"528 -5 OFFCURVE",
"572 -5 CURVE SMOOTH",
"618 -5 OFFCURVE",
"664 22 OFFCURVE",
"666 24 CURVE",
"659 40 LINE",
"656 38 OFFCURVE",
"616 15 OFFCURVE",
"576 15 CURVE SMOOTH",
"544 15 OFFCURVE",
"519 30 OFFCURVE",
"519 64 CURVE SMOOTH",
"519 66 OFFCURVE",
"519 70 OFFCURVE",
"520 75 CURVE SMOOTH",
"610 499 LINE",
"729 499 LINE",
"733 519 LINE",
"615 519 LINE",
"628 582 OFFCURVE",
"638 631 OFFCURVE",
"638 669 CURVE SMOOTH",
"638 726 OFFCURVE",
"615 753 OFFCURVE",
"542 753 CURVE SMOOTH",
"407 753 OFFCURVE",
"372 661 OFFCURVE",
"372 589 CURVE SMOOTH",
"372 555 OFFCURVE",
"380 529 OFFCURVE",
"386 497 CURVE",
"362 516 OFFCURVE",
"326 527 OFFCURVE",
"278 527 CURVE SMOOTH",
"184 527 OFFCURVE",
"66 485 OFFCURVE",
"66 360 CURVE SMOOTH",
"66 264 OFFCURVE",
"136 256 OFFCURVE",
"214 249 CURVE SMOOTH",
"298 241 OFFCURVE",
"367 233 OFFCURVE",
"367 153 CURVE SMOOTH",
"367 50 OFFCURVE",
"255 10 OFFCURVE",
"173 10 CURVE SMOOTH",
"108 10 OFFCURVE",
"55 35 OFFCURVE",
"14 85 CURVE",
"-3 72 LINE",
"30 27 OFFCURVE",
"85 -10 OFFCURVE",
"167 -10 CURVE SMOOTH"
);
}
);
width = 731;
},
{
layerId = "6CB1ED38-7E52-4100-AE28-A91D059C1838";
paths = (
{
closed = 1;
nodes = (
"196 -10 CURVE SMOOTH",
"346 -10 OFFCURVE",
"443 78 OFFCURVE",
"443 195 CURVE SMOOTH",
"443 267 OFFCURVE",
"407 294 OFFCURVE",
"283 333 CURVE SMOOTH",
"236 348 OFFCURVE",
"217 351 OFFCURVE",
"217 373 CURVE SMOOTH",
"217 394 OFFCURVE",
"233 406 OFFCURVE",
"264 406 CURVE SMOOTH",
"297 406 OFFCURVE",
"335 393 OFFCURVE",
"394 359 CURVE",
"489 480 LINE",
"475 499 OFFCURVE",
"470 528 OFFCURVE",
"470 549 CURVE SMOOTH",
"470 606 OFFCURVE",
"507 651 OFFCURVE",
"560 651 CURVE SMOOTH",
"591 651 OFFCURVE",
"603 636 OFFCURVE",
"603 602 CURVE SMOOTH",
"603 583 OFFCURVE",
"599 558 OFFCURVE",
"593 526 CURVE",
"532 526 LINE",
"502 383 LINE",
"563 383 LINE",
"512 142 LINE SMOOTH",
"508 125 OFFCURVE",
"507 108 OFFCURVE",
"507 97 CURVE SMOOTH",
"507 16 OFFCURVE",
"561 -11 OFFCURVE",
"633 -11 CURVE SMOOTH",
"689 -11 OFFCURVE",
"754 6 OFFCURVE",
"812 29 CURVE",
"811 179 LINE",
"784 169 OFFCURVE",
"761 162 OFFCURVE",
"742 162 CURVE SMOOTH",
"723 162 OFFCURVE",
"714 169 OFFCURVE",
"714 195 CURVE SMOOTH",
"714 197 OFFCURVE",
"714 201 OFFCURVE",
"716 209 CURVE SMOOTH",
"753 383 LINE",
"850 383 LINE",
"880 526 LINE",
"783 526 LINE",
"791 561 OFFCURVE",
"796 594 OFFCURVE",
"796 619 CURVE SMOOTH",
"796 688 OFFCURVE",
"759 730 OFFCURVE",
"636 730 CURVE SMOOTH",
"463 730 OFFCURVE",
"394 646 OFFCURVE",
"394 546 CURVE SMOOTH",
"394 534 OFFCURVE",
"395 516 OFFCURVE",
"400 505 CURVE",
"362 532 OFFCURVE",
"303 537 OFFCURVE",
"277 537 CURVE SMOOTH",
"163 537 OFFCURVE",
"42 445 OFFCURVE",
"42 326 CURVE SMOOTH",
"42 257 OFFCURVE",
"82 231 OFFCURVE",
"191 195 CURVE SMOOTH",
"250 176 OFFCURVE",
"262 171 OFFCURVE",
"262 152 CURVE SMOOTH",
"262 133 OFFCURVE",
"250 123 OFFCURVE",
"217 123 CURVE SMOOTH",
"168 123 OFFCURVE",
"111 144 OFFCURVE",
"53 182 CURVE",
"-43 53 LINE",
"11 17 OFFCURVE",
"113 -10 OFFCURVE"
);
}
);
width = 877;
}
);
leftKerningGroup = s;
rightKerningGroup = t;
},
{
glyphname = A.sc;
lastChange = "2016-08-17 14:38:19 +0000";
layers = (
{
anchors = (
{
name = bottom;
position = "{584, 8}";
},
{
name = top;
position = "{280, 707}";
}
);
background = {
paths = (
{
closed = 1;
nodes = (
"-31 0 LINE",
"-9 0 LINE",
"116 190 LINE",
"401 190 LINE",
"445 0 LINE",
"466 0 LINE",
"342 540 LINE",
"324 540 LINE"
);
},
{
closed = 1;
nodes = (
"127 209 LINE",
"327 512 LINE",
"397 209 LINE"
);
}
);
};
layerId = UUID0;
paths = (
{
closed = 1;
nodes = (
"-31 0 LINE",
"-9 0 LINE",
"116 190 LINE",
"401 190 LINE",
"445 0 LINE",
"466 0 LINE",
"342 540 LINE",
"324 540 LINE"
);
},
{
closed = 1;
nodes = (
"127 209 LINE",
"327 512 LINE",
"397 209 LINE"
);
}
);
width = 557;
},
{
anchors = (
{
name = bottom;
position = "{570, 8}";
},
{
name = top;
position = "{266, 707}";
}
);
layerId = "6CB1ED38-7E52-4100-AE28-A91D059C1838";
paths = (
{
closed = 1;
nodes = (
"-67 0 LINE",
"114 0 LINE",
"171 102 LINE",
"330 102 LINE",
"345 0 LINE",
"524 0 LINE",
"419 568 LINE",
"281 568 LINE"
);
},
{
closed = 1;
nodes = (
"238 250 LINE",
"306 363 LINE",
"324 250 LINE"
);
}
);
width = 580;
}
);
},
{
glyphname = B.sc;
lastChange = "2016-08-17 14:38:19 +0000";
layers = (
{
background = {
paths = (
{
closed = 1;
nodes = (
"29 0 LINE",
"286 0 LINE SMOOTH",
"373 0 OFFCURVE",
"459 77 OFFCURVE",
"459 164 CURVE SMOOTH",
"459 215 OFFCURVE",
"431 261 OFFCURVE",
"382 277 CURVE",
"445 302 OFFCURVE",
"491 362 OFFCURVE",
"491 428 CURVE SMOOTH",
"491 485 OFFCURVE",
"457 540 OFFCURVE",
"391 540 CURVE SMOOTH",
"144 540 LINE"
);
},
{
closed = 1;
nodes = (
"53 19 LINE",
"105 263 LINE",
"347 263 LINE SMOOTH",
"404 263 OFFCURVE",
"439 216 OFFCURVE",
"439 162 CURVE SMOOTH",
"439 91 OFFCURVE",
"365 19 OFFCURVE",
"290 19 CURVE SMOOTH"
);
},
{
closed = 1;
nodes = (
"109 282 LINE",
"159 520 LINE",
"385 520 LINE SMOOTH",
"439 520 OFFCURVE",
"470 476 OFFCURVE",
"470 424 CURVE SMOOTH",
"470 354 OFFCURVE",
"405 282 OFFCURVE",
"330 282 CURVE SMOOTH"
);
}
);
};
layerId = UUID0;
paths = (
{
closed = 1;
nodes = (
"29 0 LINE",
"286 0 LINE SMOOTH",
"373 0 OFFCURVE",
"459 77 OFFCURVE",
"459 164 CURVE SMOOTH",
"459 215 OFFCURVE",
"431 261 OFFCURVE",
"382 277 CURVE",
"445 302 OFFCURVE",
"491 362 OFFCURVE",
"491 428 CURVE SMOOTH",
"491 485 OFFCURVE",
"457 540 OFFCURVE",
"391 540 CURVE SMOOTH",
"144 540 LINE"
);
},
{
closed = 1;
nodes = (
"53 19 LINE",
"105 263 LINE",
"347 263 LINE SMOOTH",
"404 263 OFFCURVE",
"439 216 OFFCURVE",
"439 162 CURVE SMOOTH",
"439 91 OFFCURVE",
"365 19 OFFCURVE",
"290 19 CURVE SMOOTH"
);
},
{
closed = 1;
nodes = (
"109 282 LINE",
"159 520 LINE",
"385 520 LINE SMOOTH",
"439 520 OFFCURVE",
"470 476 OFFCURVE",
"470 424 CURVE SMOOTH",
"470 354 OFFCURVE",
"405 282 OFFCURVE",
"330 282 CURVE SMOOTH"
);
}
);
width = 544;
},
{
layerId = "6CB1ED38-7E52-4100-AE28-A91D059C1838";
paths = (
{
closed = 1;
nodes = (
"-9 0 LINE",
"286 0 LINE SMOOTH",
"418 0 OFFCURVE",
"538 49 OFFCURVE",
"538 178 CURVE SMOOTH",
"538 238 OFFCURVE",
"506 275 OFFCURVE",
"453 291 CURVE",
"527 319 OFFCURVE",
"570 386 OFFCURVE",
"570 448 CURVE SMOOTH",
"570 509 OFFCURVE",
"533 568 OFFCURVE",
"461 568 CURVE SMOOTH",
"112 568 LINE"
);
},
{
closed = 1;
nodes = (
"191 143 LINE",
"208 221 LINE",
"338 221 LINE SMOOTH",
"357 221 OFFCURVE",
"369 208 OFFCURVE",
"369 189 CURVE SMOOTH",
"369 158 OFFCURVE",
"344 143 OFFCURVE",
"316 143 CURVE SMOOTH"
);
},
{
closed = 1;
nodes = (
"236 354 LINE",
"251 423 LINE",
"362 423 LINE",
"378 423 OFFCURVE",
"392 417 OFFCURVE",
"392 397 CURVE SMOOTH",
"392 357 OFFCURVE",
"368 354 OFFCURVE",
"343 354 CURVE SMOOTH"
);
}
);
width = 592;
}
);
leftKerningGroup = I.sc;
},
